<?xml version="1.0" encoding="utf-8"?>
<!-- Generator: Adobe Illustrator 22.0.1, SVG Export Plug-In . SVG Version: 6.00 Build 0)  -->
<svg version="1.1" id="Capa_1" xmlns="http://www.w3.org/2000/svg" xmlns:xlink="http://www.w3.org/1999/xlink" x="0px" y="0px"
	 viewBox="0 0 24.5 24.5" style="enable-background:new 0 0 24.5 24.5;" xml:space="preserve">
<style type="text/css">
	.st0{fill:#FFFFFF;}
	.st1{fill:#090909;}
</style>
<g>
	<g>
		<g>
			<path class="st0" d="M12.5,17.1c-2,0-3.6-1.6-3.6-3.6v-3.3c0-2,1.6-3.6,3.6-3.6c2,0,3.6,1.6,3.6,3.6v3.3
				C16.1,15.4,14.5,17.1,12.5,17.1z M12.5,7.5c-1.5,0-2.6,1.2-2.6,2.6v3.3c0,1.5,1.2,2.6,2.6,2.6s2.6-1.2,2.6-2.6v-3.3
				C15.1,8.7,14,7.5,12.5,7.5z"/>
		</g>
		<g>
			<g>
				<g>
					<path class="st0" d="M20.2,7c0,0-0.1,0.1-0.1,0.1c-0.4,0-0.8,0-1.2,0c-0.1,0-0.2-0.1-0.2-0.2c0-0.1,0.1-0.2,0.2-0.2
						c0.2,0,0.3,0,0.5,0c0.2,0,0.5,0,0.7,0c0.1,0,0.1,0,0.2,0.1C20.3,6.7,20.3,6.9,20.2,7z"/>
					<path class="st0" d="M18.8,7.3c-0.3,0-0.5-0.2-0.5-0.5c0-0.3,0.2-0.5,0.5-0.5c0.1,0,0.2,0,0.4,0l0.8,0c0.1,0,0.2,0,0.4,0.1
						c0.2,0.2,0.2,0.5,0,0.7l0,0.1l-0.1,0L20.2,7l0.1,0.2c0,0-0.1,0.1-0.2,0.1C19.7,7.3,19.3,7.3,18.8,7.3
						C18.8,7.3,18.8,7.3,18.8,7.3z"/>
				</g>
			</g>
			<g>
				<g>
					<path class="st0" d="M16.6,4.6c-0.1,0.1-0.1,0.1-0.2,0.1c-0.1,0-0.1-0.1-0.2-0.2c0,0,0-0.1,0-0.1c0-0.4,0-0.8,0-1.1
						c0-0.1,0-0.1,0.1-0.2c0.1-0.1,0.1-0.1,0.2-0.1c0.1,0,0.1,0.1,0.2,0.2c0,0,0,0.1,0,0.1c0,0.4,0,0.8,0,1.1
						C16.7,4.5,16.7,4.6,16.6,4.6z"/>
					<path class="st0" d="M16.5,5c0,0-0.1,0-0.1,0c-0.2,0-0.3-0.2-0.3-0.4c0-0.1,0-0.1,0-0.2l0-1.1c0-0.1,0-0.2,0.1-0.4
						c0.1-0.1,0.3-0.2,0.5-0.2c0.2,0,0.3,0.2,0.3,0.4c0,0,0,0.1,0,0.1l0,1.1c0,0.1,0,0.2-0.1,0.4C16.7,4.9,16.6,5,16.5,5z M16.5,4.4
						L16.5,4.4L16.5,4.4L16.5,4.4z"/>
				</g>
			</g>
			<g>
				<g>
					<path class="st0" d="M18.7,4.9c-0.1,0.1-0.3,0.3-0.4,0.4c-0.1,0.1-0.2,0.1-0.3,0c-0.1-0.1-0.1-0.2,0-0.3c0,0,0,0,0,0
						c0.3-0.3,0.5-0.6,0.8-0.8c0.1-0.1,0.3-0.1,0.4,0c0.1,0.1,0,0.2,0,0.3C19,4.6,18.8,4.7,18.7,4.9z"/>
					<path class="st0" d="M18.1,5.6c-0.1,0-0.2,0-0.3-0.1c-0.2-0.2-0.2-0.4,0-0.6l0-0.1L18,4.6c0.2-0.2,0.4-0.4,0.6-0.6
						c0.1-0.1,0.3-0.2,0.4-0.2c0.1,0,0.3,0.1,0.4,0.2c0.1,0.2,0.1,0.4-0.1,0.6c-0.1,0.1-0.2,0.2-0.3,0.3l-0.2,0.2
						c-0.1,0.1-0.2,0.2-0.3,0.3C18.4,5.6,18.2,5.6,18.1,5.6z"/>
				</g>
			</g>
		</g>
		<g>
			<path class="st1" d="M13.9,13c-0.7-0.4-1.3,0.9-1.3,0.9l1.8-3.4c0,0,0.3-0.6-0.2-0.9c-0.5-0.3-0.8,0.1-0.8,0.1L11,14.4l-1.1-1.7
				c0,0-0.5-0.4-0.8-0.2c-0.4,0.2-0.2,0.9-0.2,0.9s0.4,0.8,0.4,1.7s-0.3,2.2,0.8,3.1c1.1,0.9,2,1.1,2.8,1.1c0.8,0,1.5-0.3,2.3-1.7
				s1.6-2.7,0.9-3.1c-0.5-0.2-0.8,0.4-0.9,0.5c-0.1,0.1,0.7-0.7,0-1.2c-0.5-0.3-0.7,0-0.8,0.1C14,14.3,14,14.3,14,14.3
				s-0.1,0.1,0.2-0.2C14.5,13.7,14.4,13.3,13.9,13z"/>
			<path class="st0" d="M12.8,19.6c-1,0-2-0.4-2.9-1.2c-1-0.8-1-2-0.9-2.8c0-0.2,0-0.3,0-0.4c0-0.8-0.3-1.5-0.3-1.5
				c-0.1-0.4-0.1-1,0.3-1.3c0.5-0.3,1,0,1.2,0.2l0.1,0.1l0.8,1.3l2.2-4.3c0.2-0.2,0.7-0.5,1.2-0.1c0.5,0.4,0.4,1,0.3,1.3l-1.1,2
				c0.1,0,0.3,0,0.4,0.1l0,0c0.3,0.2,0.5,0.4,0.6,0.7c0.2,0,0.4,0,0.6,0.2c0.2,0.1,0.4,0.3,0.5,0.6c0.2,0,0.4,0,0.5,0.1
				c0.2,0.1,0.4,0.3,0.4,0.5c0.2,0.7-0.4,1.7-1.1,2.8l-0.1,0.1C14.5,19.2,13.8,19.5,12.8,19.6C12.8,19.6,12.8,19.6,12.8,19.6z
				 M9.1,13.4c0,0,0.4,0.8,0.4,1.7c0,0.1,0,0.3,0,0.5c0,0.8-0.1,1.7,0.7,2.3c0.9,0.7,1.7,1,2.6,1c0.7,0,1.2-0.1,2.1-1.5l0.1-0.1
				c0.5-0.9,1.1-1.9,1-2.4c0-0.1-0.1-0.1-0.1-0.2c-0.1-0.1-0.2,0.1-0.3,0.2c-0.1,0.2-0.2,0.3-0.3,0.3l-0.2,0L14.8,15l0.1-0.2
				c0-0.1,0.1-0.1,0.1-0.2c0.1-0.1,0.1-0.2,0.1-0.3c0,0,0-0.1-0.2-0.2c-0.3-0.1-0.3-0.1-0.4,0l-0.1,0.2c-0.2,0.3-0.4,0.5-0.6,0.3
				l-0.2-0.1l0.1-0.3l0.2-0.3c0,0,0,0,0,0c0.1-0.1,0.1-0.2,0.1-0.3c0-0.1-0.2-0.2-0.3-0.3c-0.1,0-0.1,0-0.2,0
				c-0.2,0.1-0.5,0.4-0.6,0.6L12.9,14l-0.5-0.3c0,0,0-0.1,0.1-0.2l1.7-3.2c0,0,0.1-0.3-0.1-0.5c-0.2-0.1-0.4-0.1-0.4,0L11,15
				l-1.3-2.1c-0.1-0.1-0.3-0.2-0.5-0.1C9,12.9,9.1,13.2,9.1,13.4L9.1,13.4z"/>
		</g>
		<g>
			<rect x="12" y="7" class="st0" width="1" height="1.7"/>
		</g>
	</g>
	<g>
		<g>
			<path class="st0" d="M12.5,23.7c-0.7,0-1.5-0.1-2.2-0.2c-5.9-1.2-9.8-7.1-8.6-13.1c0.9-4.6,4.6-8.1,9.2-8.8
				C11.4,1.6,11.9,2,12,2.5s-0.3,1.1-0.8,1.1c-3.7,0.6-6.8,3.4-7.5,7.2c-1,4.9,2.2,9.7,7,10.7c4.6,0.9,9.1-1.8,10.4-6.3
				c0.2-0.5,0.7-0.8,1.2-0.7c0.5,0.2,0.8,0.7,0.7,1.2C21.6,20.6,17.3,23.7,12.5,23.7z"/>
		</g>
		<g>
			<g>
				<polygon class="st0" points="10.4,0.8 13.9,2.7 10.5,4.7 				"/>
			</g>
		</g>
	</g>
</g>
</svg>
