<svg xmlns="http://www.w3.org/2000/svg" viewBox="0 0 69.67 23.11"><defs><style>.cls-1{fill:#f4accd;}.cls-2{fill:none;stroke:#211915;stroke-miterlimit:10;stroke-width:0.75px;}.cls-3{fill:#211915;}.cls-4{fill:#1d1d1b;}</style></defs><g id="Capa_1" data-name="Capa 1"><rect class="cls-1" x="35.65" y="3.33" width="24" height="16.48"/><line class="cls-2" x1="47.89" y1="11.58" x2="66.44" y2="11.58"/><polygon class="cls-3" points="63.95 14.64 63.44 14.1 66.15 11.58 63.44 9.06 63.95 8.51 67.25 11.58 63.95 14.64"/><path class="cls-4" d="M5.26,8.4l1,5.48,1-5.48H8L6.77,14.7h-1L4.55,8.4Z"/><path class="cls-4" d="M8.88,9.92c0-1,.47-1.59,1.44-1.59s1.45.63,1.45,1.59v3.26a1.38,1.38,0,0,1-1.45,1.58c-1,0-1.44-.63-1.44-1.58Zm.69,3.29c0,.58.24.91.75.91s.74-.33.74-.91V9.88c0-.56-.23-.91-.74-.91s-.75.35-.75.91Z"/><path class="cls-4" d="M12.88,14.7V8.4h.7v5.66h1.8v.64Z"/><path class="cls-4" d="M16.6,8.4l1,5.48,1-5.48h.65l-1.18,6.3h-1L15.89,8.4Z"/><path class="cls-4" d="M22.52,11.19v.63H21v2.24h1.89v.64H20.28V8.4h2.59V9H21v2.15Z"/><path class="cls-4" d="M25.37,8.4c1,0,1.41.5,1.41,1.44v.51a1.19,1.19,0,0,1-.79,1.3c.58.17.8.64.8,1.31v1a1.69,1.69,0,0,0,.12.76H26.2a1.66,1.66,0,0,1-.12-.77v-1c0-.71-.33-.93-.91-.93h-.5V14.7H24V8.4Zm-.18,3c.56,0,.89-.18.89-.87V9.9c0-.57-.2-.86-.73-.86h-.68v2.33Z"/></g></svg>