<svg xmlns="http://www.w3.org/2000/svg" viewBox="0 0 66.79 20.47"><defs><style>.cls-1{fill:#fdca49;}.cls-2{fill:none;stroke:#211915;stroke-miterlimit:10;stroke-width:0.75px;}.cls-3{fill:#211915;}.cls-4{fill:#1d1d1b;}</style></defs><title>miscelaneas-fichas-recorridos-03</title><g id="Capa_1" data-name="Capa 1"><rect class="cls-1" x="33.15" y="1.99" width="24" height="16.48"/><line class="cls-2" x1="45.38" y1="10.23" x2="63.93" y2="10.23"/><polygon class="cls-3" points="61.45 13.3 60.94 12.75 63.65 10.23 60.94 7.72 61.45 7.17 64.75 10.23 61.45 13.3"/><path class="cls-4" d="M2.75,7.05l1,5.49,1-5.49h.64L4.27,13.36h-1L2,7.05Z"/><path class="cls-4" d="M6.37,8.58c0-1,.48-1.59,1.44-1.59s1.45.62,1.45,1.59v3.25c0,1-.48,1.59-1.45,1.59s-1.44-.63-1.44-1.59Zm.69,3.29c0,.58.25.91.75.91s.75-.33.75-.91V8.54c0-.57-.24-.91-.75-.91s-.75.34-.75.91Z"/><path class="cls-4" d="M10.38,13.36V7.05h.7v5.67h1.8v.64Z"/><path class="cls-4" d="M14.09,7.05l1,5.49,1-5.49h.64l-1.17,6.31h-1L13.38,7.05Z"/><path class="cls-4" d="M20,9.85v.63H18.48v2.24h1.89v.64h-2.6V7.05h2.6v.64H18.48V9.85Z"/><path class="cls-4" d="M22.87,7.05c1,0,1.4.51,1.4,1.44V9c0,.69-.24,1.12-.78,1.29.58.18.79.64.79,1.32v1a1.57,1.57,0,0,0,.13.76H23.7a1.69,1.69,0,0,1-.12-.77v-1c0-.71-.33-.94-.92-.94h-.49v2.7h-.71V7.05Zm-.18,3c.56,0,.89-.18.89-.87v-.6c0-.57-.21-.87-.73-.87h-.68V10Z"/></g></svg>