<svg width="18" height="18" viewBox="0 0 18 18" fill="none" xmlns="http://www.w3.org/2000/svg">
<path d="M17.5781 7.875H16.5106C16.0215 4.58174 13.4183 1.97845 10.125 1.48936V0.421875C10.125 0.188895 9.93611 0 9.70312 0H8.29688C8.06389 0 7.875 0.188895 7.875 0.421875V1.48936C4.58174 1.97845 1.97845 4.58174 1.48936 7.875H0.421875C0.188895 7.875 0 8.06389 0 8.29688V9.70312C0 9.93611 0.188895 10.125 0.421875 10.125H1.48936C1.97845 13.4183 4.58174 16.0215 7.875 16.5106V17.5781C7.875 17.8111 8.06389 18 8.29688 18H9.70312C9.93611 18 10.125 17.8111 10.125 17.5781V16.5106C13.4183 16.0215 16.0215 13.4183 16.5106 10.125H17.5781C17.8111 10.125 18 9.93611 18 9.70312V8.29688C18 8.06389 17.8111 7.875 17.5781 7.875ZM10.125 14.2254V12.7969C10.125 12.5639 9.93611 12.375 9.70312 12.375H8.29688C8.06389 12.375 7.875 12.5639 7.875 12.7969V14.2254C5.82982 13.7894 4.21112 12.1726 3.77459 10.125H5.20312C5.43611 10.125 5.625 9.93611 5.625 9.70312V8.29688C5.625 8.06389 5.43611 7.875 5.20312 7.875H3.77459C4.21059 5.82982 5.82739 4.21112 7.875 3.77459V5.20312C7.875 5.43611 8.06389 5.625 8.29688 5.625H9.70312C9.93611 5.625 10.125 5.43611 10.125 5.20312V3.77459C12.1702 4.21059 13.7889 5.82739 14.2254 7.875H12.7969C12.5639 7.875 12.375 8.06389 12.375 8.29688V9.70312C12.375 9.93611 12.5639 10.125 12.7969 10.125H14.2254C13.7894 12.1702 12.1726 13.7889 10.125 14.2254ZM10.125 9C10.125 9.62132 9.62132 10.125 9 10.125C8.37868 10.125 7.875 9.62132 7.875 9C7.875 8.37868 8.37868 7.875 9 7.875C9.62132 7.875 10.125 8.37868 10.125 9Z" fill="black"/>
</svg>
