<?xml version="1.0" encoding="utf-8"?>
<!-- Generator: Adobe Illustrator 22.0.1, SVG Export Plug-In . SVG Version: 6.00 Build 0)  -->
<svg version="1.1" id="Capa_1" xmlns="http://www.w3.org/2000/svg" xmlns:xlink="http://www.w3.org/1999/xlink" x="0px" y="0px"
	 viewBox="0 0 24 24" style="enable-background:new 0 0 24 24;" xml:space="preserve">
<style type="text/css">
	.st0{fill:#FFFFFF;}
</style>
<g>
	<g>
		<path class="st0" d="M12,20.6c-4.8,0-8.6-3.9-8.6-8.6S7.2,3.4,12,3.4s8.6,3.9,8.6,8.6S16.8,20.6,12,20.6z M12,5.2
			c-3.7,0-6.8,3-6.8,6.8s3,6.8,6.8,6.8s6.8-3,6.8-6.8S15.7,5.2,12,5.2z"/>
	</g>
	<g>
		<circle class="st0" cx="12" cy="12" r="3.2"/>
	</g>
	<g>
		<path class="st0" d="M12,23.2c-0.5,0-0.9-0.4-0.9-0.9v-2.5c0-0.5,0.4-0.9,0.9-0.9s0.9,0.4,0.9,0.9v2.5
			C12.9,22.8,12.5,23.2,12,23.2z"/>
	</g>
	<g>
		<path class="st0" d="M12,5.2c-0.5,0-0.9-0.4-0.9-0.9V1.8c0-0.5,0.4-0.9,0.9-0.9s0.9,0.4,0.9,0.9v2.5C12.9,4.8,12.5,5.2,12,5.2z"/>
	</g>
	<g>
		<path class="st0" d="M4.3,12.9H1.8c-0.5,0-0.9-0.4-0.9-0.9s0.4-0.9,0.9-0.9h2.5c0.5,0,0.9,0.4,0.9,0.9S4.8,12.9,4.3,12.9z"/>
	</g>
	<g>
		<path class="st0" d="M22.2,12.9h-2.5c-0.5,0-0.9-0.4-0.9-0.9s0.4-0.9,0.9-0.9h2.5c0.5,0,0.9,0.4,0.9,0.9S22.8,12.9,22.2,12.9z"/>
	</g>
</g>
</svg>
