<svg width="14" height="15" viewBox="0 0 14 15" fill="none" xmlns="http://www.w3.org/2000/svg">
<path d="M14.0625 15.875H1.6875C0.755508 15.875 0 15.1195 0 14.1875V1.8125C0 0.880508 0.755508 0.125 1.6875 0.125H14.0625C14.9945 0.125 15.75 0.880508 15.75 1.8125V14.1875C15.75 15.1195 14.9945 15.875 14.0625 15.875ZM6.86651 12.4276L13.3353 5.95886C13.5549 5.73921 13.5549 5.38304 13.3353 5.16338L12.5398 4.3679C12.3201 4.14825 11.964 4.14821 11.7443 4.3679L6.46875 9.64338L4.00574 7.18037C3.78608 6.96071 3.42991 6.96071 3.21022 7.18037L2.41474 7.97585C2.19509 8.1955 2.19509 8.55167 2.41474 8.77133L6.07099 12.4276C6.29068 12.6473 6.64682 12.6473 6.86651 12.4276Z" fill="white"/>
</svg>
