<svg width="13" height="14" viewBox="0 0 13 14" fill="none" xmlns="http://www.w3.org/2000/svg">
<path d="M8.53312 7L12.0512 3.48191C12.4829 3.05019 12.4829 2.35023 12.0512 1.91816L11.2693 1.13629C10.8376 0.70457 10.1377 0.70457 9.70559 1.13629L6.1875 4.65438L2.66941 1.13629C2.2377 0.70457 1.53773 0.70457 1.10566 1.13629L0.323789 1.91816C-0.10793 2.34988 -0.10793 3.04984 0.323789 3.48191L3.84188 7L0.323789 10.5181C-0.10793 10.9498 -0.10793 11.6498 0.323789 12.0818L1.10566 12.8637C1.53738 13.2954 2.2377 13.2954 2.66941 12.8637L6.1875 9.34562L9.70559 12.8637C10.1373 13.2954 10.8376 13.2954 11.2693 12.8637L12.0512 12.0818C12.4829 11.6501 12.4829 10.9502 12.0512 10.5181L8.53312 7Z" fill="#20DCD1"/>
</svg>
