<svg id="Capa_1" data-name="Capa 1" xmlns="http://www.w3.org/2000/svg" viewBox="0 0 32 31"><defs><style>.cls-1{fill:#fff;}</style></defs><path class="cls-1" d="M16.69,2.84h7.19a5,5,0,0,1,5.25,5.23V22.51a5.1,5.1,0,0,1-5.29,5.28H9.5a5.16,5.16,0,0,1-5.32-5.32q0-7.2,0-14.39A5.09,5.09,0,0,1,9.39,2.84Zm7.4,10.6a7.7,7.7,0,0,1-7.32,9.5,7.32,7.32,0,0,1-5.51-2.23A7.61,7.61,0,0,1,9.2,13.44H7.07V23c0,1.27.59,1.85,1.86,1.85q7.71,0,15.42,0a1.59,1.59,0,0,0,1.83-1.81V14c0-.17,0-.33,0-.52ZM16.64,10.5a4.8,4.8,0,1,0,4.79,4.81A4.77,4.77,0,0,0,16.64,10.5Zm9.54-2.32V7.41a1.55,1.55,0,0,0-1.64-1.65q-.79,0-1.59,0A1.54,1.54,0,0,0,21.4,7.34c0,.27,0,.55,0,.82-.13,1.84.5,2.42,2.38,2.42S26.32,10,26.18,8.18Z"/></svg>