<svg width="10" height="15" viewBox="0 0 10 15" fill="none" xmlns="http://www.w3.org/2000/svg">
<path d="M6.38867 10.1543H3.89844C3.90495 9.56836 3.95052 9.0638 4.03516 8.64062C4.1263 8.21094 4.2793 7.82357 4.49414 7.47852C4.71549 7.13346 5.00846 6.79167 5.37305 6.45312C5.67904 6.17969 5.94596 5.91927 6.17383 5.67188C6.40169 5.42448 6.58073 5.17057 6.71094 4.91016C6.84115 4.64323 6.90625 4.34701 6.90625 4.02148C6.90625 3.64388 6.84766 3.33138 6.73047 3.08398C6.61979 2.83008 6.45052 2.63802 6.22266 2.50781C6.0013 2.3776 5.72135 2.3125 5.38281 2.3125C5.10286 2.3125 4.84245 2.37435 4.60156 2.49805C4.36068 2.61523 4.16211 2.79753 4.00586 3.04492C3.85612 3.29232 3.77799 3.61784 3.77148 4.02148H0.939453C0.958984 3.12956 1.16406 2.39388 1.55469 1.81445C1.95182 1.22852 2.48242 0.795573 3.14648 0.515625C3.81055 0.229167 4.55599 0.0859375 5.38281 0.0859375C6.29427 0.0859375 7.07552 0.235677 7.72656 0.535156C8.3776 0.828125 8.87565 1.26107 9.2207 1.83398C9.56576 2.40039 9.73828 3.09049 9.73828 3.9043C9.73828 4.4707 9.6276 4.97526 9.40625 5.41797C9.1849 5.85417 8.89518 6.26107 8.53711 6.63867C8.17904 7.01628 7.78516 7.4069 7.35547 7.81055C6.98438 8.14258 6.73047 8.49089 6.59375 8.85547C6.46354 9.22005 6.39518 9.65299 6.38867 10.1543ZM3.60547 13.1719C3.60547 12.7552 3.7487 12.4102 4.03516 12.1367C4.32161 11.8568 4.70573 11.7168 5.1875 11.7168C5.66276 11.7168 6.04362 11.8568 6.33008 12.1367C6.62305 12.4102 6.76953 12.7552 6.76953 13.1719C6.76953 13.5755 6.62305 13.9173 6.33008 14.1973C6.04362 14.4772 5.66276 14.6172 5.1875 14.6172C4.70573 14.6172 4.32161 14.4772 4.03516 14.1973C3.7487 13.9173 3.60547 13.5755 3.60547 13.1719Z" fill="black"/>
</svg>
