<svg id="Capa_1" data-name="Capa 1" xmlns="http://www.w3.org/2000/svg" xmlns:xlink="http://www.w3.org/1999/xlink" viewBox="0 0 176 182"><defs><style>.cls-1{fill:none;stroke:gray;stroke-miterlimit:10;stroke-width:0.75px;stroke-dasharray:2.68 2.68;}.cls-2{fill:url(#Degradado_sin_nombre_42);}.cls-3{fill:url(#Degradado_sin_nombre_42-2);}.cls-4{fill:url(#Degradado_sin_nombre_42-3);}.cls-5{fill:gray;}.cls-6{fill:#ccc;}.cls-7{fill:#b3b3b3;}.cls-8{fill:url(#Degradado_sin_nombre_42-4);}.cls-9{fill:url(#Degradado_sin_nombre_42-5);}.cls-10{fill:url(#Degradado_sin_nombre_42-6);}</style><linearGradient id="Degradado_sin_nombre_42" x1="2127.91" y1="8726.63" x2="2123.92" y2="8732.07" gradientTransform="translate(8736.07 -1965.9) rotate(89.89)" gradientUnits="userSpaceOnUse"><stop offset="0" stop-color="#cfcfcf"/><stop offset="0.99" stop-color="gray"/></linearGradient><linearGradient id="Degradado_sin_nombre_42-2" x1="2123.31" y1="8725.11" x2="2116.32" y2="8734.62" xlink:href="#Degradado_sin_nombre_42"/><linearGradient id="Degradado_sin_nombre_42-3" x1="2125.7" y1="8731.38" x2="2120.77" y2="8738.08" xlink:href="#Degradado_sin_nombre_42"/><linearGradient id="Degradado_sin_nombre_42-4" x1="1962.61" y1="8699.77" x2="1958.61" y2="8705.21" xlink:href="#Degradado_sin_nombre_42"/><linearGradient id="Degradado_sin_nombre_42-5" x1="1958" y1="8698.25" x2="1951.01" y2="8707.77" xlink:href="#Degradado_sin_nombre_42"/><linearGradient id="Degradado_sin_nombre_42-6" x1="1960.39" y1="8704.52" x2="1955.47" y2="8711.23" xlink:href="#Degradado_sin_nombre_42"/></defs><polyline class="cls-1" points="133.54 51.91 165.73 20.71 33.74 9.38 8.65 174.01 67.56 116.69"/><polygon class="cls-2" points="15.54 173.23 8.49 173.98 6.06 180.03 12.93 179.34 15.54 173.23"/><polygon class="cls-3" points="15.54 173.23 12.14 167.13 4.87 167.83 8.49 173.98 15.54 173.23"/><polygon class="cls-4" points="8.49 173.98 6.06 180.03 2.18 173.99 4.68 167.83 8.49 173.98"/><polygon class="cls-5" points="29.62 38.59 28.47 45.46 22.1 47.26 29.62 38.59"/><polygon class="cls-6" points="32.65 50.47 22.1 47.26 28.47 45.46 32.65 50.47"/><polygon class="cls-7" points="32.65 50.47 29.62 38.59 28.47 45.46 32.65 50.47"/><polygon class="cls-8" points="42.08 7.88 35.03 8.62 32.6 14.67 39.48 13.98 42.08 7.88"/><polygon class="cls-9" points="42.08 7.88 38.68 1.78 31.41 2.47 35.03 8.62 42.08 7.88"/><polygon class="cls-10" points="35.03 8.62 32.6 14.67 28.72 8.64 31.22 2.47 35.03 8.62"/><polygon class="cls-5" points="133.74 11.76 129.58 17.34 123.09 16.04 133.74 11.76"/><polygon class="cls-6" points="131.01 23.71 123.09 16.04 129.58 17.34 131.01 23.71"/><polygon class="cls-7" points="131.01 23.71 133.74 11.76 129.58 17.34 131.01 23.71"/><polygon class="cls-5" points="172.63 20.99 165.67 20.68 163.11 14.57 172.63 20.99"/><polygon class="cls-6" points="161.2 25.43 163.11 14.57 165.67 20.68 161.2 25.43"/><polygon class="cls-7" points="161.2 25.43 172.63 20.99 165.67 20.68 161.2 25.43"/></svg>