{
    "asset" : {
        "generator" : "Khronos glTF Blender I/O v1.3.48",
        "version" : "2.0"
    },
    "scene" : 0,
    "scenes" : [
        {
            "name" : "Scene",
            "nodes" : [
                0
            ]
        }
    ],
    "nodes" : [
        {
            "mesh" : 0,
            "name" : "MarcadoRetiro",
            "rotation" : [
                0.6881351470947266,
                -0.16269627213478088,
                0.16269628703594208,
                0.6881350874900818
            ],
            "scale" : [
                0.2513246536254883,
                0.2513246536254883,
                0.2513246536254883
            ],
            "translation" : [
                3.9498300552368164,
                0.7218517065048218,
                9.349067687988281
            ]
        }
    ],
    "materials" : [
        {
            "doubleSided" : true,
            "emissiveFactor" : [
                0,
                0,
                0
            ],
            "name" : "Material.021",
            "pbrMetallicRoughness" : {
                "baseColorFactor" : [
                    0.9822509288787842,
                    0.5906188488006592,
                    0.06662601232528687,
                    1
                ],
                "metallicFactor" : 0,
                "roughnessFactor" : 0.5
            }
        }
    ],
    "meshes" : [
        {
            "name" : "Plano.016",
            "primitives" : [
                {
                    "attributes" : {
                        "POSITION" : 0,
                        "NORMAL" : 1,
                        "TEXCOORD_0" : 2
                    },
                    "indices" : 3,
                    "material" : 0
                }
            ]
        }
    ],
    "accessors" : [
        {
            "bufferView" : 0,
            "componentType" : 5126,
            "count" : 1470,
            "max" : [
                0.9895337224006653,
                0.22186066210269928,
                1.6835705041885376
            ],
            "min" : [
                -0.9895337224006653,
                -5.960464477539063e-08,
                -1.1468493938446045
            ],
            "type" : "VEC3"
        },
        {
            "bufferView" : 1,
            "componentType" : 5126,
            "count" : 1470,
            "type" : "VEC3"
        },
        {
            "bufferView" : 2,
            "componentType" : 5126,
            "count" : 1470,
            "type" : "VEC2"
        },
        {
            "bufferView" : 3,
            "componentType" : 5123,
            "count" : 2376,
            "type" : "SCALAR"
        }
    ],
    "bufferViews" : [
        {
            "buffer" : 0,
            "byteLength" : 17640,
            "byteOffset" : 0
        },
        {
            "buffer" : 0,
            "byteLength" : 17640,
            "byteOffset" : 17640
        },
        {
            "buffer" : 0,
            "byteLength" : 11760,
            "byteOffset" : 35280
        },
        {
            "buffer" : 0,
            "byteLength" : 4752,
            "byteOffset" : 47040
        }
    ],
    "buffers" : [
        {
            "byteLength" : 51792,
            "uri" : "data:application/octet-stream;base64,"
        }
    ]
}
