{
    "asset" : {
        "generator" : "Khronos glTF Blender I/O v1.3.48",
        "version" : "2.0"
    },
    "scene" : 0,
    "scenes" : [
        {
            "name" : "Scene",
            "nodes" : [
                0
            ]
        }
    ],
    "nodes" : [
        {
            "mesh" : 0,
            "name" : "RecorridoLaBoca",
            "translation" : [
                -8.622998237609863,
                0.0047999718226492405,
                12.747486114501953
            ]
        }
    ],
    "materials" : [
        {
            "doubleSided" : true,
            "emissiveFactor" : [
                0,
                0,
                0
            ],
            "name" : "Material.007",
            "pbrMetallicRoughness" : {
                "baseColorFactor" : [
                    0.9822509288787842,
                    0.5906188488006592,
                    0.06662601232528687,
                    1
                ],
                "metallicFactor" : 0,
                "roughnessFactor" : 0.5
            }
        }
    ],
    "meshes" : [
        {
            "name" : "Plano.003",
            "primitives" : [
                {
                    "attributes" : {
                        "POSITION" : 0,
                        "NORMAL" : 1,
                        "TEXCOORD_0" : 2
                    },
                    "indices" : 3,
                    "material" : 0
                }
            ]
        }
    ],
    "accessors" : [
        {
            "bufferView" : 0,
            "componentType" : 5126,
            "count" : 4800,
            "max" : [
                4.635149002075195,
                0,
                2.209017276763916
            ],
            "min" : [
                -2.09977650642395,
                0,
                -1.347306728363037
            ],
            "type" : "VEC3"
        },
        {
            "bufferView" : 1,
            "componentType" : 5126,
            "count" : 4800,
            "type" : "VEC3"
        },
        {
            "bufferView" : 2,
            "componentType" : 5126,
            "count" : 4800,
            "type" : "VEC2"
        },
        {
            "bufferView" : 3,
            "componentType" : 5123,
            "count" : 18432,
            "type" : "SCALAR"
        }
    ],
    "bufferViews" : [
        {
            "buffer" : 0,
            "byteLength" : 57600,
            "byteOffset" : 0
        },
        {
            "buffer" : 0,
            "byteLength" : 57600,
            "byteOffset" : 57600
        },
        {
            "buffer" : 0,
            "byteLength" : 38400,
            "byteOffset" : 115200
        },
        {
            "buffer" : 0,
            "byteLength" : 36864,
            "byteOffset" : 153600
        }
    ],
    "buffers" : [
        {
            "byteLength" : 190464,
            "uri" : "data:application/octet-stream;base64,"
        }
    ]
}
