{
    "asset" : {
        "generator" : "Khronos glTF Blender I/O v1.3.48",
        "version" : "2.0"
    },
    "scene" : 0,
    "scenes" : [
        {
            "name" : "Scene",
            "nodes" : [
                0
            ]
        }
    ],
    "nodes" : [
        {
            "mesh" : 0,
            "name" : "RecorridoRetiro",
            "translation" : [
                3.530815601348877,
                0.023090265691280365,
                9.120917320251465
            ]
        }
    ],
    "materials" : [
        {
            "doubleSided" : true,
            "emissiveFactor" : [
                0,
                0,
                0
            ],
            "name" : "Material.014",
            "pbrMetallicRoughness" : {
                "baseColorFactor" : [
                    0.9822509288787842,
                    0.5906188488006592,
                    0.06662601232528687,
                    1
                ],
                "metallicFactor" : 0,
                "roughnessFactor" : 0.5
            }
        }
    ],
    "meshes" : [
        {
            "name" : "Plano.009",
            "primitives" : [
                {
                    "attributes" : {
                        "POSITION" : 0,
                        "NORMAL" : 1,
                        "TEXCOORD_0" : 2
                    },
                    "indices" : 3,
                    "material" : 0
                }
            ]
        }
    ],
    "accessors" : [
        {
            "bufferView" : 0,
            "componentType" : 5126,
            "count" : 103,
            "max" : [
                1.7670799493789673,
                0,
                0.6702688336372375
            ],
            "min" : [
                -1.1818312406539917,
                0,
                -0.6746128797531128
            ],
            "type" : "VEC3"
        },
        {
            "bufferView" : 1,
            "componentType" : 5126,
            "count" : 103,
            "type" : "VEC3"
        },
        {
            "bufferView" : 2,
            "componentType" : 5126,
            "count" : 103,
            "type" : "VEC2"
        },
        {
            "bufferView" : 3,
            "componentType" : 5123,
            "count" : 384,
            "type" : "SCALAR"
        }
    ],
    "bufferViews" : [
        {
            "buffer" : 0,
            "byteLength" : 1236,
            "byteOffset" : 0
        },
        {
            "buffer" : 0,
            "byteLength" : 1236,
            "byteOffset" : 1236
        },
        {
            "buffer" : 0,
            "byteLength" : 824,
            "byteOffset" : 2472
        },
        {
            "buffer" : 0,
            "byteLength" : 768,
            "byteOffset" : 3296
        }
    ],
    "buffers" : [
        {
            "byteLength" : 4064,
            "uri" : "data:application/octet-stream;base64,"
        }
    ]
}
