{
    "asset" : {
        "generator" : "Khronos glTF Blender I/O v1.3.48",
        "version" : "2.0"
    },
    "scene" : 0,
    "scenes" : [
        {
            "name" : "Scene",
            "nodes" : [
                0
            ]
        }
    ],
    "nodes" : [
        {
            "mesh" : 0,
            "name" : "RecorridoConstitucion",
            "scale" : [
                0.29173728823661804,
                0.29173728823661804,
                0.29173728823661804
            ],
            "translation" : [
                -2.8946146965026855,
                0.010142368264496326,
                8.819499015808105
            ]
        }
    ],
    "materials" : [
        {
            "doubleSided" : true,
            "emissiveFactor" : [
                0,
                0,
                0
            ],
            "name" : "Material.013",
            "pbrMetallicRoughness" : {
                "baseColorFactor" : [
                    0.9822509288787842,
                    0.5906188488006592,
                    0.06662601232528687,
                    1
                ],
                "metallicFactor" : 0,
                "roughnessFactor" : 0.5
            }
        }
    ],
    "meshes" : [
        {
            "name" : "Plano.008",
            "primitives" : [
                {
                    "attributes" : {
                        "POSITION" : 0,
                        "NORMAL" : 1,
                        "TEXCOORD_0" : 2
                    },
                    "indices" : 3,
                    "material" : 0
                }
            ]
        }
    ],
    "accessors" : [
        {
            "bufferView" : 0,
            "componentType" : 5126,
            "count" : 101,
            "max" : [
                3.642033100128174,
                0,
                3.078929901123047
            ],
            "min" : [
                -3.2166948318481445,
                0,
                -1.2274811267852783
            ],
            "type" : "VEC3"
        },
        {
            "bufferView" : 1,
            "componentType" : 5126,
            "count" : 101,
            "type" : "VEC3"
        },
        {
            "bufferView" : 2,
            "componentType" : 5126,
            "count" : 101,
            "type" : "VEC2"
        },
        {
            "bufferView" : 3,
            "componentType" : 5123,
            "count" : 384,
            "type" : "SCALAR"
        }
    ],
    "bufferViews" : [
        {
            "buffer" : 0,
            "byteLength" : 1212,
            "byteOffset" : 0
        },
        {
            "buffer" : 0,
            "byteLength" : 1212,
            "byteOffset" : 1212
        },
        {
            "buffer" : 0,
            "byteLength" : 808,
            "byteOffset" : 2424
        },
        {
            "buffer" : 0,
            "byteLength" : 768,
            "byteOffset" : 3232
        }
    ],
    "buffers" : [
        {
            "byteLength" : 4000,
            "uri" : "data:application/octet-stream;base64,"
        }
    ]
}
