{
    "asset" : {
        "generator" : "Khronos glTF Blender I/O v1.7.33",
        "version" : "2.0"
    },
    "scene" : 0,
    "scenes" : [
        {
            "name" : "Scene",
            "nodes" : [
                0
            ]
        }
    ],
    "nodes" : [
        {
            "mesh" : 0,
            "name" : "BellasArtes",
            "rotation" : [
                0,
                -0.870390772819519,
                0,
                0.49236178398132324
            ],
            "scale" : [
                0.7843705415725708,
                0.2457105964422226,
                0.4295620918273926
            ],
            "translation" : [
                5.531597137451172,
                0.20721906423568726,
                3.0467169284820557
            ]
        }
    ],
    "materials" : [
        {
            "doubleSided" : true,
            "name" : "PARED DEFINITIVA MAS OSCURA - B",
            "normalTexture" : {
                "index" : 0
            },
            "pbrMetallicRoughness" : {
                "baseColorTexture" : {
                    "index" : 1
                },
                "metallicFactor" : 0,
                "roughnessFactor" : 0.5
            }
        }
    ],
    "meshes" : [
        {
            "name" : "Cubo.004",
            "primitives" : [
                {
                    "attributes" : {
                        "POSITION" : 0,
                        "NORMAL" : 1,
                        "TEXCOORD_0" : 2
                    },
                    "indices" : 3,
                    "material" : 0
                }
            ]
        }
    ],
    "textures" : [
        {
            "sampler" : 0,
            "source" : 0
        },
        {
            "sampler" : 0,
            "source" : 1
        }
    ],
    "images" : [
        {
            "bufferView" : 4,
            "mimeType" : "image/png",
            "name" : "BELLAS ARTES 2"
        },
        {
            "bufferView" : 5,
            "mimeType" : "image/png",
            "name" : "BELLAS ARTES 1"
        }
    ],
    "accessors" : [
        {
            "bufferView" : 0,
            "componentType" : 5126,
            "count" : 1382,
            "max" : [
                1,
                1.195497751235962,
                1.3413193225860596
            ],
            "min" : [
                -1,
                -1,
                -1
            ],
            "type" : "VEC3"
        },
        {
            "bufferView" : 1,
            "componentType" : 5126,
            "count" : 1382,
            "type" : "VEC3"
        },
        {
            "bufferView" : 2,
            "componentType" : 5126,
            "count" : 1382,
            "type" : "VEC2"
        },
        {
            "bufferView" : 3,
            "componentType" : 5123,
            "count" : 2196,
            "type" : "SCALAR"
        }
    ],
    "bufferViews" : [
        {
            "buffer" : 0,
            "byteLength" : 16584,
            "byteOffset" : 0
        },
        {
            "buffer" : 0,
            "byteLength" : 16584,
            "byteOffset" : 16584
        },
        {
            "buffer" : 0,
            "byteLength" : 11056,
            "byteOffset" : 33168
        },
        {
            "buffer" : 0,
            "byteLength" : 4392,
            "byteOffset" : 44224
        },
        {
            "buffer" : 0,
            "byteLength" : 1762466,
            "byteOffset" : 48616
        },
        {
            "buffer" : 0,
            "byteLength" : 1211013,
            "byteOffset" : 1811084
        }
    ],
    "samplers" : [
        {
            "magFilter" : 9729,
            "minFilter" : 9987
        }
    ],
    "buffers" : [
        {
            "byteLength" : 3022100,
            "uri" : "data:application/octet-stream;base64,"
        }
    ]
}
