{
    "asset" : {
        "generator" : "Khronos glTF Blender I/O v1.3.48",
        "version" : "2.0"
    },
    "scene" : 0,
    "scenes" : [
        {
            "name" : "Scene",
            "nodes" : [
                0
            ]
        }
    ],
    "nodes" : [
        {
            "mesh" : 0,
            "name" : "BellasArtes",
            "rotation" : [
                0,
                -0.8528559803962708,
                0,
                0.5221461653709412
            ],
            "scale" : [
                0.6969025731086731,
                0.21831052005290985,
                0.3816600739955902
            ],
            "translation" : [
                4.7384233474731445,
                0.20721906423568726,
                4.7010498046875
            ]
        }
    ],
    "materials" : [
        {
            "doubleSided" : true,
            "emissiveFactor" : [
                0,
                0,
                0
            ],
            "name" : "Material.009",
            "pbrMetallicRoughness" : {
                "baseColorTexture" : {
                    "index" : 0,
                    "texCoord" : 0
                },
                "metallicFactor" : 0,
                "roughnessFactor" : 1
            }
        }
    ],
    "meshes" : [
        {
            "name" : "Cubo.004",
            "primitives" : [
                {
                    "attributes" : {
                        "POSITION" : 0,
                        "NORMAL" : 1,
                        "TEXCOORD_0" : 2
                    },
                    "indices" : 3,
                    "material" : 0
                }
            ]
        }
    ],
    "textures" : [
        {
            "source" : 0
        }
    ],
    "images" : [
        {
            "bufferView" : 4,
            "mimeType" : "image/jpeg",
            "name" : "imagen 7"
        }
    ],
    "accessors" : [
        {
            "bufferView" : 0,
            "componentType" : 5126,
            "count" : 1388,
            "max" : [
                1,
                1.195497751235962,
                1.3413193225860596
            ],
            "min" : [
                -1,
                -1,
                -1
            ],
            "type" : "VEC3"
        },
        {
            "bufferView" : 1,
            "componentType" : 5126,
            "count" : 1388,
            "type" : "VEC3"
        },
        {
            "bufferView" : 2,
            "componentType" : 5126,
            "count" : 1388,
            "type" : "VEC2"
        },
        {
            "bufferView" : 3,
            "componentType" : 5123,
            "count" : 2196,
            "type" : "SCALAR"
        }
    ],
    "bufferViews" : [
        {
            "buffer" : 0,
            "byteLength" : 16656,
            "byteOffset" : 0
        },
        {
            "buffer" : 0,
            "byteLength" : 16656,
            "byteOffset" : 16656
        },
        {
            "buffer" : 0,
            "byteLength" : 11104,
            "byteOffset" : 33312
        },
        {
            "buffer" : 0,
            "byteLength" : 4392,
            "byteOffset" : 44416
        },
        {
            "buffer" : 0,
            "byteLength" : 414813,
            "byteOffset" : 48808
        }
    ],
    "buffers" : [
        {
            "byteLength" : 463624,
            "uri" : "data:application/octet-stream;base64,"
        }
    ]
}
