{
    "asset" : {
        "generator" : "Khronos glTF Blender I/O v1.3.48",
        "version" : "2.0"
    },
    "scene" : 0,
    "scenes" : [
        {
            "name" : "Scene",
            "nodes" : [
                0
            ]
        }
    ],
    "nodes" : [
        {
            "mesh" : 0,
            "name" : "CasaRosada",
            "rotation" : [
                0,
                -0.9991200566291809,
                0,
                0.04194240644574165
            ],
            "scale" : [
                0.4814286530017853,
                0.09639804810285568,
                0.2781263589859009
            ],
            "translation" : [
                -0.1957303285598755,
                0.12619063258171082,
                12.704854965209961
            ]
        }
    ],
    "materials" : [
        {
            "doubleSided" : true,
            "emissiveFactor" : [
                0,
                0,
                0
            ],
            "name" : "Imagen 9",
            "pbrMetallicRoughness" : {
                "baseColorTexture" : {
                    "index" : 0,
                    "texCoord" : 0
                },
                "metallicFactor" : 0,
                "roughnessFactor" : 0.5
            }
        }
    ],
    "meshes" : [
        {
            "name" : "Cubo.022",
            "primitives" : [
                {
                    "attributes" : {
                        "POSITION" : 0,
                        "NORMAL" : 1,
                        "TEXCOORD_0" : 2
                    },
                    "indices" : 3,
                    "material" : 0
                }
            ]
        }
    ],
    "textures" : [
        {
            "source" : 0
        }
    ],
    "images" : [
        {
            "bufferView" : 4,
            "mimeType" : "image/jpeg",
            "name" : "imagen 9"
        }
    ],
    "accessors" : [
        {
            "bufferView" : 0,
            "componentType" : 5126,
            "count" : 3376,
            "max" : [
                1.0743918418884277,
                1.90864896774292,
                1.0380700826644897
            ],
            "min" : [
                -1.077883243560791,
                -1.400365948677063,
                -1.0440722703933716
            ],
            "type" : "VEC3"
        },
        {
            "bufferView" : 1,
            "componentType" : 5126,
            "count" : 3376,
            "type" : "VEC3"
        },
        {
            "bufferView" : 2,
            "componentType" : 5126,
            "count" : 3376,
            "type" : "VEC2"
        },
        {
            "bufferView" : 3,
            "componentType" : 5123,
            "count" : 5124,
            "type" : "SCALAR"
        }
    ],
    "bufferViews" : [
        {
            "buffer" : 0,
            "byteLength" : 40512,
            "byteOffset" : 0
        },
        {
            "buffer" : 0,
            "byteLength" : 40512,
            "byteOffset" : 40512
        },
        {
            "buffer" : 0,
            "byteLength" : 27008,
            "byteOffset" : 81024
        },
        {
            "buffer" : 0,
            "byteLength" : 10248,
            "byteOffset" : 108032
        },
        {
            "buffer" : 0,
            "byteLength" : 195483,
            "byteOffset" : 118280
        }
    ],
    "buffers" : [
        {
            "byteLength" : 313764,
            "uri" : "data:application/octet-stream;base64,"
        }
    ]
}
