{
    "asset" : {
        "generator" : "Khronos glTF Blender I/O v1.7.33",
        "version" : "2.0"
    },
    "scene" : 0,
    "scenes" : [
        {
            "name" : "Scene",
            "nodes" : [
                0
            ]
        }
    ],
    "nodes" : [
        {
            "mesh" : 0,
            "name" : "CasaRosada",
            "rotation" : [
                0,
                -0.9786697626113892,
                0,
                0.20544029772281647
            ],
            "scale" : [
                0.5148359537124634,
                0.10308730602264404,
                0.2974260747432709
            ],
            "translation" : [
                -0.11940261721611023,
                0.12619063258171082,
                13.5055570602417
            ]
        }
    ],
    "materials" : [
        {
            "doubleSided" : true,
            "name" : "Imagen 9.001",
            "pbrMetallicRoughness" : {
                "baseColorTexture" : {
                    "index" : 0
                },
                "metallicFactor" : 0,
                "roughnessFactor" : 0.5
            }
        }
    ],
    "meshes" : [
        {
            "name" : "Cubo.022",
            "primitives" : [
                {
                    "attributes" : {
                        "POSITION" : 0,
                        "NORMAL" : 1,
                        "TEXCOORD_0" : 2
                    },
                    "indices" : 3,
                    "material" : 0
                }
            ]
        }
    ],
    "textures" : [
        {
            "sampler" : 0,
            "source" : 0
        }
    ],
    "images" : [
        {
            "bufferView" : 4,
            "mimeType" : "image/jpeg",
            "name" : "imagen 9"
        }
    ],
    "accessors" : [
        {
            "bufferView" : 0,
            "componentType" : 5126,
            "count" : 3380,
            "max" : [
                1.0743918418884277,
                1.90864896774292,
                1.0380700826644897
            ],
            "min" : [
                -1.077883243560791,
                -1.400365948677063,
                -1.0440722703933716
            ],
            "type" : "VEC3"
        },
        {
            "bufferView" : 1,
            "componentType" : 5126,
            "count" : 3380,
            "type" : "VEC3"
        },
        {
            "bufferView" : 2,
            "componentType" : 5126,
            "count" : 3380,
            "type" : "VEC2"
        },
        {
            "bufferView" : 3,
            "componentType" : 5123,
            "count" : 5124,
            "type" : "SCALAR"
        }
    ],
    "bufferViews" : [
        {
            "buffer" : 0,
            "byteLength" : 40560,
            "byteOffset" : 0
        },
        {
            "buffer" : 0,
            "byteLength" : 40560,
            "byteOffset" : 40560
        },
        {
            "buffer" : 0,
            "byteLength" : 27040,
            "byteOffset" : 81120
        },
        {
            "buffer" : 0,
            "byteLength" : 10248,
            "byteOffset" : 108160
        },
        {
            "buffer" : 0,
            "byteLength" : 195483,
            "byteOffset" : 118408
        }
    ],
    "samplers" : [
        {
            "magFilter" : 9729,
            "minFilter" : 9987
        }
    ],
    "buffers" : [
        {
            "byteLength" : 313892,
            "uri" : "data:application/octet-stream;base64,"
        }
    ]
}
