{
    "asset" : {
        "generator" : "Khronos glTF Blender I/O v1.7.33",
        "version" : "2.0"
    },
    "scene" : 0,
    "scenes" : [
        {
            "name" : "Scene",
            "nodes" : [
                0
            ]
        }
    ],
    "nodes" : [
        {
            "mesh" : 0,
            "name" : "CCK",
            "rotation" : [
                0,
                -0.6582412123680115,
                0,
                0.752807080745697
            ],
            "scale" : [
                0.5515214800834656,
                0.35635149478912354,
                0.42791107296943665
            ],
            "translation" : [
                1.8109931945800781,
                0.35007014870643616,
                11.239747047424316
            ]
        }
    ],
    "materials" : [
        {
            "doubleSided" : true,
            "name" : "PARED DEFINITIVA.005",
            "normalTexture" : {
                "index" : 0
            },
            "pbrMetallicRoughness" : {
                "baseColorTexture" : {
                    "index" : 1
                },
                "metallicFactor" : 0,
                "roughnessFactor" : 0.5
            }
        }
    ],
    "meshes" : [
        {
            "name" : "Cubo.002",
            "primitives" : [
                {
                    "attributes" : {
                        "POSITION" : 0,
                        "NORMAL" : 1,
                        "TEXCOORD_0" : 2
                    },
                    "indices" : 3,
                    "material" : 0
                }
            ]
        }
    ],
    "textures" : [
        {
            "sampler" : 0,
            "source" : 0
        },
        {
            "sampler" : 0,
            "source" : 1
        }
    ],
    "images" : [
        {
            "bufferView" : 4,
            "mimeType" : "image/png",
            "name" : "CCK 2"
        },
        {
            "bufferView" : 5,
            "mimeType" : "image/png",
            "name" : "CCK 1"
        }
    ],
    "accessors" : [
        {
            "bufferView" : 0,
            "componentType" : 5126,
            "count" : 546,
            "max" : [
                1,
                1.4713783264160156,
                1.2387079000473022
            ],
            "min" : [
                -1,
                -1,
                -1
            ],
            "type" : "VEC3"
        },
        {
            "bufferView" : 1,
            "componentType" : 5126,
            "count" : 546,
            "type" : "VEC3"
        },
        {
            "bufferView" : 2,
            "componentType" : 5126,
            "count" : 546,
            "type" : "VEC2"
        },
        {
            "bufferView" : 3,
            "componentType" : 5123,
            "count" : 1044,
            "type" : "SCALAR"
        }
    ],
    "bufferViews" : [
        {
            "buffer" : 0,
            "byteLength" : 6552,
            "byteOffset" : 0
        },
        {
            "buffer" : 0,
            "byteLength" : 6552,
            "byteOffset" : 6552
        },
        {
            "buffer" : 0,
            "byteLength" : 4368,
            "byteOffset" : 13104
        },
        {
            "buffer" : 0,
            "byteLength" : 2088,
            "byteOffset" : 17472
        },
        {
            "buffer" : 0,
            "byteLength" : 2121822,
            "byteOffset" : 19560
        },
        {
            "buffer" : 0,
            "byteLength" : 733787,
            "byteOffset" : 2141384
        }
    ],
    "samplers" : [
        {
            "magFilter" : 9729,
            "minFilter" : 9987
        }
    ],
    "buffers" : [
        {
            "byteLength" : 2875172,
            "uri" : "data:application/octet-stream;base64,"
        }
    ]
}
