{
    "asset" : {
        "generator" : "Khronos glTF Blender I/O v1.7.33",
        "version" : "2.0"
    },
    "scene" : 0,
    "scenes" : [
        {
            "name" : "Scene",
            "nodes" : [
                0
            ]
        }
    ],
    "nodes" : [
        {
            "mesh" : 0,
            "name" : "HAROLDO CONTI",
            "rotation" : [
                0,
                0.31832098960876465,
                0,
                0.9479830861091614
            ],
            "scale" : [
                0.13634587824344635,
                0.2726917564868927,
                0.13634587824344635
            ],
            "translation" : [
                11.474366188049316,
                0.23278015851974487,
                -7.845037460327148
            ]
        }
    ],
    "materials" : [
        {
            "doubleSided" : true,
            "name" : "PAred",
            "normalTexture" : {
                "index" : 0
            },
            "pbrMetallicRoughness" : {
                "baseColorTexture" : {
                    "index" : 1
                },
                "metallicFactor" : 0,
                "roughnessFactor" : 0.5
            }
        }
    ],
    "meshes" : [
        {
            "name" : "Cube.002",
            "primitives" : [
                {
                    "attributes" : {
                        "POSITION" : 0,
                        "NORMAL" : 1,
                        "TEXCOORD_0" : 2
                    },
                    "indices" : 3,
                    "material" : 0
                }
            ]
        }
    ],
    "textures" : [
        {
            "sampler" : 0,
            "source" : 0
        },
        {
            "sampler" : 0,
            "source" : 1
        }
    ],
    "images" : [
        {
            "bufferView" : 4,
            "mimeType" : "image/png",
            "name" : "pared_blanca_normal"
        },
        {
            "bufferView" : 5,
            "mimeType" : "image/png",
            "name" : "PARED_BLANCA"
        }
    ],
    "accessors" : [
        {
            "bufferView" : 0,
            "componentType" : 5126,
            "count" : 385,
            "max" : [
                11,
                1.9978060722351074,
                1
            ],
            "min" : [
                -11,
                -0.9999999403953552,
                -6.959229946136475
            ],
            "type" : "VEC3"
        },
        {
            "bufferView" : 1,
            "componentType" : 5126,
            "count" : 385,
            "type" : "VEC3"
        },
        {
            "bufferView" : 2,
            "componentType" : 5126,
            "count" : 385,
            "type" : "VEC2"
        },
        {
            "bufferView" : 3,
            "componentType" : 5123,
            "count" : 618,
            "type" : "SCALAR"
        }
    ],
    "bufferViews" : [
        {
            "buffer" : 0,
            "byteLength" : 4620,
            "byteOffset" : 0
        },
        {
            "buffer" : 0,
            "byteLength" : 4620,
            "byteOffset" : 4620
        },
        {
            "buffer" : 0,
            "byteLength" : 3080,
            "byteOffset" : 9240
        },
        {
            "buffer" : 0,
            "byteLength" : 1236,
            "byteOffset" : 12320
        },
        {
            "buffer" : 0,
            "byteLength" : 1657035,
            "byteOffset" : 13556
        },
        {
            "buffer" : 0,
            "byteLength" : 838588,
            "byteOffset" : 1670592
        }
    ],
    "samplers" : [
        {
            "magFilter" : 9729,
            "minFilter" : 9987
        }
    ],
    "buffers" : [
        {
            "byteLength" : 2509180,
            "uri" : "data:application/octet-stream;base64,"
        }
    ]
}
