{
    "asset" : {
        "generator" : "Khronos glTF Blender I/O v1.3.48",
        "version" : "2.0"
    },
    "scene" : 0,
    "scenes" : [
        {
            "name" : "Scene",
            "nodes" : [
                0
            ]
        }
    ],
    "nodes" : [
        {
            "mesh" : 0,
            "name" : "CornelioSaavedra",
            "rotation" : [
                0,
                -0.42166370153427124,
                0,
                0.9067524075508118
            ],
            "scale" : [
                0.4989316463470459,
                0.17890387773513794,
                0.33261674642562866
            ],
            "translation" : [
                2.4240622520446777,
                0.1567751169204712,
                -11.418384552001953
            ]
        }
    ],
    "materials" : [
        {
            "doubleSided" : true,
            "emissiveFactor" : [
                0,
                0,
                0
            ],
            "name" : "Imagen 8",
            "pbrMetallicRoughness" : {
                "baseColorTexture" : {
                    "index" : 0,
                    "texCoord" : 0
                },
                "metallicFactor" : 0,
                "roughnessFactor" : 0.5
            }
        }
    ],
    "meshes" : [
        {
            "name" : "Cubo.006",
            "primitives" : [
                {
                    "attributes" : {
                        "POSITION" : 0,
                        "NORMAL" : 1,
                        "TEXCOORD_0" : 2
                    },
                    "indices" : 3,
                    "material" : 0
                }
            ]
        }
    ],
    "textures" : [
        {
            "source" : 0
        }
    ],
    "images" : [
        {
            "bufferView" : 4,
            "mimeType" : "image/jpeg",
            "name" : "imagen 8"
        }
    ],
    "accessors" : [
        {
            "bufferView" : 0,
            "componentType" : 5126,
            "count" : 1616,
            "max" : [
                1.1984233856201172,
                1.547247290611267,
                1
            ],
            "min" : [
                -1.201408863067627,
                -1.0766478776931763,
                -1
            ],
            "type" : "VEC3"
        },
        {
            "bufferView" : 1,
            "componentType" : 5126,
            "count" : 1616,
            "type" : "VEC3"
        },
        {
            "bufferView" : 2,
            "componentType" : 5126,
            "count" : 1616,
            "type" : "VEC2"
        },
        {
            "bufferView" : 3,
            "componentType" : 5123,
            "count" : 3084,
            "type" : "SCALAR"
        }
    ],
    "bufferViews" : [
        {
            "buffer" : 0,
            "byteLength" : 19392,
            "byteOffset" : 0
        },
        {
            "buffer" : 0,
            "byteLength" : 19392,
            "byteOffset" : 19392
        },
        {
            "buffer" : 0,
            "byteLength" : 12928,
            "byteOffset" : 38784
        },
        {
            "buffer" : 0,
            "byteLength" : 6168,
            "byteOffset" : 51712
        },
        {
            "buffer" : 0,
            "byteLength" : 195170,
            "byteOffset" : 57880
        }
    ],
    "buffers" : [
        {
            "byteLength" : 253052,
            "uri" : "data:application/octet-stream;base64,"
        }
    ]
}
