{
    "asset" : {
        "generator" : "Khronos glTF Blender I/O v1.7.33",
        "version" : "2.0"
    },
    "scene" : 0,
    "scenes" : [
        {
            "name" : "Scene",
            "nodes" : [
                0
            ]
        }
    ],
    "nodes" : [
        {
            "mesh" : 0,
            "name" : "CornelioSaavedra",
            "rotation" : [
                0,
                -0.42166370153427124,
                0,
                0.9067524075508118
            ],
            "scale" : [
                0.6960639357566833,
                0.24959039688110352,
                0.4640366733074188
            ],
            "translation" : [
                0.572041392326355,
                0.1567751169204712,
                -6.503538131713867
            ]
        }
    ],
    "materials" : [
        {
            "doubleSided" : true,
            "name" : "PARED DEFINITIVA.002",
            "normalTexture" : {
                "index" : 0
            },
            "pbrMetallicRoughness" : {
                "baseColorTexture" : {
                    "index" : 1
                },
                "metallicFactor" : 0,
                "roughnessFactor" : 0.5
            }
        }
    ],
    "meshes" : [
        {
            "name" : "Cubo.006",
            "primitives" : [
                {
                    "attributes" : {
                        "POSITION" : 0,
                        "NORMAL" : 1,
                        "TEXCOORD_0" : 2
                    },
                    "indices" : 3,
                    "material" : 0
                }
            ]
        }
    ],
    "textures" : [
        {
            "sampler" : 0,
            "source" : 0
        },
        {
            "sampler" : 0,
            "source" : 1
        }
    ],
    "images" : [
        {
            "bufferView" : 4,
            "mimeType" : "image/png",
            "name" : "SAAVEDRA 2"
        },
        {
            "bufferView" : 5,
            "mimeType" : "image/png",
            "name" : "SAAVEDRA 1"
        }
    ],
    "accessors" : [
        {
            "bufferView" : 0,
            "componentType" : 5126,
            "count" : 1616,
            "max" : [
                1.1984233856201172,
                1.547247290611267,
                1
            ],
            "min" : [
                -1.201408863067627,
                -1.0766478776931763,
                -1
            ],
            "type" : "VEC3"
        },
        {
            "bufferView" : 1,
            "componentType" : 5126,
            "count" : 1616,
            "type" : "VEC3"
        },
        {
            "bufferView" : 2,
            "componentType" : 5126,
            "count" : 1616,
            "type" : "VEC2"
        },
        {
            "bufferView" : 3,
            "componentType" : 5123,
            "count" : 3084,
            "type" : "SCALAR"
        }
    ],
    "bufferViews" : [
        {
            "buffer" : 0,
            "byteLength" : 19392,
            "byteOffset" : 0
        },
        {
            "buffer" : 0,
            "byteLength" : 19392,
            "byteOffset" : 19392
        },
        {
            "buffer" : 0,
            "byteLength" : 12928,
            "byteOffset" : 38784
        },
        {
            "buffer" : 0,
            "byteLength" : 6168,
            "byteOffset" : 51712
        },
        {
            "buffer" : 0,
            "byteLength" : 1906515,
            "byteOffset" : 57880
        },
        {
            "buffer" : 0,
            "byteLength" : 663312,
            "byteOffset" : 1964396
        }
    ],
    "samplers" : [
        {
            "magFilter" : 9729,
            "minFilter" : 9987
        }
    ],
    "buffers" : [
        {
            "byteLength" : 2627708,
            "uri" : "data:application/octet-stream;base64,"
        }
    ]
}
