{
    "asset" : {
        "generator" : "Khronos glTF Blender I/O v1.3.48",
        "version" : "2.0"
    },
    "scene" : 0,
    "scenes" : [
        {
            "name" : "Scene",
            "nodes" : [
                0
            ]
        }
    ],
    "nodes" : [
        {
            "mesh" : 0,
            "name" : "modeloCiudadRelleno.002",
            "rotation" : [
                0.7071068286895752,
                0,
                0,
                0.7071067094802856
            ],
            "scale" : [
                1.4969359636306763,
                1.4969359636306763,
                0.6760641932487488
            ],
            "translation" : [
                -15.031031608581543,
                0,
                15.072212219238281
            ]
        }
    ],
    "materials" : [
        {
            "doubleSided" : true,
            "emissiveFactor" : [
                0,
                0,
                0
            ],
            "name" : "diffuse_White",
            "pbrMetallicRoughness" : {
                "baseColorFactor" : [
                    1,
                    1,
                    1,
                    1
                ],
                "metallicFactor" : 0,
                "roughnessFactor" : 1
            }
        }
    ],
    "meshes" : [
        {
            "name" : "modeloCiudadRelleno.002",
            "primitives" : [
                {
                    "attributes" : {
                        "POSITION" : 0,
                        "NORMAL" : 1,
                        "TEXCOORD_0" : 2
                    },
                    "indices" : 3,
                    "material" : 0
                }
            ]
        }
    ],
    "accessors" : [
        {
            "bufferView" : 0,
            "componentType" : 5126,
            "count" : 26242,
            "max" : [
                16.726987838745117,
                -0.06279002130031586,
                0.002999999327585101
            ],
            "min" : [
                0.1276606023311615,
                -19.871061325073242,
                -0.753000020980835
            ],
            "type" : "VEC3"
        },
        {
            "bufferView" : 1,
            "componentType" : 5126,
            "count" : 26242,
            "type" : "VEC3"
        },
        {
            "bufferView" : 2,
            "componentType" : 5126,
            "count" : 26242,
            "type" : "VEC2"
        },
        {
            "bufferView" : 3,
            "componentType" : 5123,
            "count" : 105000,
            "type" : "SCALAR"
        }
    ],
    "bufferViews" : [
        {
            "buffer" : 0,
            "byteLength" : 314904,
            "byteOffset" : 0
        },
        {
            "buffer" : 0,
            "byteLength" : 314904,
            "byteOffset" : 314904
        },
        {
            "buffer" : 0,
            "byteLength" : 209936,
            "byteOffset" : 629808
        },
        {
            "buffer" : 0,
            "byteLength" : 210000,
            "byteOffset" : 839744
        }
    ],
    "buffers" : [
        {
            "byteLength" : 1049744,
            "uri" : "data:application/octet-stream;base64,"
        }
    ]
}
