{
    "asset" : {
        "generator" : "Khronos glTF Blender I/O v1.7.33",
        "version" : "2.0"
    },
    "scene" : 0,
    "scenes" : [
        {
            "name" : "Scene",
            "nodes" : [
                0
            ]
        }
    ],
    "nodes" : [
        {
            "mesh" : 0,
            "name" : "edificios",
            "rotation" : [
                0,
                0.08557096868753433,
                0,
                0.9963321685791016
            ],
            "translation" : [
                -0.5174759030342102,
                0.000194549560546875,
                11.727081298828125
            ]
        }
    ],
    "materials" : [
        {
            "doubleSided" : true,
            "name" : "Material.005",
            "pbrMetallicRoughness" : {
                "baseColorFactor" : [
                    0.14589115977287292,
                    0.14589115977287292,
                    0.14589115977287292,
                    1
                ],
                "metallicFactor" : 0,
                "roughnessFactor" : 0.5
            }
        }
    ],
    "meshes" : [
        {
            "name" : "Plane.004",
            "primitives" : [
                {
                    "attributes" : {
                        "POSITION" : 0,
                        "NORMAL" : 1,
                        "TEXCOORD_0" : 2
                    },
                    "indices" : 3,
                    "material" : 0
                }
            ]
        }
    ],
    "accessors" : [
        {
            "bufferView" : 0,
            "componentType" : 5126,
            "count" : 9552,
            "max" : [
                18.031375885009766,
                0.07982055097818375,
                3.639647960662842
            ],
            "min" : [
                -11.063461303710938,
                -0.004606330767273903,
                -24.054275512695312
            ],
            "type" : "VEC3"
        },
        {
            "bufferView" : 1,
            "componentType" : 5126,
            "count" : 9552,
            "type" : "VEC3"
        },
        {
            "bufferView" : 2,
            "componentType" : 5126,
            "count" : 9552,
            "type" : "VEC2"
        },
        {
            "bufferView" : 3,
            "componentType" : 5123,
            "count" : 14328,
            "type" : "SCALAR"
        }
    ],
    "bufferViews" : [
        {
            "buffer" : 0,
            "byteLength" : 114624,
            "byteOffset" : 0
        },
        {
            "buffer" : 0,
            "byteLength" : 114624,
            "byteOffset" : 114624
        },
        {
            "buffer" : 0,
            "byteLength" : 76416,
            "byteOffset" : 229248
        },
        {
            "buffer" : 0,
            "byteLength" : 28656,
            "byteOffset" : 305664
        }
    ],
    "buffers" : [
        {
            "byteLength" : 334320,
            "uri" : "data:application/octet-stream;base64,"
        }
    ]
}
