{
    "asset" : {
        "generator" : "Khronos glTF Blender I/O v1.7.33",
        "version" : "2.0"
    },
    "scene" : 0,
    "scenes" : [
        {
            "name" : "Scene",
            "nodes" : [
                0
            ]
        }
    ],
    "nodes" : [
        {
            "mesh" : 0,
            "name" : "MAMBA",
            "rotation" : [
                0,
                0.7696617841720581,
                0,
                0.6384518146514893
            ],
            "scale" : [
                0.7720156908035278,
                0.2677851915359497,
                0.6055497527122498
            ],
            "translation" : [
                -3.0819826126098633,
                0.2510739862918854,
                9.364836692810059
            ]
        }
    ],
    "materials" : [
        {
            "doubleSided" : true,
            "name" : "Imagen 9.001",
            "pbrMetallicRoughness" : {
                "baseColorTexture" : {
                    "index" : 0
                },
                "metallicFactor" : 0,
                "roughnessFactor" : 0.5
            }
        }
    ],
    "meshes" : [
        {
            "name" : "Cubo.024",
            "primitives" : [
                {
                    "attributes" : {
                        "POSITION" : 0,
                        "NORMAL" : 1,
                        "TEXCOORD_0" : 2
                    },
                    "indices" : 3,
                    "material" : 0
                }
            ]
        }
    ],
    "textures" : [
        {
            "sampler" : 0,
            "source" : 0
        }
    ],
    "images" : [
        {
            "bufferView" : 4,
            "mimeType" : "image/jpeg",
            "name" : "imagen 9"
        }
    ],
    "accessors" : [
        {
            "bufferView" : 0,
            "componentType" : 5126,
            "count" : 66,
            "max" : [
                1,
                1.5192615985870361,
                1
            ],
            "min" : [
                -1,
                -1,
                -1
            ],
            "type" : "VEC3"
        },
        {
            "bufferView" : 1,
            "componentType" : 5126,
            "count" : 66,
            "type" : "VEC3"
        },
        {
            "bufferView" : 2,
            "componentType" : 5126,
            "count" : 66,
            "type" : "VEC2"
        },
        {
            "bufferView" : 3,
            "componentType" : 5123,
            "count" : 108,
            "type" : "SCALAR"
        }
    ],
    "bufferViews" : [
        {
            "buffer" : 0,
            "byteLength" : 792,
            "byteOffset" : 0
        },
        {
            "buffer" : 0,
            "byteLength" : 792,
            "byteOffset" : 792
        },
        {
            "buffer" : 0,
            "byteLength" : 528,
            "byteOffset" : 1584
        },
        {
            "buffer" : 0,
            "byteLength" : 216,
            "byteOffset" : 2112
        },
        {
            "buffer" : 0,
            "byteLength" : 195483,
            "byteOffset" : 2328
        }
    ],
    "samplers" : [
        {
            "magFilter" : 9729,
            "minFilter" : 9987
        }
    ],
    "buffers" : [
        {
            "byteLength" : 197812,
            "uri" : "data:application/octet-stream;base64,"
        }
    ]
}
