{
    "asset" : {
        "generator" : "Khronos glTF Blender I/O v1.7.33",
        "version" : "2.0"
    },
    "scene" : 0,
    "scenes" : [
        {
            "name" : "Scene",
            "nodes" : [
                0
            ]
        }
    ],
    "nodes" : [
        {
            "mesh" : 0,
            "name" : "MUNTREF.001",
            "rotation" : [
                0,
                -0.9562926292419434,
                0,
                0.2924116253852844
            ],
            "scale" : [
                1.050864577293396,
                0.262716144323349,
                0.3502882122993469
            ],
            "translation" : [
                4.739534378051758,
                0.18653707206249237,
                11.094147682189941
            ]
        }
    ],
    "materials" : [
        {
            "doubleSided" : true,
            "emissiveFactor" : [
                0.04767951741814613,
                0.043172117322683334,
                0.007377892266958952
            ],
            "name" : "Material.002",
            "normalTexture" : {
                "index" : 0
            },
            "pbrMetallicRoughness" : {
                "baseColorTexture" : {
                    "index" : 1
                },
                "metallicFactor" : 0,
                "roughnessFactor" : 0.02298850566148758
            }
        }
    ],
    "meshes" : [
        {
            "name" : "Cube.004",
            "primitives" : [
                {
                    "attributes" : {
                        "POSITION" : 0,
                        "NORMAL" : 1,
                        "TEXCOORD_0" : 2
                    },
                    "indices" : 3,
                    "material" : 0
                }
            ]
        }
    ],
    "textures" : [
        {
            "sampler" : 0,
            "source" : 0
        },
        {
            "sampler" : 0,
            "source" : 1
        }
    ],
    "images" : [
        {
            "bufferView" : 4,
            "mimeType" : "image/png",
            "name" : "MUNTREF 2"
        },
        {
            "bufferView" : 5,
            "mimeType" : "image/png",
            "name" : "MUNTREF 1"
        }
    ],
    "accessors" : [
        {
            "bufferView" : 0,
            "componentType" : 5126,
            "count" : 2457,
            "max" : [
                0.8675861358642578,
                1.5020619630813599,
                1.2431910037994385
            ],
            "min" : [
                -0.8675861358642578,
                -0.7588566541671753,
                -0.5340073108673096
            ],
            "type" : "VEC3"
        },
        {
            "bufferView" : 1,
            "componentType" : 5126,
            "count" : 2457,
            "type" : "VEC3"
        },
        {
            "bufferView" : 2,
            "componentType" : 5126,
            "count" : 2457,
            "type" : "VEC2"
        },
        {
            "bufferView" : 3,
            "componentType" : 5123,
            "count" : 3726,
            "type" : "SCALAR"
        }
    ],
    "bufferViews" : [
        {
            "buffer" : 0,
            "byteLength" : 29484,
            "byteOffset" : 0
        },
        {
            "buffer" : 0,
            "byteLength" : 29484,
            "byteOffset" : 29484
        },
        {
            "buffer" : 0,
            "byteLength" : 19656,
            "byteOffset" : 58968
        },
        {
            "buffer" : 0,
            "byteLength" : 7452,
            "byteOffset" : 78624
        },
        {
            "buffer" : 0,
            "byteLength" : 20563,
            "byteOffset" : 86076
        },
        {
            "buffer" : 0,
            "byteLength" : 264268,
            "byteOffset" : 106640
        }
    ],
    "samplers" : [
        {
            "magFilter" : 9729,
            "minFilter" : 9987
        }
    ],
    "buffers" : [
        {
            "byteLength" : 370908,
            "uri" : "data:application/octet-stream;base64,"
        }
    ]
}
