{
    "asset" : {
        "generator" : "Khronos glTF Blender I/O v1.7.33",
        "version" : "2.0"
    },
    "scene" : 0,
    "scenes" : [
        {
            "name" : "Scene",
            "nodes" : [
                0
            ]
        }
    ],
    "nodes" : [
        {
            "mesh" : 0,
            "name" : "OSDE VIEJO",
            "rotation" : [
                0,
                -0.6819892525672913,
                0,
                0.7313622236251831
            ],
            "scale" : [
                0.3741472065448761,
                0.11224417388439178,
                0.2993178367614746
            ],
            "translation" : [
                0.6943951845169067,
                0.10461753606796265,
                9.354594230651855
            ]
        }
    ],
    "materials" : [
        {
            "doubleSided" : true,
            "emissiveFactor" : [
                0.05209958180785179,
                0.05088815093040466,
                0.02663557045161724
            ],
            "name" : "Material",
            "normalTexture" : {
                "index" : 0
            },
            "pbrMetallicRoughness" : {
                "baseColorTexture" : {
                    "index" : 1
                },
                "metallicFactor" : 0,
                "roughnessFactor" : 0.7136363983154297
            }
        }
    ],
    "meshes" : [
        {
            "name" : "Cube.005",
            "primitives" : [
                {
                    "attributes" : {
                        "POSITION" : 0,
                        "NORMAL" : 1,
                        "TEXCOORD_0" : 2
                    },
                    "indices" : 3,
                    "material" : 0
                }
            ]
        }
    ],
    "textures" : [
        {
            "sampler" : 0,
            "source" : 0
        },
        {
            "sampler" : 0,
            "source" : 1
        }
    ],
    "images" : [
        {
            "bufferView" : 4,
            "mimeType" : "image/png",
            "name" : "OSDE VIEJO 2"
        },
        {
            "bufferView" : 5,
            "mimeType" : "image/png",
            "name" : "OSDE VIEJO 1"
        }
    ],
    "accessors" : [
        {
            "bufferView" : 0,
            "componentType" : 5126,
            "count" : 594,
            "max" : [
                1.0000001192092896,
                5,
                1
            ],
            "min" : [
                -1.0000001192092896,
                -1.0741316080093384,
                -1
            ],
            "type" : "VEC3"
        },
        {
            "bufferView" : 1,
            "componentType" : 5126,
            "count" : 594,
            "type" : "VEC3"
        },
        {
            "bufferView" : 2,
            "componentType" : 5126,
            "count" : 594,
            "type" : "VEC2"
        },
        {
            "bufferView" : 3,
            "componentType" : 5123,
            "count" : 1182,
            "type" : "SCALAR"
        }
    ],
    "bufferViews" : [
        {
            "buffer" : 0,
            "byteLength" : 7128,
            "byteOffset" : 0
        },
        {
            "buffer" : 0,
            "byteLength" : 7128,
            "byteOffset" : 7128
        },
        {
            "buffer" : 0,
            "byteLength" : 4752,
            "byteOffset" : 14256
        },
        {
            "buffer" : 0,
            "byteLength" : 2364,
            "byteOffset" : 19008
        },
        {
            "buffer" : 0,
            "byteLength" : 1100336,
            "byteOffset" : 21372
        },
        {
            "buffer" : 0,
            "byteLength" : 846448,
            "byteOffset" : 1121708
        }
    ],
    "samplers" : [
        {
            "magFilter" : 9729,
            "minFilter" : 9987
        }
    ],
    "buffers" : [
        {
            "byteLength" : 1968156,
            "uri" : "data:application/octet-stream;base64,"
        }
    ]
}
