<svg width="319" height="108" viewBox="0 0 319 108" fill="none" xmlns="http://www.w3.org/2000/svg">
<path d="M215.7 33.9H241.5V36.5H230.2V66.3H227.1V36.6H215.8V33.9H215.7Z" fill="white"/>
<path d="M246.9 33.9H250V66.4H246.9V33.9Z" fill="white"/>
<path d="M282.7 43.8C282.4 42.6 282 41.4 281.4 40.5C280.8 39.5 280 38.7 279.1 38C278.2 37.3 277.2 36.8 276.1 36.5C275 36.2 273.9 36 272.7 36C270.5 36 268.7 36.4 267.2 37.2C265.7 38 264.4 39.1 263.4 40.5C262.4 41.9 261.7 43.4 261.2 45.1C260.7 46.8 260.5 48.6 260.5 50.3C260.5 52.1 260.7 53.8 261.2 55.5C261.7 57.2 262.4 58.7 263.4 60.1C264.4 61.4 265.7 62.5 267.2 63.4C268.7 64.2 270.6 64.6 272.7 64.6C274.2 64.6 275.5 64.3 276.8 63.8C278 63.3 279.1 62.5 280 61.6C280.9 60.7 281.6 59.6 282.1 58.3C282.6 57 283 55.7 283.1 54.2H286.2C286 56.2 285.5 58 284.8 59.6C284.1 61.2 283.1 62.6 282 63.7C280.8 64.8 279.5 65.7 277.9 66.3C276.3 66.9 274.6 67.2 272.7 67.2C270.2 67.2 267.9 66.7 266 65.8C264.1 64.9 262.5 63.6 261.2 62.1C259.9 60.5 259 58.7 258.3 56.7C257.7 54.7 257.3 52.5 257.3 50.3C257.3 48.1 257.6 46 258.3 43.9C258.9 41.9 259.9 40 261.2 38.5C262.5 36.9 264.1 35.7 266 34.8C267.9 33.9 270.2 33.4 272.7 33.4C274.2 33.4 275.8 33.6 277.2 34.1C278.7 34.6 280 35.2 281.2 36.1C282.4 37 283.4 38.1 284.2 39.4C285 40.7 285.5 42.2 285.7 43.9H282.7V43.8Z" fill="white"/>
<path d="M128.1 76.9C128.2 75.9 127.6 75.1 126.5 75.1C124.9 75.1 124.7 76.1 124.7 76.9C124.7 77.6 125 78 125.6 78.2C126.1 78.4 126.6 78.6 127.2 78.8C129.1 79.5 129.4 80.1 129.4 81.4C129.4 83.3 128.2 84.3 126.4 84.3C125.4 84.3 124.3 84 123.7 82.7C123.5 82.2 123.5 81.4 123.5 80.9H124.6C124.5 82.3 124.8 83.3 126.5 83.3C127.6 83.3 128.4 82.7 128.4 81.6C128.4 80.1 127.8 80.1 126.8 79.7C126.3 79.5 125.4 79.2 124.9 78.9C124 78.4 123.7 77.6 123.7 76.7C123.7 75.1 124.8 74 126.4 74C128.2 74 129.3 74.9 129.2 76.8H128.1V76.9Z" fill="white"/>
<path d="M135.6 81.7C135.7 83.1 134.9 84.3 133.4 84.3C132 84.3 131 83.4 131 80.5C131 79 131.4 76.7 133.3 76.7C135.7 76.7 135.5 78.9 135.6 80.6H132.1C132.1 81.6 132 83.5 133.4 83.5C134.4 83.5 134.7 82.6 134.6 81.8H135.6V81.7ZM134.5 79.8C134.5 79 134.5 77.6 133.3 77.6C132.1 77.6 132.1 78.9 132 79.8H134.5Z" fill="white"/>
<path d="M138.1 80.8C138.1 81.8 138.2 83.4 139.5 83.4C140.6 83.4 140.7 82.4 140.8 81.5H141.8C141.8 82.9 141.2 84.2 139.6 84.2C137.4 84.2 137.1 82.3 137.1 80.5C137.1 78.7 137.4 76.6 139.6 76.6C141.1 76.6 141.8 77.7 141.8 79.1H140.8C140.8 78.3 140.6 77.5 139.6 77.5C138.1 77.6 138.1 79.8 138.1 80.8Z" fill="white"/>
<path d="M144.5 78.1001C145 77.1001 145.6 76.7001 146.7 76.8001V77.8001C145.4 77.6001 144.6 78.4001 144.6 79.7001V84.1001H143.6V76.8001H144.6V78.1001H144.5Z" fill="white"/>
<path d="M152.2 81.7C152.3 83.1 151.5 84.3 150 84.3C148.6 84.3 147.6 83.4 147.6 80.5C147.6 79 148 76.7 149.9 76.7C152.3 76.7 152.1 78.9 152.2 80.6H148.7C148.7 81.6 148.6 83.5 150 83.5C151 83.5 151.3 82.6 151.2 81.8H152.2V81.7ZM151.2 79.8C151.2 79 151.2 77.6 150 77.6C148.8 77.6 148.8 78.9 148.7 79.8H151.2Z" fill="white"/>
<path d="M155.4 76.9H156.6V77.8H155.4V82.8C155.4 83 155.3 83.4 155.9 83.4H156.6V84.3H155.5C154.9 84.3 154.4 84.2 154.4 83.1V77.9H153.4V77H154.4V75H155.4V76.9Z" fill="white"/>
<path d="M162.7 84.2C162.6 84.2 162.5 84.2 162.5 84.3C161.6 84.3 161.3 84.3 161.2 83.3C161 83.9 160.3 84.5 159.6 84.5C158.2 84.5 157.7 83.7 157.7 82.4C157.7 82.1 157.7 81.1 158.7 80.6C159.3 80.3 160.7 79.8 160.9 79.7C161.1 79.5 161.1 79.2 161.1 78.9C161.1 78.1 160.8 77.8 160 77.8C159.1 77.8 158.9 78.2 158.9 79.1H158C157.9 77.6 158.7 76.9 160.2 76.9C162.4 76.9 162.2 78.7 162.2 78.9V83.1C162.2 83.3 162.2 83.5 162.4 83.6C162.5 83.6 162.7 83.6 162.8 83.6V84.2H162.7ZM161.1 80.2C160.6 80.5 160 80.7 159.5 81C159 81.2 158.9 81.8 158.9 82.3C158.9 83 159.1 83.5 159.9 83.5C160.3 83.5 161.2 83.2 161.2 82V80.2H161.1Z" fill="white"/>
<path d="M165.3 78.1001C165.8 77.1001 166.4 76.7001 167.5 76.8001V77.8001C166.2 77.6001 165.4 78.4001 165.4 79.7001V84.1001H164.4V76.8001H165.4V78.1001H165.3Z" fill="white"/>
<path d="M169.7 74.2H171.1L169.4 76H168.5L169.7 74.2ZM168.9 84.2V76.9H169.9V84.2H168.9Z" fill="white"/>
<path d="M176.5 84.2C176.4 84.2 176.3 84.2 176.3 84.3C175.4 84.3 175.1 84.3 175 83.3C174.8 83.9 174.1 84.5 173.4 84.5C172 84.5 171.5 83.7 171.5 82.4C171.5 82.1 171.5 81.1 172.5 80.6C173.1 80.3 174.5 79.8 174.7 79.7C174.9 79.5 174.9 79.2 174.9 78.9C174.9 78.1 174.6 77.8 173.8 77.8C172.9 77.8 172.7 78.2 172.7 79.1H171.8C171.7 77.6 172.5 76.9 174 76.9C176.2 76.9 176 78.7 176 78.9V83.1C176 83.3 176 83.5 176.2 83.6C176.3 83.6 176.5 83.6 176.6 83.6V84.2H176.5ZM174.8 80.2C174.3 80.5 173.7 80.7 173.2 81C172.7 81.2 172.6 81.8 172.6 82.3C172.6 83 172.8 83.5 173.6 83.5C174 83.5 174.9 83.2 174.9 82V80.2H174.8Z" fill="white"/>
<path d="M185 74.4H186V84.2H185V83.2C184.6 84.1 184.1 84.3 183.2 84.3C180.9 84.3 181.1 81.1 181.1 80.5C181 78.4 181.7 76.7 183.3 76.7C184 76.7 184.5 77 185 77.6V74.4ZM185 80.4C185 79.4 185 77.6 183.6 77.6C182.7 77.6 182.2 78.3 182.2 80.5C182.2 82.1 182.3 83.5 183.7 83.5C184.8 83.5 185.1 82.2 185.1 81.3V80.4H185Z" fill="white"/>
<path d="M192.3 81.7C192.4 83.1 191.6 84.3 190.1 84.3C188.7 84.3 187.7 83.4 187.7 80.5C187.7 79 188.1 76.7 190 76.7C192.4 76.7 192.2 78.9 192.3 80.6H188.8C188.8 81.6 188.7 83.5 190.1 83.5C191.1 83.5 191.4 82.6 191.3 81.8H192.3V81.7ZM191.3 79.8C191.3 79 191.3 77.6 190.1 77.6C188.9 77.6 188.9 78.9 188.8 79.8H191.3Z" fill="white"/>
<path d="M199.7 74.4H201.1L203.9 84.2H202.7L201.9 81.4H198.8L198.1 84.2H196.9L199.7 74.4ZM200.4 75.2L199.1 80.4H201.7L200.4 75.2Z" fill="white"/>
<path d="M208.3 78.8C208.3 77.9 208 77.5 207.2 77.5C206.5 77.5 206.1 77.8 206.1 78.6C206.1 79.5 206.9 79.7 207.6 80C208.6 80.5 209.7 80.7 209.7 82.1C209.7 83.5 208.7 84.3 207.2 84.3C206.6 84.3 205.8 84.1 205.4 83.5C205 82.9 205 82.4 205 81.9H206C206 82.8 206.3 83.3 207.2 83.3C208 83.3 208.6 83 208.6 82.1C208.6 81.1 207.6 81 206.8 80.7C205.7 80.3 205 79.9 205 78.6C205 77.3 205.9 76.5 207.1 76.5C208.5 76.5 209.4 77.2 209.3 78.6H208.3V78.8Z" fill="white"/>
<path d="M214.4 83.2C214 83.9 213.4 84.3 212.6 84.3C211.5 84.3 210.8 83.7 210.8 82.4V76.8H211.8V82.4C211.8 83 212 83.3 212.7 83.3C213.2 83.3 213.7 83.1 213.9 82.7C214.1 82.3 214.2 81.8 214.2 81.4V76.7H215.2V84H214.2V83.2H214.4Z" fill="white"/>
<path d="M218.1 77.7C218.6 77.1 219.2 76.7 219.9 76.7C221 76.7 221.7 77.3 221.7 78.6V84.2H220.7V78.9C220.7 78.1 220.5 77.6 219.6 77.6C219.2 77.6 218.9 77.7 218.6 78C218.2 78.4 218.1 78.8 218.1 79.3V84.2H217.1V76.9H218.1V77.7Z" fill="white"/>
<path d="M224.8 76.9H226V77.8H224.8V82.8C224.8 83 224.7 83.4 225.3 83.4H226V84.3H224.9C224.3 84.3 223.8 84.2 223.8 83.1V77.9H222.8V77H223.8V75H224.8V76.9Z" fill="white"/>
<path d="M229.3 84.4C227.7 84.4 226.7 83.5 226.7 80.3C226.7 78.1 227.5 76.7 229.3 76.7C231.1 76.7 231.9 78.1 231.9 80.3C231.9 83.4 230.9 84.4 229.3 84.4ZM229.3 77.6C228.2 77.6 227.8 78.4 227.8 80.6C227.8 82.3 228.1 83.5 229.3 83.5C230.5 83.5 230.8 82.3 230.8 80.6C230.8 78.4 230.4 77.6 229.3 77.6Z" fill="white"/>
<path d="M236.4 78.8C236.4 77.9 236.1 77.5 235.3 77.5C234.6 77.5 234.2 77.8 234.2 78.6C234.2 79.5 235 79.7 235.7 80C236.7 80.5 237.8 80.7 237.8 82.1C237.8 83.5 236.8 84.3 235.3 84.3C234.7 84.3 233.9 84.1 233.5 83.5C233 83 233 82.5 233 82H234C234 82.9 234.3 83.4 235.2 83.4C236 83.4 236.6 83.1 236.6 82.2C236.6 81.2 235.6 81.1 234.8 80.8C233.7 80.4 233 80 233 78.7C233 77.4 233.9 76.6 235.1 76.6C236.5 76.6 237.4 77.3 237.3 78.7H236.4V78.8Z" fill="white"/>
<path d="M244.1 74.4H245.5L248.3 84.2H247.1L246.3 81.4H243.2L242.5 84.2H241.3L244.1 74.4ZM244.8 75.2L243.5 80.4H246.1L244.8 75.2Z" fill="white"/>
<path d="M250 80.8C250 81.8 250.1 83.4 251.4 83.4C252.5 83.4 252.6 82.4 252.7 81.5H253.7C253.7 82.9 253.1 84.2 251.5 84.2C249.3 84.2 249 82.3 249 80.5C249 78.7 249.3 76.6 251.5 76.6C253 76.6 253.7 77.7 253.7 79.1H252.7C252.7 78.3 252.5 77.5 251.5 77.5C249.9 77.6 250 79.8 250 80.8Z" fill="white"/>
<path d="M259.6 84.2C259.5 84.2 259.4 84.2 259.4 84.3C258.5 84.3 258.2 84.3 258.1 83.3C257.9 83.9 257.2 84.5 256.5 84.5C255.1 84.5 254.6 83.7 254.6 82.4C254.6 82.1 254.6 81.1 255.6 80.6C256.2 80.3 257.7 79.8 257.8 79.7C258 79.5 258 79.2 258 78.9C258 78.1 257.7 77.8 256.9 77.8C256 77.8 255.8 78.2 255.8 79.1H254.9C254.8 77.6 255.6 76.9 257.1 76.9C259.3 76.9 259.1 78.7 259.1 78.9V83.1C259.1 83.3 259.1 83.5 259.3 83.6C259.4 83.6 259.6 83.6 259.7 83.6V84.2H259.6ZM257.9 80.2C257.4 80.5 256.8 80.7 256.3 81C255.8 81.2 255.7 81.8 255.7 82.3C255.7 83 255.9 83.5 256.7 83.5C257.1 83.5 258 83.2 258 82V80.2H257.9Z" fill="white"/>
<path d="M264.3 74.4H265.3V84.2H264.3V83.2C263.9 84.1 263.4 84.3 262.5 84.3C260.2 84.3 260.4 81.1 260.4 80.5C260.3 78.4 261 76.7 262.6 76.7C263.3 76.7 263.8 77 264.3 77.6V74.4ZM264.3 80.4C264.3 79.4 264.3 77.6 262.9 77.6C262 77.6 261.5 78.3 261.5 80.5C261.5 82.1 261.6 83.5 263 83.5C264.1 83.5 264.4 82.2 264.4 81.3V80.4H264.3Z" fill="white"/>
<path d="M271.299 81.7V81.9C271.299 83.2 270.599 84.3 269.099 84.3C267.699 84.3 266.699 83.4 266.699 80.5C266.699 79 267.099 76.7 268.999 76.7C271.399 76.7 271.199 78.9 271.299 80.6H267.799C267.799 81.6 267.699 83.5 269.099 83.5C269.999 83.5 270.299 82.7 270.299 82C270.299 81.9 270.299 81.9 270.299 81.8H271.299V81.7ZM270.299 79.8C270.299 79 270.299 77.6 269.099 77.6C267.899 77.6 267.899 78.9 267.799 79.8H270.299ZM269.399 74.2H270.799L269.099 76H268.199L269.399 74.2Z" fill="white"/>
<path d="M274.1 84.2H273.1V76.9H274.1V77.8C274.4 77.2 275.1 76.7 275.8 76.7C276.6 76.7 277.2 77.2 277.5 77.8C278 77.1 278.5 76.7 279.4 76.7C279.9 76.7 280.4 76.9 280.7 77.2C281.2 77.6 281.1 78.4 281.1 78.9V84.2H280.1V78.9C280.1 78.1 279.9 77.6 279 77.6C278.6 77.6 278.3 77.8 278 78C277.6 78.4 277.5 78.8 277.5 79.3V84.2H276.5V78.9C276.5 78.1 276.3 77.6 275.4 77.6C275 77.6 274.7 77.7 274.4 78C274 78.4 274 78.8 274 79.3V84.2H274.1Z" fill="white"/>
<path d="M283.301 75.7V74.4H284.301V75.7H283.301ZM283.301 84.2V76.9H284.301V84.2H283.301Z" fill="white"/>
<path d="M287.301 80.8C287.301 81.8 287.401 83.4 288.701 83.4C289.801 83.4 289.901 82.4 290.001 81.5H291.001C291.001 82.9 290.401 84.2 288.801 84.2C286.601 84.2 286.301 82.3 286.301 80.5C286.301 78.7 286.601 76.6 288.801 76.6C290.301 76.6 291.001 77.7 291.001 79.1H290.001C290.001 78.3 289.801 77.5 288.801 77.5C287.201 77.6 287.301 79.8 287.301 80.8Z" fill="white"/>
<path d="M295 84.4C293.4 84.4 292.4 83.5 292.4 80.3C292.4 78.1 293.2 76.7 295 76.7C296.8 76.7 297.6 78.1 297.6 80.3C297.6 83.4 296.6 84.4 295 84.4ZM295 77.6C293.9 77.6 293.5 78.4 293.5 80.6C293.5 82.3 293.8 83.5 295 83.5C296.2 83.5 296.5 82.3 296.5 80.6C296.6 78.4 296.1 77.6 295 77.6Z" fill="white"/>
<path d="M302.601 78.8C302.601 77.9 302.301 77.5 301.501 77.5C300.801 77.5 300.401 77.8 300.401 78.6C300.401 79.5 301.201 79.7 301.901 80C302.901 80.5 304.001 80.7 304.001 82.1C304.001 83.5 303.001 84.3 301.501 84.3C300.901 84.3 300.101 84.1 299.701 83.5C299.301 82.9 299.301 82.4 299.301 81.9H300.301C300.301 82.8 300.601 83.3 301.501 83.3C302.301 83.3 302.901 83 302.901 82.1C302.901 81.1 301.901 81 301.101 80.7C300.001 80.3 299.301 79.9 299.301 78.6C299.301 77.3 300.201 76.5 301.401 76.5C302.801 76.5 303.701 77.2 303.601 78.6H302.601V78.8Z" fill="white"/>
<path d="M123.6 33.9H129.3V52.8C129.3 53.9 129.4 55 129.5 56.1C129.6 57.2 129.9 58.2 130.4 59.1C130.9 60 131.7 60.7 132.7 61.3C133.7 61.9 135.1 62.2 137 62.2C138.9 62.2 140.3 61.9 141.3 61.3C142.3 60.7 143.1 60 143.6 59.1C144.1 58.2 144.4 57.2 144.5 56.1C144.6 55 144.7 53.9 144.7 52.8V33.9H150.4V54.7C150.4 56.8 150.1 58.6 149.4 60.2C148.8 61.7 147.9 63 146.7 64.1C145.5 65.1 144.1 65.9 142.5 66.4C140.9 66.9 139 67.2 137 67.2C135 67.2 133.2 66.9 131.5 66.4C129.9 65.9 128.5 65.1 127.3 64.1C126.1 63.1 125.2 61.8 124.6 60.2C124 58.7 123.6 56.8 123.6 54.7V33.9Z" fill="white"/>
<path d="M157.8 33.9H173.6C176.5 33.9 178.8 34.6 180.6 35.9C182.4 37.2 183.2 39.3 183.2 42C183.2 43.6 182.8 45 182 46.2C181.2 47.4 180.1 48.3 178.6 48.9V49C180.6 49.4 182.1 50.4 183.2 51.8C184.2 53.3 184.7 55.1 184.7 57.3C184.7 58.6 184.5 59.8 184 60.9C183.5 62 182.8 63 181.9 63.8C180.9 64.6 179.7 65.2 178.2 65.7C176.7 66.2 174.9 66.4 172.8 66.4H157.9V33.9H157.8ZM163.5 47.5H172.8C174.2 47.5 175.3 47.1 176.2 46.3C177.1 45.5 177.6 44.4 177.6 43C177.6 41.4 177.2 40.2 176.4 39.5C175.6 38.8 174.4 38.5 172.9 38.5H163.6V47.5H163.5ZM163.5 61.8H173.6C175.3 61.8 176.7 61.4 177.6 60.5C178.5 59.6 179 58.3 179 56.7C179 55.1 178.5 53.9 177.6 53C176.6 52.1 175.3 51.7 173.6 51.7H163.5V61.8Z" fill="white"/>
<path d="M199.5 33.9H205.6L218.1 66.4H212L209 57.8H196L193 66.4H187.1L199.5 33.9ZM197.5 53.5H207.4L202.5 39.5H202.4L197.5 53.5Z" fill="white"/>
<path d="M59.2953 70.7771C59.2953 71.4754 58.5026 72.1736 57.71 72.8719C57.71 72.8719 58.5026 72.872 59.2953 72.1737C59.2953 72.1737 59.2953 73.5705 57.71 74.967C58.5026 72.8722 59.2953 71.4754 59.2953 70.7771Z" fill="white"/>
<path d="M70.3926 72.1736C71.1853 72.1736 70.3926 72.8719 70.3926 72.1736C70.3926 72.1736 71.1853 72.1736 70.3926 72.1736C71.1853 72.1736 71.1852 72.1734 71.9779 72.8717C71.9779 72.1734 71.1853 72.1736 70.3926 72.1736Z" fill="white"/>
<path d="M81.4899 40.053C79.9045 41.4495 77.5265 41.4494 75.1484 40.7511C77.5265 41.4494 80.6972 42.1478 81.4899 40.053Z" fill="white"/>
<path d="M75.1484 40.7511H75.9411C76.7338 40.7511 77.5265 40.7511 77.5265 40.7511H76.7338C77.5265 40.7511 79.1118 40.0528 79.9045 39.3545C79.9045 40.0528 76.7338 40.7511 75.1484 40.7511Z" fill="white"/>
<path d="M60.088 39.3544C59.2953 38.6561 57.71 37.9578 57.71 37.9578C58.5026 38.656 60.088 39.3544 60.088 39.3544Z" fill="white"/>
<path d="M71.1853 42.8458C71.1853 43.5441 71.1853 42.8458 71.1853 42.8458C71.978 42.1475 71.1853 42.1477 71.1853 42.1477C70.3927 42.1477 70.3927 42.1475 71.1853 42.8458C70.3927 42.8458 70.3927 43.5441 71.1853 42.8458Z" fill="white"/>
<path d="M68.0146 32.3716C68.0146 33.0699 68.8073 32.3716 68.0146 32.3716C68.8073 32.3716 68.0146 32.3716 68.0146 32.3716Z" fill="white"/>
<path d="M64.8435 33.7683C64.0509 33.7683 64.0509 33.7683 64.8435 33.7683C64.8435 34.4666 64.8435 34.4664 64.8435 34.4664C64.8435 34.4664 64.8435 34.4666 64.8435 33.7683Z" fill="white"/>
<path d="M22.0393 54.0186C22.0393 54.0186 19.6612 53.3201 18.8686 53.3201C18.0759 53.3201 17.2832 53.3201 17.2832 53.3201C17.2832 53.3201 17.2832 53.3203 17.2832 54.0186V54.7167C17.2832 54.7167 17.2832 54.7167 18.0759 54.7167C18.8685 54.7167 21.2466 54.7167 22.0393 54.7167C22.8319 54.7167 22.8319 56.1134 22.0393 56.1134C22.0393 56.1134 22.0393 56.1134 21.2466 56.1134C20.4539 56.1134 18.8685 56.1134 18.0759 56.1134V56.8115V58.2081C18.0759 58.2081 18.0759 58.2081 18.8686 58.2081H21.2466C22.0393 58.2081 22.8319 58.2083 23.6246 57.51C24.4173 57.51 23.6246 56.8116 23.6246 56.1134C22.0393 54.7168 22.8319 54.0186 22.0393 54.0186ZM21.2466 56.8115C21.2466 56.8115 22.0393 56.8115 21.2466 56.8115C22.0393 56.8115 21.2466 56.8115 21.2466 56.8115Z" fill="white"/>
<path d="M22.0396 47.734H20.4542C19.6615 47.734 18.8689 47.7342 18.0762 47.0359C18.0762 47.0359 18.0762 47.0357 18.0762 47.734V48.4321H20.4542C20.4542 48.4321 18.8689 49.1305 18.8689 49.8287C18.8689 49.8287 18.0762 49.829 18.0762 50.5273C18.0762 50.5273 18.0762 51.2252 18.0762 51.9235H18.8689C18.8689 51.9235 18.8689 51.9235 19.6615 51.9235C20.4542 51.9235 23.6249 51.9235 23.6249 51.9235C23.6249 51.9235 23.6249 51.9237 23.6249 51.2254C23.6249 50.5271 23.6249 50.527 23.6249 49.8287C23.6249 49.8287 23.6249 49.8287 22.8323 49.8287C22.8323 49.8287 20.4542 49.8289 20.4542 49.1306C19.6615 49.8289 22.0396 48.4323 22.0396 47.734C22.8322 47.734 22.0396 47.734 22.0396 47.734Z" fill="white"/>
<path d="M78.3191 23.9922L77.5264 24.6907C77.5264 24.6907 77.5264 24.6906 77.5264 25.3889C77.5264 25.3889 78.3191 25.3891 78.3191 26.0874C79.1117 26.7857 79.1117 26.0874 79.1117 26.0874C79.1117 25.3891 79.1117 24.6905 78.3191 23.9922C79.9044 23.9922 79.9044 23.2943 80.6971 22.596V23.2941C80.6971 23.9924 80.6971 26.7853 79.9044 27.4836C79.9044 27.4836 79.9044 28.1821 80.6971 28.1821V27.4836C81.4898 26.7853 82.2824 26.0871 83.0751 25.3889C83.0751 25.3889 83.0751 24.6907 83.8678 24.6907L83.0751 23.9922C83.0751 23.9922 83.0751 23.9925 83.0751 24.6907V25.3889C83.0751 26.0871 82.2825 26.0872 82.2825 26.7855C82.2825 26.7855 82.2825 24.6905 82.2825 23.9922C82.2825 23.9922 82.2825 23.2943 82.2825 22.596C82.2825 22.596 81.4898 21.8975 80.6971 21.8975V22.596V23.2941C79.9044 21.8975 79.1117 23.9922 78.3191 23.9922Z" fill="white"/>
<path d="M22.8323 46.3373V45.6392C22.8323 45.6392 22.8323 45.6389 22.8323 44.9407H22.0396C21.2469 44.9407 18.8689 44.2425 18.8689 44.2425L18.0762 43.5444C18.0762 43.5444 18.0762 43.5443 18.0762 44.2425C18.0762 44.9408 18.0762 44.9409 18.0762 45.6392C18.0762 45.6392 21.2469 46.3373 22.0396 46.3373C22.0396 46.3373 22.0396 46.3373 22.8323 46.3373C22.8323 47.0356 22.8323 46.3373 22.8323 46.3373Z" fill="white"/>
<path d="M91.7946 41.4492C91.0019 41.4492 91.0019 41.4492 91.7946 41.4492C91.0019 41.4492 91.002 41.4495 91.002 42.1478V42.8459C91.002 42.8459 91.0019 43.5444 91.7946 43.5444C91.7946 43.5444 91.7946 42.8459 92.5873 42.8459L95.758 41.4492C95.758 41.4492 95.758 41.4494 95.758 40.7511V40.053V39.3545C95.758 39.3545 94.9653 39.3547 94.9653 40.053C94.1727 40.053 91.7946 41.4492 91.7946 41.4492Z" fill="white"/>
<path d="M29.9658 23.2941C30.7585 23.2941 30.7585 23.2941 29.9658 23.2941C31.5512 24.6907 32.3439 25.3891 33.1365 26.0874V26.7855C33.1365 27.4838 33.9292 26.7855 33.9292 26.7855C34.7219 26.0872 34.7219 26.0874 35.5146 26.0874C35.5146 26.0874 35.5146 26.0871 35.5146 25.3889H34.7219C33.9292 24.6906 32.3438 22.596 32.3438 22.596V21.8975C31.5512 21.8975 30.7585 21.8975 29.9658 23.2941Z" fill="white"/>
<path d="M82.2822 28.1821C82.2822 28.8804 82.2822 29.5786 83.0749 30.2768C83.8676 30.9751 85.4529 30.277 86.2456 29.5787C87.0383 28.8804 87.0383 28.1818 87.0383 27.4835C87.0383 26.7853 86.2456 26.0871 86.2456 25.3888C85.4529 24.6905 83.8676 25.389 83.0749 26.0873C83.0749 26.7856 82.2822 27.4838 82.2822 28.1821ZM84.6603 26.7854C84.6603 26.7854 87.0383 24.6908 87.0383 26.0873C87.0383 26.7856 87.0383 26.7853 86.2456 27.4835C86.2456 28.1818 85.4529 28.1819 84.6603 28.8802C84.6603 28.8802 84.6602 28.8804 83.8676 29.5787C83.8676 29.5787 83.8676 29.5787 83.0749 29.5787C83.0749 29.5787 82.2822 29.5785 82.2822 28.8802V28.1821C83.8676 27.4838 84.6603 27.4837 84.6603 26.7854Z" fill="white"/>
<path d="M22.832 32.3716C23.6247 32.3716 23.6247 33.0702 24.4174 33.0702C25.21 33.7684 26.0027 33.7681 26.7954 34.4664C26.7954 34.4664 26.7954 34.4666 26.7954 35.1649C26.7954 35.1649 26.7954 35.8632 26.7954 35.1649L27.5881 33.7683C27.5881 33.07 27.5881 33.7684 26.7954 33.0702C26.7954 33.0702 26.0027 33.0699 26.0027 32.3716L25.2101 31.6735C25.2101 31.6735 26.0027 31.6735 26.7954 31.6735C27.5881 31.6735 28.3808 31.6735 28.3808 31.6735C28.3808 31.6735 29.1735 31.6733 29.1735 30.975H28.3808C28.3808 30.975 26.7954 30.975 26.0027 30.975V30.2769C25.21 29.5786 24.4174 29.5786 24.4174 30.2769C24.4174 30.2769 23.6247 30.2768 22.832 32.3716C22.832 31.6734 22.832 31.6734 22.832 32.3716ZM24.4174 30.975C24.4174 30.2767 24.4174 30.2767 24.4174 30.975C25.21 30.2767 26.0027 30.975 26.0027 30.975C26.0027 30.975 26.0027 31.6734 26.0027 32.3716C26.0027 32.3716 25.2101 32.3718 25.2101 31.6735C24.4174 31.6735 24.4174 30.975 24.4174 30.975C24.4174 30.975 23.6247 30.975 24.4174 30.975Z" fill="white"/>
<path d="M92.5877 48.4321L94.9657 47.0359H95.7584C96.551 47.0359 96.5511 47.0359 97.3437 47.0359C98.1364 47.0359 98.1364 46.3375 98.1364 45.6392C98.1364 44.941 98.1364 44.2426 98.1364 44.2426C98.1364 43.5443 98.1364 43.5442 98.1364 42.8459C98.1364 42.8459 95.7584 43.5445 94.9657 43.5445H94.173H93.3803C93.3803 44.2428 93.3803 44.9407 93.3803 44.9407C93.3803 44.9407 93.3804 44.9407 94.173 44.9407C94.173 44.9407 94.173 44.9407 94.9657 44.9407C94.9657 44.9407 95.7584 44.2424 96.5511 44.9407C97.3437 44.9407 96.551 45.6392 95.7584 45.6392C92.5877 46.3375 92.5877 47.0355 92.5877 48.4321C91.795 47.7338 91.795 48.4321 92.5877 48.4321ZM95.7584 44.2426C96.551 44.2426 96.551 44.2426 95.7584 44.2426C96.551 44.9409 96.551 44.941 95.7584 45.6392H94.9657L94.173 44.9407C94.9657 44.2424 95.7584 44.2426 95.7584 44.2426Z" fill="white"/>
<path d="M28.3807 28.1822C28.3807 28.1822 29.1734 27.4837 29.9661 27.4837C30.7588 27.4837 31.5515 26.7854 31.5515 27.4837C31.5515 28.1819 31.5515 28.182 30.7588 28.8803C29.9661 29.5786 29.9661 29.5788 29.1734 29.5788C29.1734 29.5788 29.9661 29.5787 29.9661 30.277H30.7588L31.5515 29.5788L32.3441 28.8803C32.3441 28.182 32.3441 28.1819 32.3441 27.4837C32.3441 26.7854 31.5515 26.0875 30.7588 26.0875C29.9661 26.0875 28.3807 26.7856 28.3807 26.7856H27.5881V26.0875H28.3807H29.1734L28.3807 25.3889H27.5881C27.5881 25.3889 27.5881 26.0875 26.7954 26.0875L26.0027 26.7856C25.21 27.4838 25.21 28.182 26.0027 28.8803C27.5881 28.8803 28.3807 28.8805 28.3807 28.1822Z" fill="white"/>
<path d="M87.8309 32.3714C87.8309 33.0697 87.8309 33.7681 87.8309 33.7681C87.0382 34.4664 86.2456 32.3716 86.2456 31.6733C86.2456 30.9751 86.2456 30.975 86.2456 30.2767L85.4529 30.9748C85.4529 30.9748 84.6602 31.6733 85.4529 31.6733C86.2456 31.6733 86.2456 32.3717 86.2456 33.07C86.2456 33.7683 87.0382 34.4662 87.8309 34.4662C88.6236 34.4662 88.6236 34.4664 89.4163 33.7681C90.209 33.0698 90.209 32.3716 90.209 31.6733C90.209 30.9751 89.4163 30.2767 89.4163 30.2767C90.209 30.2767 90.209 30.9751 90.209 31.6733V32.3714C90.209 32.3714 91.0016 31.6733 91.7943 31.6733V30.9748C91.7943 30.9748 91.7943 30.975 91.7943 30.2767C91.7943 29.5784 90.209 28.8803 89.4163 29.5786L88.6236 30.2767C87.8309 30.975 87.8309 31.6732 87.8309 32.3714Z" fill="white"/>
<path d="M96.5511 53.3201H95.7585C94.9658 54.0183 94.9658 54.7165 94.9658 55.4148C94.9658 56.1131 94.1731 56.8115 94.1731 56.8115C92.5878 56.1132 93.3804 54.7169 94.1731 54.0186C94.9658 54.0186 94.9658 53.3201 94.9658 53.3201H93.3804C93.3804 53.3201 93.3804 54.0184 93.3804 54.7167C93.3804 55.415 93.3804 56.8115 94.1731 56.8115C94.9658 56.8115 94.9658 56.8115 95.7585 56.8115C96.5511 56.8115 97.3438 56.1131 97.3438 55.4148C98.1365 54.7165 97.3438 54.0183 98.1365 53.3201C98.9292 53.3201 98.1365 54.7165 98.1365 55.4148L97.3438 56.1134C97.3438 56.1134 98.1365 56.1134 98.9292 56.1134C98.9292 56.1134 98.9292 56.1131 98.9292 55.4148V54.7167C98.1365 54.7167 97.3438 53.3201 96.5511 53.3201Z" fill="white"/>
<path d="M33.1367 21.1994C33.9294 21.1994 33.9294 21.8975 33.9294 21.8975C33.9294 22.5958 34.7221 22.5958 34.7221 23.2941C34.7221 23.9924 35.5147 23.9925 35.5147 24.6908C35.5147 24.6908 35.5147 24.6906 35.5147 25.3889C35.5147 25.3889 35.5147 25.3891 35.5147 26.0874C35.5147 26.0874 35.5147 26.0872 36.3074 25.3889C36.3074 25.3889 37.8928 24.6905 37.8928 23.9922C37.8928 23.294 38.6855 23.2943 37.8928 22.596C37.8928 21.8977 37.1001 20.5008 36.3074 20.5008C35.5147 19.8026 34.7221 20.5008 33.9294 20.5008C34.7221 19.8026 33.1367 20.5011 33.1367 21.1994ZM34.7221 19.8027C35.5148 19.8027 35.5147 19.8026 35.5147 20.5008C35.5147 21.1991 36.3074 21.1992 36.3074 21.8975C36.3074 22.5958 37.1001 22.5958 36.3074 23.2941C36.3074 23.2941 36.3074 23.2943 35.5147 22.596L34.7221 21.8975C35.5148 21.8975 35.5148 21.1993 34.7221 19.8027C34.7221 20.501 34.7221 20.501 34.7221 19.8027Z" fill="white"/>
<path d="M43.4414 15.6132C43.4414 15.6132 44.2341 15.6132 43.4414 15.6132C44.2341 17.0098 44.2341 18.4062 45.0268 19.8028V20.5009C45.0268 20.5009 45.0268 20.5011 45.0268 21.1994H45.8194C46.6121 21.1994 46.6121 21.1991 47.4048 20.5009C48.9902 19.8026 48.9901 17.7079 48.1975 16.3114C48.1975 15.6131 47.4048 15.613 46.6121 14.9147C45.8195 14.9147 45.0268 14.9147 44.2341 14.9147C44.2341 14.9147 43.4414 14.915 43.4414 15.6132C43.4414 14.915 43.4414 15.6132 43.4414 15.6132ZM45.0268 14.9147C45.8194 14.2164 46.6121 16.3112 46.6121 17.0095C46.6121 17.7077 46.6121 18.4061 46.6121 18.4061C46.6121 18.4061 45.8194 18.4063 45.8194 17.708C45.8194 17.0097 45.8194 17.0096 45.8194 16.3114C45.8194 17.0096 45.8194 16.3113 45.0268 14.9147C45.0268 15.613 45.0268 14.9147 45.0268 14.9147Z" fill="white"/>
<path d="M52.1611 13.5178C52.1611 14.2161 52.1612 14.9147 52.9538 15.613C52.9538 16.3113 52.9538 17.0095 52.9538 17.7078C52.9538 17.7078 52.9538 17.7076 52.9538 18.4059C53.7465 18.4059 54.5392 18.4059 55.3319 18.4059C55.3319 18.4059 55.3318 18.4059 56.1245 18.4059C56.9172 17.7076 56.9172 17.0094 56.9172 16.3111C56.9172 15.6129 56.9172 14.9147 56.1245 14.2164C56.1245 13.5181 55.3319 13.5178 54.5392 13.5178C53.7465 12.8196 52.9538 12.8196 52.1611 13.5178C52.1611 12.8196 52.1611 12.8196 52.1611 13.5178ZM53.7465 13.5178C55.3319 12.8196 54.5392 15.6129 54.5392 16.3111C54.5392 17.0094 54.5392 17.7078 54.5392 17.7078C54.5392 17.7078 54.5392 17.7075 53.7465 17.0092C53.7465 16.311 53.7465 16.3113 53.7465 15.613C53.7465 14.9147 53.7465 14.2161 53.7465 13.5178Z" fill="white"/>
<path d="M39.4782 18.406C39.4782 19.1043 39.4782 19.8025 39.4782 20.5008C39.4782 21.1991 39.4782 21.1991 39.4782 21.8974V22.596C39.4782 22.596 39.4782 22.5958 39.4782 23.2941L40.2709 22.596C40.2709 22.596 39.4782 22.5957 39.4782 21.8974V21.1993C39.4782 21.1993 40.2709 20.5008 41.0636 20.5008L41.8562 21.1993L43.4416 20.5008C43.4416 20.5008 43.4416 19.8027 42.6489 19.8027C42.6489 19.8027 40.2709 17.7077 40.2709 17.0094V16.3113H39.4782C39.4782 16.3113 38.6855 16.3111 38.6855 17.0094V17.7079C39.4782 17.7079 39.4782 17.7078 39.4782 18.406ZM41.0636 19.1046C41.0636 19.8028 41.0636 19.8028 41.0636 19.1046C41.0636 19.8028 41.0636 19.8028 41.0636 19.1046C40.2709 19.8028 40.2709 19.8027 40.2709 19.8027V19.1046C40.2709 18.4063 40.2709 17.7079 40.2709 17.7079C40.2709 18.4062 41.0636 19.1046 41.0636 19.1046ZM40.2709 22.596C40.2709 22.596 39.4782 22.596 40.2709 22.596C39.4782 22.596 40.2709 22.596 40.2709 22.596Z" fill="white"/>
<path d="M89.4167 36.5616H88.624C88.624 36.5616 88.624 36.5614 88.624 37.2597V37.9578C88.624 37.9578 88.624 37.9578 89.4167 37.9578C89.4167 37.2596 89.4167 36.5616 89.4167 36.5616C90.2094 37.2599 90.2094 37.2597 90.2094 37.2597V37.9578C90.2094 37.9578 90.2094 37.9581 90.2094 38.6564L89.4167 39.3545C89.4167 39.3545 89.4167 39.3547 89.4167 40.053V40.7511C89.4167 41.4494 90.2094 40.7511 90.2094 40.7511L91.0021 40.053C91.7947 39.3547 93.3801 37.9578 93.3801 37.9578H94.1728L93.3801 36.5616C93.3801 36.5616 93.3801 36.5614 92.5874 37.2597C91.7947 35.8632 89.4167 36.5616 89.4167 36.5616ZM91.0021 36.5616H92.5874L91.7947 37.2597C91.002 37.2597 91.0021 37.2599 91.0021 36.5616Z" fill="white"/>
<path d="M20.4539 37.2598C21.2465 37.2598 22.0392 37.2597 22.0392 37.9579C22.8319 38.6562 23.6246 38.6563 23.6246 39.3546L24.4173 40.0531C24.4173 40.0531 24.4173 40.0529 24.4173 40.7512L26.0026 37.9579C26.0026 37.9579 24.4173 35.8634 24.4173 36.5617V37.2598V37.9579C24.4173 37.9579 24.4173 38.6563 24.4173 39.3546L22.8319 38.6565C22.8319 38.6565 22.8319 37.9579 23.6246 37.9579H24.4173C24.4173 37.9579 23.6246 37.2598 22.8319 37.2598V37.9579V38.6565L21.2466 37.9579C21.2466 37.9579 21.2465 37.26 22.0392 36.5617H22.8319H22.0392C22.0392 36.5617 21.2465 38.6565 20.4539 38.6565C20.4539 36.5616 19.6612 37.2598 20.4539 37.2598Z" fill="white"/>
<path d="M75.9415 19.1047C75.1488 19.803 74.3562 21.8976 74.3562 21.8976C73.5635 21.8976 73.5635 21.8976 73.5635 21.8976L74.3562 22.5961C75.1489 22.5961 76.7342 23.9924 76.7342 23.9924C76.7342 23.9924 76.7342 23.9924 77.5269 23.9924C77.5269 23.9924 77.5269 23.9927 79.1122 22.5961V21.8976H78.3196C77.5269 21.8976 77.5269 21.8976 76.7342 21.8976C75.9415 21.8976 76.7342 21.1995 76.7342 21.1995C76.7342 20.5012 77.5269 20.5011 77.5269 19.8029C77.5269 19.8029 77.5269 19.8029 78.3196 19.8029V20.501C78.3196 20.501 78.3196 19.8029 79.1122 19.8029V19.1047H78.3196C78.3196 19.1047 78.3195 19.1047 77.5269 19.1047C77.5269 18.4065 78.3196 18.4064 78.3196 17.7081L79.1122 18.4062V19.1047V18.4062C79.1122 18.4062 79.1122 18.4062 78.3196 18.4062C77.5269 17.7079 76.7342 17.7078 75.9415 17.0096C75.9415 17.0096 75.1488 16.3113 75.1488 17.0096C75.1488 17.0096 75.1488 17.0098 75.1488 17.7081C76.7342 18.4064 75.9415 19.1047 75.9415 19.1047Z" fill="white"/>
<path d="M92.5879 51.2252V51.9233C92.5879 51.9233 93.3806 51.9233 94.1733 51.9233C94.1733 51.9233 94.9659 51.9233 94.1733 51.9233C93.3806 51.9233 92.5879 51.2252 92.5879 51.2252C92.5879 50.5269 93.3806 50.5268 93.3806 49.8285C94.1732 49.8285 94.1732 49.8285 94.9659 49.8285C94.9659 49.8285 94.9659 49.8288 94.9659 50.5271C94.9659 50.5271 94.9659 51.2252 94.1733 51.2252C94.1733 51.2252 94.9659 51.2252 95.7586 51.2252C94.9659 50.5269 94.9659 50.5271 94.9659 50.5271C95.7586 50.5271 95.7586 50.5271 96.5513 50.5271V51.9233L95.7586 52.6218H96.5513C96.5513 52.6218 96.5513 52.6216 96.5513 51.9233C96.5513 51.225 96.5513 50.527 96.5513 49.1304C96.5513 48.4321 96.5513 48.4319 96.5513 48.4319H94.9659H92.5879V49.1304C92.5879 49.8287 92.5879 50.5269 92.5879 51.2252Z" fill="white"/>
<path d="M18.0762 42.8458C18.0762 42.8458 18.8689 42.8458 18.0762 42.8458C18.8689 42.8458 22.8323 42.8458 22.8323 42.8458C22.8323 43.544 23.6249 42.8458 23.6249 42.8458V42.1476V41.4491C23.6249 41.4491 23.6249 41.4491 22.8323 41.4491C22.0396 40.7508 20.4542 40.0526 19.6615 39.3544V38.6562L18.8689 40.0529C19.6615 40.0529 20.4542 40.751 20.4542 40.751C20.4542 40.751 22.0396 41.4494 21.2469 42.1476H18.8689H18.0762C18.0762 41.4494 18.0762 42.1475 18.0762 42.8458Z" fill="white"/>
<path d="M63.2579 22.5959C62.4652 21.8976 62.4652 21.1993 61.6725 21.1993L60.8799 20.5007L61.6725 21.1993C61.6725 21.1993 62.4652 21.8976 63.2579 22.5959Z" fill="white"/>
<path d="M60.0873 23.9923C60.0873 23.9923 60.88 24.6906 60.88 23.9923C60.88 23.9923 60.88 23.9923 60.0873 23.9923C60.0873 23.2941 60.0873 23.2942 59.2946 23.2942C59.2946 23.2942 58.502 22.596 58.502 23.2942V23.9923C59.2946 23.9923 59.2946 24.6906 60.0873 23.9923C60.0873 24.6906 60.0873 24.6906 60.0873 23.9923C60.0873 24.6906 59.2946 23.9923 60.0873 23.9923C59.2946 23.2941 59.2946 23.2942 59.2946 23.2942C60.0873 23.2942 60.0873 23.2941 60.0873 23.9923Z" fill="white"/>
<path d="M68.0146 44.2425C68.8073 44.9408 68.8073 44.9409 69.6 45.6392C70.3927 46.3375 71.1854 46.3375 71.978 45.6392C72.7707 44.9409 73.5634 43.5444 73.5634 43.5444C73.5634 44.2427 72.7707 45.6392 71.1854 45.6392C68.8073 44.9409 68.0146 44.2425 68.0146 44.2425Z" fill="white"/>
<path d="M66.4287 42.8459C66.4287 43.5442 67.2214 44.2426 67.2214 44.2426C67.2214 44.9409 66.4287 43.5442 66.4287 42.8459Z" fill="white"/>
<path d="M72.7706 50.5271C71.9779 49.8289 71.1853 49.8286 70.3926 49.8286C71.9779 49.8286 72.7706 50.5271 72.7706 50.5271C72.7706 50.5271 72.7706 51.9236 72.7706 52.6219C72.7706 53.3202 72.7706 54.0184 71.9779 54.7167C73.5633 53.3201 73.5633 51.9237 72.7706 50.5271L73.5633 49.8286C73.5633 49.8286 73.5633 50.5271 72.7706 50.5271Z" fill="white"/>
<path d="M76.7341 61.6995C76.7341 62.3977 75.9414 63.0961 75.9414 63.0961C76.7341 62.3978 76.7341 61.6995 76.7341 61.6995Z" fill="white"/>
<path d="M77.527 58.208C77.527 58.9063 77.5271 59.6045 76.7344 60.3028C76.7344 60.3028 76.7344 60.303 76.7344 61.0013C77.5271 60.303 77.527 59.6046 77.527 58.208Z" fill="white"/>
<path d="M75.1484 55.4146C75.9411 55.4146 77.5265 56.8113 77.5265 58.2079C77.5265 57.5096 77.5265 54.7163 75.1484 55.4146Z" fill="white"/>
<path d="M76.7339 59.6048C76.7339 56.8117 72.7705 56.8115 72.7705 56.8115C74.3559 56.8115 75.9412 57.51 76.7339 59.6048Z" fill="white"/>
<path d="M74.3554 54.7166C73.5627 54.7166 72.77 54.7166 71.1847 54.7166C71.1847 54.7166 71.1847 54.7166 70.392 54.7166H69.5993C69.5993 54.7166 68.8066 54.7164 68.8066 55.4147H69.5993C71.1847 55.4147 71.9774 55.4148 74.3554 54.7166Z" fill="white"/>
<path d="M56.9165 60.3028C55.3312 58.9062 54.5385 57.5098 52.9531 56.1133C54.5385 57.5098 55.3312 58.9062 56.9165 60.3028Z" fill="white"/>
<path d="M61.673 58.208C60.8803 58.208 60.0876 58.208 58.5023 58.208H57.7096C57.7096 58.208 57.7096 57.5099 56.9169 57.5099C56.1242 56.8116 55.3316 55.4149 54.5389 54.7166C53.7462 54.0183 52.9535 53.3202 52.1608 54.0185C52.1608 54.0185 52.1608 54.7166 51.3682 54.7166L52.1608 54.0185C52.9535 54.0185 53.7462 54.7166 53.7462 54.7166C54.5389 55.4149 55.3315 56.8116 56.1242 57.5099V58.208H56.9169C60.0876 58.9063 60.8803 58.9063 61.673 58.208C63.2583 58.9063 64.8437 58.9063 66.4291 58.208C64.8437 58.208 63.2583 58.208 61.673 58.208Z" fill="white"/>
<path d="M61.6726 59.6047C60.88 59.6047 60.0873 59.6047 58.502 59.6047C59.2946 60.303 60.88 60.303 61.6726 59.6047Z" fill="white"/>
<path d="M57.71 61.0015C60.8807 61.0015 64.0514 61.0013 67.2221 61.6996C64.8441 61.0013 61.6734 61.0015 57.71 61.0015Z" fill="white"/>
<path d="M65.6367 61.0012C66.4294 61.0012 67.2221 61.0012 68.0147 61.0012C67.2221 60.303 66.4294 60.303 65.6367 61.0012Z" fill="white"/>
<path d="M55.3319 71.4755C54.5392 71.4755 52.9539 71.4753 51.3685 70.777C49.7831 70.0787 48.1978 69.3807 47.4051 67.9841C45.8197 66.5876 44.2344 63.7942 44.2344 63.7942C45.0271 65.1907 45.8198 67.2858 46.6124 67.9841C47.4051 69.3807 48.9905 70.0787 50.5758 70.777C52.1612 71.4753 53.7465 71.4755 55.3319 71.4755Z" fill="white"/>
<path d="M64.0506 76.363C63.2579 76.363 63.2579 76.363 64.0506 76.363C64.0506 77.0613 64.0506 77.7597 64.0506 77.7597C64.0506 77.7597 64.0506 77.0613 64.0506 76.363Z" fill="white"/>
<path d="M60.8799 84.7426C60.8799 84.7426 62.4652 84.0442 61.6725 83.3459L60.8799 84.0445C61.6726 83.3462 61.6726 84.0443 60.8799 84.7426C61.6726 84.0443 60.8799 84.7426 60.8799 84.7426Z" fill="white"/>
<path d="M56.9173 74.967C56.9173 74.2687 56.1246 74.967 56.9173 74.967C52.1613 74.2687 49.7832 72.8718 49.7832 72.8718C51.3686 74.2684 52.9539 75.6651 55.332 75.6651C56.1246 75.6651 56.9173 74.967 56.9173 74.967Z" fill="white"/>
<path d="M50.5756 71.4755C51.3683 72.1738 52.9536 72.1736 52.9536 72.1736C51.3683 71.4753 48.9902 70.0789 48.9902 70.0789C49.7829 70.7771 49.7829 70.7772 50.5756 71.4755Z" fill="white"/>
<path d="M60.8803 74.967C60.8803 76.3636 59.2949 77.0618 59.2949 77.0618C60.0876 77.0618 60.8803 75.6653 60.8803 74.967Z" fill="white"/>
<path d="M52.161 77.7597C52.161 77.7597 52.161 76.3634 51.3684 74.9668C48.9903 72.1737 46.6123 68.6821 46.6123 68.6821C47.405 70.0787 48.1977 71.4751 48.9903 72.8716C49.783 73.5699 49.783 74.2685 50.5757 74.9668C50.5757 75.6651 51.3684 76.3631 52.161 77.7597C51.3684 77.0614 49.783 74.9666 48.9903 74.2683C48.1977 73.57 48.1976 72.1737 47.405 71.4754C47.405 71.4754 48.1977 73.57 48.9903 74.2683C50.5757 76.3631 51.3684 77.7597 52.161 77.7597Z" fill="white"/>
<path d="M45.819 73.5703C45.819 74.2685 45.819 74.9666 45.819 76.3631V75.665V74.9669C46.6117 74.2686 46.6117 73.5703 45.819 73.5703C45.819 72.1737 45.819 70.7771 45.0264 70.0789C45.0264 70.7771 45.819 70.7772 45.819 71.4755C45.819 72.1738 45.819 72.872 45.819 73.5703Z" fill="white"/>
<path d="M51.3687 77.7599C50.576 77.0616 49.7833 77.0618 48.9906 77.0618C48.198 77.0618 47.4053 77.0618 47.4053 77.0618C47.4053 77.0618 48.9906 77.0616 51.3687 77.7599Z" fill="white"/>
<path d="M54.5392 77.0617L52.1611 75.665C52.1611 76.3633 54.5392 77.0617 54.5392 77.0617Z" fill="white"/>
<path d="M52.1605 61.0013C52.9532 61.0013 52.1605 60.3027 51.3679 60.3027L50.5752 61.0013C50.5752 61.0013 51.3678 61.0013 52.1605 61.0013Z" fill="white"/>
<path d="M70.3924 59.6048C70.3924 59.6048 68.807 57.5098 67.2217 56.8115C69.5997 58.2081 70.3924 59.6048 70.3924 59.6048Z" fill="white"/>
<path d="M72.7702 62.3974C72.7702 61.6992 72.7702 61.001 71.9775 60.3027C71.9775 59.6044 72.7702 61.0009 72.7702 62.3974Z" fill="white"/>
<path d="M72.7703 58.9063C72.7703 58.9063 71.9776 58.208 72.7703 58.9063C71.9776 58.9063 72.7703 59.6048 72.7703 59.6048C72.7703 59.6048 72.7703 59.6046 72.7703 58.9063Z" fill="white"/>
<path d="M45.8199 24.6908C43.4418 25.3891 41.8565 26.0873 41.0638 26.7856C38.6858 28.1821 35.515 30.2771 33.9297 31.6736C35.515 30.2771 42.6492 25.3889 50.576 23.9923C52.1613 23.294 52.1613 23.2942 52.1613 23.2942C52.1613 23.2942 49.7833 23.9923 48.9906 23.9923C48.1979 23.9923 47.4052 24.6908 45.8199 24.6908Z" fill="white"/>
<path d="M34.7217 30.2769C41.0631 25.3889 48.9899 22.5957 51.3679 21.8975C48.1972 22.5957 45.0265 23.9923 41.8558 25.3889C40.2704 26.0871 34.7217 29.5786 34.7217 30.2769ZM48.9899 22.596C48.1972 22.596 47.4045 23.2941 47.4045 23.2941C46.6118 23.2941 45.8192 23.9922 45.0265 23.9922C45.8192 23.9922 47.4045 23.2943 48.9899 22.596Z" fill="white"/>
<path d="M58.5026 45.6392C56.1245 44.9409 52.1611 45.6392 52.1611 45.6392C53.7465 45.6392 58.5026 45.6392 58.5026 45.6392Z" fill="white"/>
<path d="M84.6606 63.0962C84.6606 63.7945 83.8679 65.1909 83.0752 65.1909C83.8679 65.1909 84.6606 64.4927 84.6606 63.0962Z" fill="white"/>
<path d="M67.2219 22.5961C66.4292 21.8979 67.2219 21.8979 67.2219 22.5961C67.2219 21.8979 66.4292 21.8976 66.4292 21.8976C64.8439 21.1993 64.8438 21.1992 64.0512 20.501V19.8028C64.0512 19.1046 62.4658 19.1047 62.4658 19.1047L63.2585 19.8028V20.501C63.2585 21.1992 64.0512 21.8976 64.0512 21.8976C64.0512 21.8976 64.0512 21.1995 63.2585 21.1995C64.8438 21.8978 65.6365 22.5961 67.2219 22.5961C66.4292 22.5961 66.4292 22.5961 67.2219 22.5961C66.4292 22.5961 66.4292 22.5961 67.2219 22.5961L68.0145 23.2942C68.0145 22.596 67.2219 22.5961 67.2219 22.5961Z" fill="white"/>
<path d="M68.807 24.6909C68.807 23.9926 69.5997 23.9925 69.5997 23.2942C69.5997 22.596 69.5997 21.8978 68.807 21.1995C68.807 20.5012 67.2217 19.1047 67.2217 19.1047L68.0143 19.8028C68.807 20.5011 68.807 21.1993 68.807 21.8976C68.807 22.5959 69.5997 23.2941 69.5997 23.9923C69.5997 23.2941 68.807 22.5959 68.0143 21.8976C68.0143 22.5959 68.807 23.2943 68.807 24.6909Z" fill="white"/>
<path d="M66.4295 23.9922C65.6369 23.2939 64.8442 23.2943 64.8442 22.596C64.8442 22.596 64.8442 22.5957 64.8442 21.8975C64.0515 23.294 64.8442 23.9922 66.4295 23.9922C65.6369 23.9922 66.4295 24.6905 66.4295 23.9922Z" fill="white"/>
<path d="M64.8442 23.9922C64.8442 23.9922 64.0515 23.2942 63.2588 22.5959C63.2588 22.5959 63.2588 23.2939 64.8442 23.9922Z" fill="white"/>
<path d="M67.2221 23.9923C68.0148 23.9923 68.0147 23.9923 68.0147 23.9923C68.0147 23.9923 67.2221 23.294 67.2221 23.9923C67.2221 23.294 66.4294 23.2942 65.6367 23.2942C65.6367 23.2942 66.4294 23.294 67.2221 23.9923Z" fill="white"/>
<path d="M64.0508 19.1047C64.0508 19.1047 64.0508 19.803 64.0508 19.1047C64.0508 19.803 64.0508 19.803 64.0508 19.1047H64.8435C64.8435 19.1047 64.8435 19.1047 64.0508 19.1047Z" fill="white"/>
<path d="M64.8438 21.1995C65.6364 21.1995 65.6364 21.1995 65.6364 21.1995C65.6364 20.5012 65.6364 21.1995 64.8438 21.1995Z" fill="white"/>
<path d="M68.8066 28.1822C68.8066 28.1822 69.5993 28.1822 68.8066 28.1822H69.5993C69.5993 28.1822 69.5993 27.4839 68.8066 28.1822C68.8066 27.4839 68.8066 28.1822 68.8066 28.1822Z" fill="white"/>
<path d="M69.5993 25.389C69.5993 26.0872 69.5993 26.0873 69.5993 26.7856L68.8066 27.4837C69.5993 26.7854 69.5993 25.389 69.5993 25.389C69.5993 25.389 69.5993 24.6907 69.5993 25.389Z" fill="white"/>
<path d="M70.3925 24.6908C70.3925 23.9926 71.1852 23.2942 71.1852 23.2942C69.5998 24.6907 70.3925 24.6908 70.3925 24.6908Z" fill="white"/>
<path d="M56.1247 80.553C56.1247 80.553 55.332 80.5528 55.332 81.2511L56.1247 80.553Z" fill="white"/>
<path d="M58.502 80.553C59.2946 80.553 60.0873 79.8545 60.0873 79.8545H59.2946C59.2946 79.8545 58.502 79.8547 58.502 80.553Z" fill="white"/>
<path d="M59.2949 80.553C59.2949 80.553 60.0876 80.553 59.2949 80.553C60.0876 80.553 60.8803 79.8545 60.8803 79.8545C60.8803 79.8545 60.0876 79.8547 59.2949 80.553Z" fill="white"/>
<path d="M29.9655 39.3546C33.9289 36.5614 37.8923 33.7683 42.6484 32.3718C43.4411 31.6735 45.0264 31.6734 45.8191 30.9751C46.6118 30.9751 48.1971 29.5786 48.9898 28.8804C48.9898 28.8804 45.0264 30.9754 42.6484 31.6737C39.4777 33.0702 36.307 34.4669 33.1362 36.5617C31.5509 37.26 29.9655 38.6563 29.1729 39.3546C29.1729 39.3546 29.9655 39.3546 29.9655 39.3546Z" fill="white"/>
<path d="M48.1974 28.8804C43.4413 30.2769 38.6853 33.0702 34.7219 35.1651C33.1366 35.8633 31.5512 37.2599 29.9658 38.6564L30.7585 37.9579C33.9292 35.8631 37.0999 33.7685 40.2706 31.6737C42.6487 30.9754 44.2341 29.5786 46.6121 28.8804C47.4048 29.5786 47.4047 28.8804 48.1974 28.8804Z" fill="white"/>
<path d="M45.0271 35.165C45.0271 35.165 44.2344 35.8631 43.4418 35.8631C43.4418 35.8631 41.8564 36.5617 41.0637 36.5617C39.4784 37.26 38.6857 37.2596 37.1003 37.9579C34.7223 38.6562 33.1369 40.0527 31.5516 41.4493C30.7589 42.1476 29.9662 42.8462 28.3809 43.5445C28.3809 43.5445 29.1736 43.5442 29.1736 42.8459C29.9662 42.8459 29.9662 42.1478 30.7589 42.1478C31.5516 41.4495 34.7223 39.3545 35.515 39.3545C36.3077 38.6563 37.893 38.6562 38.6857 37.9579C41.8564 37.9579 45.0271 35.8633 45.0271 35.165Z" fill="white"/>
<path d="M42.6488 35.165C41.0634 35.8633 39.4781 36.5615 37.8927 37.2598C36.3073 37.9581 34.722 39.3548 33.1366 40.0531C31.5513 41.4496 29.1732 42.1479 27.5879 43.5445L29.9659 42.1478C30.7586 41.4495 31.5513 41.4495 32.3439 40.7512C32.3439 40.7512 35.5147 39.3547 36.3073 38.6564C37.8927 37.9582 38.6854 37.2598 40.2707 37.2598C40.2707 36.5615 42.6488 35.165 42.6488 35.165Z" fill="white"/>
<path d="M28.3802 73.5704C28.3802 72.8721 27.5875 71.4756 27.5875 71.4756L26.7948 70.7771H26.0022C25.2095 70.7771 22.8315 70.7774 22.8315 71.4756H22.0388C22.0388 71.4756 22.0388 71.4756 21.2461 71.4756C21.2461 71.4756 22.0388 72.1736 22.0388 72.8719C22.0388 72.8719 22.8314 72.1736 23.6241 72.8719C23.6241 72.8719 24.4168 74.2687 24.4168 74.967L23.6241 75.6651L24.4168 76.3632C24.4168 76.3632 24.4168 77.0615 24.4168 76.3632C24.4168 76.3632 25.2095 75.6653 25.2095 74.967L26.0022 74.2685C26.0022 74.2685 26.7948 74.967 26.0022 74.967C26.0022 75.6653 25.2095 76.3635 25.2095 77.0618L26.0022 77.7599C26.0022 77.0616 26.7948 75.6651 26.7948 75.6651V74.967C26.7948 74.967 27.5875 74.967 28.3802 74.967C28.3802 74.967 28.3802 74.2687 28.3802 73.5704ZM23.6241 72.1737C24.4168 72.1737 25.2095 72.1737 25.2095 72.1737L24.4168 72.8719C24.4168 72.8719 24.4168 73.5704 23.6241 73.5704V72.1737ZM26.7948 74.2685H26.0022C26.0022 74.2685 27.5875 72.1736 27.5875 72.8719L28.3802 73.5704C27.5875 73.5704 26.7948 74.2685 26.7948 74.2685Z" fill="white"/>
<path d="M29.1731 77.0617C29.9658 77.76 29.9657 77.0617 29.9657 77.0617C29.9657 77.0617 30.7584 76.3634 29.1731 75.6651C29.1731 75.6651 28.3804 74.9668 26.7951 75.6651C26.7951 75.6651 24.417 77.0616 24.417 79.1565C24.417 79.1565 25.2097 80.5531 26.7951 80.5531C26.7951 80.5531 27.5877 80.5529 27.5877 79.8546C27.5877 79.8546 27.5877 79.8548 27.5877 80.5531C27.5877 80.5531 27.5877 81.2512 26.7951 81.2512C26.7951 81.2512 26.7951 81.2515 26.7951 81.9498L27.5877 82.6479C27.5877 82.6479 27.5877 82.6479 28.3804 82.6479C28.3804 82.6479 29.1731 81.2511 30.7584 79.8546C30.7584 79.8546 31.5511 79.1563 31.5511 79.8546C31.5511 79.8546 31.5511 80.5531 32.3438 80.5531C32.3438 80.5531 32.3438 79.8546 33.1365 79.8546C33.1365 79.8546 33.9292 79.8548 33.1365 79.1565L31.5511 77.0617C31.5511 77.0617 31.5511 76.3634 30.7584 77.0617C30.7584 77.0617 30.7584 77.0616 30.7584 77.7598C30.7584 77.7598 31.5511 77.7601 31.5511 78.4584L29.9657 79.8546C29.9657 79.8546 29.9658 79.8546 29.1731 79.8546L28.3804 78.4584C28.3804 78.4584 28.3804 77.7601 27.5877 78.4584C27.5877 78.4584 27.5877 79.1565 26.7951 79.1565C26.7951 79.1565 26.0024 79.1566 26.0024 78.4584C26.0024 78.4584 26.0024 78.4581 26.7951 77.7598L28.3804 75.6651C28.3804 75.6651 28.3804 74.9668 29.1731 75.6651C29.9658 76.3634 29.9658 77.0617 29.1731 77.0617Z" fill="white"/>
<path d="M30.7586 83.3461C30.7586 83.3461 29.9659 84.0444 30.7586 83.3461V84.7428C30.7586 84.7428 30.7585 84.7428 31.5512 84.7428C31.5512 84.7428 31.5512 84.7429 31.5512 84.0447L33.1366 82.648L32.3439 85.4413V86.1394L34.7219 84.0447L33.9292 86.8375C33.9292 86.8375 33.9292 86.8378 33.9292 87.5361C33.9292 87.5361 33.9293 87.5361 34.7219 87.5361L36.3073 82.648V81.9499C36.3073 81.9499 36.3073 81.9499 35.5146 81.9499L33.9292 83.3461L34.7219 81.9499C34.7219 81.9499 35.5146 80.5533 34.7219 80.5533C34.7219 80.5533 34.7219 79.855 33.9292 80.5533L30.7586 83.3461Z" fill="white"/>
<path d="M38.685 83.346C38.685 83.346 37.8923 82.6477 38.685 83.346L37.0996 88.234V88.9326H37.8923L41.063 85.4412C41.063 85.4412 41.063 85.4409 41.063 84.7426H40.2703H39.4776C39.4776 84.7426 39.4777 85.4412 38.685 85.4412L37.8923 86.1393L38.685 84.0445C38.685 84.0445 39.4777 83.346 38.685 83.346Z" fill="white"/>
<path d="M42.649 85.4412C42.649 85.4412 41.8563 84.7429 42.649 85.4412L39.4783 89.6307C39.4783 89.6307 38.6856 90.3288 39.4783 90.3288H40.2709C40.2709 90.3288 40.271 90.3288 41.0636 90.3288L43.4417 86.1393C42.649 86.1393 42.649 85.4412 42.649 85.4412C41.8563 85.4412 42.649 85.4412 42.649 85.4412Z" fill="white"/>
<path d="M49.7829 90.3287C49.7829 90.3287 50.5756 89.6306 49.7829 89.6306C49.7829 89.6306 48.9902 89.6304 48.9902 90.3287V91.0273V93.8201V94.5187C48.9902 94.5187 48.9902 94.5187 49.7829 94.5187L52.1609 91.0273C52.1609 91.0273 52.1609 91.027 52.1609 90.3287H51.3683L49.7829 93.122C49.7829 91.0272 49.7829 91.7253 49.7829 90.3287Z" fill="white"/>
<path d="M55.3313 90.3288C54.5386 90.3288 54.5386 89.6306 53.746 90.3288C53.746 90.3288 53.746 90.3289 54.5387 91.7255C54.5387 91.7255 55.3313 93.1219 54.5387 93.8202C54.5387 93.8202 53.746 94.5185 51.3679 93.8202C51.3679 93.8202 50.5752 93.8204 51.3679 93.1221V92.424C51.3679 92.424 51.3679 91.7257 52.1606 92.424C52.1606 92.424 52.1606 93.1221 52.9533 93.1221C52.9533 93.1221 53.746 93.1222 52.9533 91.0274C52.9533 91.0274 52.1606 88.9326 52.9533 88.9326C53.746 89.6309 54.5386 88.9323 55.3313 90.3288C55.3313 89.6306 55.3313 89.6306 55.3313 90.3288Z" fill="white"/>
<path d="M48.9906 87.536C48.9906 87.536 48.9905 87.536 48.1979 87.536C48.1979 87.536 47.4052 86.8377 47.4052 87.536C47.4052 87.536 46.6125 88.2341 47.4052 88.2341H48.1979C48.1979 88.2341 48.1979 88.2343 48.1979 88.9326L46.6125 92.424C46.6125 92.424 46.6125 93.1223 45.8198 92.424C45.8198 92.424 45.8198 92.4238 45.8198 91.7255C45.8198 91.7255 45.8198 91.0271 45.8198 90.3288C45.8198 90.3288 46.6125 90.329 46.6125 89.6307C46.6125 89.6307 47.4052 88.9324 46.6125 88.2341C46.6125 88.2341 46.6125 87.536 45.8198 87.536L44.2345 86.8374H43.4418V87.536L41.8564 91.0274V91.7255H42.6491C42.6491 91.7255 42.6491 91.7255 43.4418 91.7255C43.4418 91.7255 43.4418 91.0271 44.2345 90.3288V89.6307C44.2345 89.6307 45.0272 89.6308 45.0272 91.0274C45.0272 91.0274 45.0272 92.4238 45.8198 93.1221C45.8198 93.1221 47.4052 93.8206 47.4052 92.424L48.1979 89.6307C48.1979 88.9325 48.1979 88.2343 48.9906 87.536C48.9906 88.2343 48.9906 88.2341 48.9906 88.2341C48.9906 88.2341 48.9906 88.9325 48.9906 87.536C48.9906 88.2343 49.7832 87.536 48.9906 87.536ZM44.2345 88.9326C43.4418 88.9326 43.4418 88.2343 44.2345 88.9326L45.0272 86.8374C45.0272 86.1392 45.0272 86.8374 45.0272 86.8374C45.0272 87.5357 45.0272 88.2341 45.0272 88.2341C45.0272 88.9324 44.2345 88.9326 44.2345 88.9326Z" fill="white"/>
<path d="M60.0874 93.8202C60.0874 93.8202 59.2947 93.8206 59.2947 92.424C59.2947 92.424 59.2948 91.7255 58.5021 91.7255C58.5021 91.7255 59.2947 91.7254 59.2947 90.3288C59.2947 90.3288 59.2948 89.6309 58.5021 88.9326H56.9167H56.124V93.1221C56.124 93.1221 56.124 93.1219 56.124 93.8202V94.5188H56.9167C56.9167 94.5188 57.7094 94.5185 57.7094 93.8202V91.7255C57.7094 91.7255 58.5021 91.0275 58.5021 92.424C58.5021 93.1223 58.5021 94.5185 60.0874 93.8202C60.0874 93.8202 60.8801 93.8202 60.0874 93.8202ZM57.7094 90.3288C57.7094 91.0271 56.9167 91.0274 56.9167 91.0274C56.124 91.0274 56.124 91.0274 56.124 91.0274V89.6307H56.9167C58.5021 89.6307 57.7094 90.3288 57.7094 90.3288Z" fill="white"/>
<path d="M60.8803 89.6306C60.8803 89.6306 59.2949 89.6305 59.2949 91.7254C59.2949 93.8202 61.673 93.8201 61.673 93.8201C61.673 93.8201 62.4656 93.1219 62.4656 91.7254C62.4656 89.6305 60.8803 89.6306 60.8803 89.6306ZM60.8803 93.122C60.8803 93.122 60.0876 93.1219 60.0876 91.7254C60.0876 90.3288 60.8803 90.3287 60.8803 90.3287C60.8803 90.3287 61.673 90.3288 61.673 91.7254C61.673 93.1219 60.8803 93.122 60.8803 93.122Z" fill="white"/>
<path d="M67.2222 91.7255C67.2222 91.7255 67.2223 91.0274 66.4296 91.0274C66.4296 91.0274 67.2222 89.6309 65.6369 88.9326H64.0515C64.0515 88.9326 63.2588 88.9324 64.0515 89.6307C64.0515 89.6307 64.0515 89.6306 64.8442 91.7255C64.8442 91.7255 64.8442 93.1219 64.8442 93.8202V94.5188C64.8442 94.5188 64.8442 94.5188 65.6369 94.5188C65.6369 94.5188 67.2222 94.5185 67.2222 93.8202C66.4296 93.1219 67.2222 93.122 67.2222 91.7255ZM64.0515 90.3288V89.6307C64.0515 88.9324 64.0515 88.9326 64.0515 88.9326C64.8442 88.9326 64.8442 89.6307 64.8442 89.6307C65.6369 90.329 64.8442 90.3288 64.0515 90.3288C64.0515 91.0271 64.0515 90.3288 64.0515 90.3288ZM65.6369 92.424C65.6369 93.8206 64.8442 93.1221 64.8442 93.1221C64.0515 93.1221 64.0515 93.1221 64.0515 93.1221C64.0515 92.4238 64.0515 91.7255 64.0515 91.7255C64.0515 91.0272 64.8442 91.0274 64.8442 91.0274C64.8442 91.0274 66.4296 91.0275 65.6369 92.424Z" fill="white"/>
<path d="M73.5632 90.3285C73.5632 90.3285 73.5632 90.3287 72.7705 89.6304L71.9778 88.9323C71.9778 88.9323 72.7705 88.2339 72.7705 87.5356C72.7705 87.5356 72.7705 86.1388 71.1851 86.8371H70.3925C70.3925 86.8371 70.3925 86.8373 70.3925 87.5356C70.3925 87.5356 70.3925 90.3287 70.3925 91.027L69.5998 89.6304C69.5998 89.6304 68.8071 88.2339 68.8071 87.5356V86.8371H68.0144C68.0144 86.8371 67.2217 86.8373 68.0144 87.5356C68.0144 87.5356 68.0144 87.5357 68.8071 88.9323L70.3925 91.7251C70.3925 91.7251 70.3925 92.4234 71.1851 91.7251C71.1851 91.7251 71.1851 91.7253 71.9778 91.027V88.9323C71.9778 88.9323 71.9778 88.234 72.7705 88.9323C72.7705 88.9323 72.7705 88.9321 73.5632 89.6304C71.9778 90.3287 72.7705 91.725 73.5632 90.3285C73.5632 91.0268 73.5632 91.0268 73.5632 90.3285ZM70.3925 88.9323C70.3925 88.9323 70.3925 88.234 70.3925 88.9323L69.5998 87.5356C69.5998 86.8373 70.3925 86.8371 70.3925 86.8371C71.1851 86.8371 71.1851 87.5356 71.1851 87.5356C71.1851 88.2339 70.3925 88.9323 70.3925 88.9323Z" fill="white"/>
<path d="M73.5633 86.1394C73.5633 86.1394 72.7707 85.4411 73.5633 86.1394C72.7707 86.8376 72.7707 86.8375 71.978 86.8375V86.1394C71.978 86.1394 71.978 86.1395 71.978 85.4413L73.5633 84.7427C73.5633 84.7427 73.5634 84.0444 74.356 84.7427C74.356 84.7427 75.1487 85.4413 74.356 85.4413H73.5633L75.1487 88.9326C75.1487 88.9326 75.9414 89.6308 75.1487 89.6308L73.5633 90.3289H72.7707V89.6308H73.5633C73.5633 89.6308 73.5633 89.6309 73.5633 88.9326L72.7707 88.2341C72.7707 88.2341 72.7707 88.2341 71.978 88.2341C71.978 88.2341 71.1853 88.9324 71.1853 88.2341C71.1853 88.2341 70.3926 87.536 71.1853 87.536L71.978 86.8375C71.978 86.8375 71.978 86.8376 71.978 86.1394C73.5633 86.8376 72.7707 86.1394 73.5633 86.1394Z" fill="white"/>
<path d="M77.5264 84.0444C77.5264 84.0444 77.5264 84.7426 77.5264 84.0444C78.3191 84.0444 78.3191 84.0444 77.5264 84.0444C78.3191 83.3461 77.5264 82.6475 75.941 83.3458C74.3557 84.0441 75.1484 85.441 75.1484 85.441C75.1484 85.441 75.1484 86.1391 77.5264 86.1391C77.5264 86.1391 79.1118 86.1392 78.3191 87.5358C78.3191 87.5358 78.3191 88.234 76.7337 87.5358C76.7337 87.5358 75.941 86.8373 75.941 88.2339C75.941 88.2339 75.941 88.9324 77.5264 88.9324C77.5264 88.9324 79.9044 88.9321 79.1118 86.8372C79.1118 86.8372 79.1118 85.441 76.7337 85.441C76.7337 85.441 75.1484 85.4407 75.941 84.7425C76.7337 84.0442 77.5264 83.3461 77.5264 84.0444Z" fill="white"/>
<path d="M79.112 81.9497C79.112 81.9497 79.112 82.648 79.112 81.9497C78.3193 82.648 78.3193 82.6478 78.3193 82.6478V81.9497C78.3193 81.9497 78.3193 81.9495 78.3193 81.2512L79.9047 79.8545C79.9047 79.8545 79.9047 79.1563 80.6974 79.8545C80.6974 79.8545 81.49 79.8548 80.6974 80.5531H79.9047C79.9047 81.2513 79.9047 81.2514 79.112 81.9497L81.49 84.0445C81.49 84.0445 81.49 84.0443 82.2827 84.7426V85.4411C82.2827 85.4411 81.49 86.1394 81.49 85.4411C81.49 85.4411 81.49 84.7426 80.6974 84.7426L79.112 81.9497Z" fill="white"/>
<path d="M81.4901 81.2512C80.6975 81.2512 79.9048 81.9497 80.6975 81.9497L83.8682 83.3459C83.8682 83.3459 83.8682 83.3459 84.6609 83.3459C84.6609 83.3459 84.6609 83.3461 84.6609 82.6478L83.0755 79.1564V78.4583C83.0755 78.4583 83.0755 77.76 82.2828 78.4583L81.4901 79.1564C81.4901 79.1564 80.6975 79.8545 81.4901 79.8545C81.4901 79.8545 81.4902 79.8548 82.2828 80.553L83.8682 83.3459L81.4901 81.2512Z" fill="white"/>
<path d="M88.624 77.7598C88.624 77.7598 87.0386 75.665 85.4533 75.665C85.4533 75.665 84.6606 75.6649 83.8679 76.3631V77.0617C83.8679 77.0617 83.0752 77.7598 83.8679 77.7598C83.8679 77.7598 84.6606 77.76 86.246 80.5531C86.246 80.5531 86.246 80.5529 86.246 81.2512C86.246 81.2512 86.246 81.9495 87.0387 81.2512L88.624 79.8545C88.624 79.8545 89.4167 78.4581 88.624 77.7598ZM87.8313 79.8545L85.4533 77.7598C84.6606 77.7598 85.4533 77.0617 85.4533 77.0617C86.246 76.3634 87.0387 77.0617 87.0387 77.0617C87.8313 77.76 88.624 78.4583 88.624 78.4583C88.624 79.1566 87.8313 79.8545 87.8313 79.8545Z" fill="white"/>
<path d="M85.4531 74.2684L89.4165 77.7597C89.4165 77.7597 89.4165 78.458 90.2092 77.7597V77.0616C90.2092 77.0616 90.2092 77.0614 89.4165 76.3631C89.4165 76.3631 87.0385 74.9666 87.0385 74.2684C87.0385 74.2684 86.2458 73.5701 85.4531 74.2684Z" fill="white"/>
<path d="M90.2098 68.6824C90.2098 68.6824 89.4171 67.9841 89.4171 68.6824C89.4171 68.6824 89.4171 68.6822 89.4171 69.3805L90.2098 70.0791H89.4171H88.6244C88.6244 70.0791 88.6244 70.0789 88.6244 70.7772C88.6244 70.7772 91.0025 72.8722 91.0025 73.5705C91.0025 73.5705 90.2098 73.5704 87.8317 72.1738C87.8317 72.1738 87.0391 71.4755 87.0391 72.1738V72.8719L91.0025 74.2686H91.7951V73.5705L89.4171 70.7772L91.7951 71.4757C91.7951 71.4757 92.5878 71.4754 91.7951 70.7772L90.2098 68.6824C90.2098 68.6824 93.3805 69.3808 93.3805 70.0791C93.3805 70.0791 93.3805 70.7773 94.1732 70.0791V69.3805C94.1732 69.3805 94.1732 68.6824 93.3805 68.6824" fill="white"/>
<path d="M51.3686 15.6133C51.3686 16.3116 51.3686 16.3114 50.5759 16.3114C49.7832 16.3114 49.7832 16.3116 49.7832 15.6133C49.7832 14.9151 49.7832 14.9148 50.5759 14.9148L51.3686 15.6133Z" fill="white"/>
<path d="M64.0512 15.6133C64.0512 16.3116 64.0512 16.3114 63.2585 16.3114C62.4658 16.3114 62.4658 15.6133 62.4658 15.6133C62.4658 14.9151 62.4658 14.9148 63.2585 14.9148C63.2585 14.9148 64.0512 14.9151 64.0512 15.6133Z" fill="white"/>
<path d="M91.0024 34.4664C91.0024 35.1647 91.0024 35.165 90.2097 35.165C89.417 35.165 89.417 34.4664 89.417 34.4664C89.417 33.7681 89.417 33.7683 90.2097 33.7683C91.0024 33.7683 91.0024 33.7681 91.0024 34.4664Z" fill="white"/>
<path d="M98.1359 58.9062C98.1359 61.0011 97.3432 63.7944 96.5505 65.1909C96.5505 65.8892 95.7578 65.8893 95.7578 66.5876V67.2857V66.5876V65.889C95.7578 65.1908 96.5505 65.1911 96.5505 64.4928C97.3432 63.7945 98.1359 61.6994 98.1359 58.9062Z" fill="white"/>
<path d="M89.417 66.5874C89.417 67.984 90.2097 67.984 90.2097 67.984C90.2097 67.984 91.0023 67.9839 91.795 68.6822L91.0024 67.984C91.0024 67.984 91.0024 67.2855 90.2097 67.2855C90.2097 67.2855 90.2097 67.2855 89.417 67.2855V66.5874Z" fill="white"/>
<path d="M90.209 65.8889C91.0017 65.8889 91.0017 66.5872 90.209 65.8889C91.0017 66.5872 91.0017 66.5872 90.209 65.8889C91.0017 66.5872 91.0017 66.5872 90.209 65.8889C91.0017 66.5872 91.0017 65.8889 90.209 65.8889Z" fill="white"/>
<path d="M91.0017 66.5874V67.2855C91.0017 67.2855 91.0017 67.2857 91.0017 66.5874ZM90.209 64.4927C90.209 65.191 90.209 65.1906 90.209 65.8889C90.209 65.8889 90.209 65.8889 91.0017 65.8889C90.209 65.8889 90.209 65.191 90.209 64.4927Z" fill="white"/>
<path d="M90.2097 64.4927C89.417 65.191 90.2097 65.8889 90.2097 65.8889V66.5874C90.2097 66.5874 90.2097 66.5872 90.2097 65.8889C90.2097 65.1906 90.2097 65.191 89.417 64.4927C90.2097 65.8892 90.2097 65.191 90.2097 64.4927Z" fill="white"/>
<path d="M91.7946 65.8889C91.7946 66.5872 91.002 66.5873 91.002 67.2856C91.7946 65.889 91.7946 65.8889 91.7946 65.8889Z" fill="white"/>
<path d="M91.7949 64.4927C91.7949 63.7945 92.5876 62.3977 92.5876 61.6995C92.5876 61.6995 91.7949 63.0959 91.7949 63.7942V64.4927Z" fill="white"/>
<path d="M92.5878 61.0015C91.7951 61.6997 91.7951 62.3977 91.7951 62.3977C91.0025 61.6994 91.7951 61.0015 92.5878 61.0015Z" fill="white"/>
<path d="M91.7946 64.4927C91.0019 64.4927 91.002 65.1908 91.002 65.1908L91.7946 64.4927C91.7946 65.191 91.7946 64.4927 91.7946 64.4927Z" fill="white"/>
<path d="M23.6247 63.0962C23.6247 63.7945 24.4174 64.4927 22.832 65.191C22.832 65.191 22.832 65.1908 22.832 65.8891C22.832 65.8891 22.832 65.8893 22.832 66.5876V65.8891C24.4174 64.4925 23.6247 63.0962 23.6247 63.0962C23.6247 62.398 23.6247 63.0962 23.6247 63.0962Z" fill="white"/>
<path d="M27.5877 65.191C27.5877 65.191 26.795 64.4927 27.5877 65.191V65.191Z" fill="white"/>
<path d="M26.0029 66.5877C26.7956 66.5877 26.7956 65.8894 26.0029 66.5877C26.0029 65.8894 26.0029 66.5877 26.0029 66.5877Z" fill="white"/>
<path d="M25.21 67.2855C25.21 67.2855 26.0026 67.2855 25.21 67.2855C26.0026 67.2855 26.0026 66.5874 26.7953 66.5874C26.0026 66.5874 25.21 66.5872 25.21 67.2855Z" fill="white"/>
<path d="M28.3806 63.7942C27.5879 63.7942 27.5879 63.7944 27.5879 64.4927C27.5879 64.4927 28.3806 64.4925 28.3806 63.7942C28.3806 64.4925 28.3806 63.7942 28.3806 63.7942Z" fill="white"/>
<path d="M28.3806 62.3975C27.588 63.0957 27.588 63.0957 28.3806 62.3975C27.588 63.0957 28.3806 63.0957 28.3806 62.3975Z" fill="white"/>
<path d="M26.0024 61.0015H25.2097L24.417 61.6996C24.417 61.6996 24.417 61.0015 25.2097 61.0015C26.0024 61.6997 26.795 61.0015 26.0024 61.0015Z" fill="white"/>
<path d="M29.1736 61.0015C29.1736 61.6997 28.3809 61.6997 29.1736 61.0015C29.1736 61.6997 29.1736 61.6997 29.1736 61.0015Z" fill="white"/>
<path d="M98.9289 52.6218C98.9289 53.3201 98.9289 53.3201 98.9289 52.6218C98.9289 75.665 80.6973 94.5184 57.7096 95.2167C57.7096 95.2167 57.7096 95.2167 56.917 95.2167C33.9293 95.2167 15.6977 77.0617 14.905 54.0185V53.3199C14.905 30.2767 33.1366 12.1215 56.1243 11.4232C56.1243 11.4232 56.1243 11.4232 56.917 11.4232C79.9046 11.4232 98.9289 30.2769 98.9289 52.6218C98.9289 29.5786 79.9046 10.7251 56.917 10.7251C56.917 10.7251 56.9169 10.7251 56.1243 10.7251C33.1366 10.7251 14.1123 29.5785 14.1123 53.3199V54.0185C14.1123 77.0617 33.1366 95.9152 56.1243 95.9152C56.1243 95.9152 56.1243 95.9152 56.917 95.9152C80.6973 95.2169 99.7216 76.3633 98.9289 52.6218C99.7216 53.3201 99.7216 53.3201 98.9289 52.6218Z" fill="white"/>
<path d="M98.9286 57.5101C98.9286 58.2083 97.3433 58.9063 96.5506 58.9063C95.7579 58.9063 94.9652 59.6048 94.1725 59.6048C92.5872 59.6048 91.7945 60.3032 90.2092 61.0014C90.2092 60.3032 91.0018 58.9064 91.0018 58.2082C91.7945 54.7168 91.7945 50.5273 91.0018 47.0359C91.0018 47.0359 89.4165 40.7512 87.8311 37.2598C84.6604 32.3718 81.4897 27.4837 75.9409 23.9923C75.9409 23.9923 83.8677 30.2769 87.8311 39.3546C87.8311 39.3546 86.2457 37.958 85.4531 39.3546C85.4531 39.3546 84.6604 40.0529 85.4531 40.7512V41.4493C84.6604 42.1476 84.6604 42.8462 84.6604 43.5445C84.6604 44.2428 84.6604 44.9407 84.6604 44.9407C85.4531 45.639 86.2458 45.6392 86.2458 45.6392C86.2458 45.6392 87.0384 51.9237 87.0384 54.7168L84.6604 56.8115C84.6604 56.8115 84.6604 55.415 84.6604 54.7168C84.6604 51.2254 84.6604 48.4321 83.8677 44.9407C83.8677 43.5441 83.0751 42.1476 82.2824 41.4493C82.2824 41.4493 83.075 44.2427 83.8677 45.6392C84.6604 48.4323 84.6604 51.9237 84.6604 54.7168C84.6604 55.415 84.6604 56.1132 84.6604 56.8115L87.8311 54.0187C87.8311 54.0187 87.8311 54.7168 88.6238 54.7168H89.4165C90.2091 54.7168 90.2091 54.7168 91.0018 54.7168C90.2091 54.7168 90.2092 54.7168 90.2092 54.7168C91.0018 54.7168 91.0018 54.7168 91.0018 54.7168V55.4149V56.1134V56.8115C91.0018 56.8115 90.2092 56.8117 90.2092 56.1134L91.0018 56.8115C91.0018 57.5098 91.0018 57.5101 91.0018 57.5101C90.2091 57.5101 90.2091 57.5101 89.4165 57.5101C89.4165 57.5101 90.2092 56.8118 90.2092 57.5101H89.4165C89.4165 57.5101 89.4165 57.5099 89.4165 58.2082H88.6238H87.8311C87.0384 58.9064 86.2457 60.3029 85.4531 60.3029C85.4531 60.3029 85.4531 60.3031 85.4531 59.6048C86.2457 58.2082 85.4531 57.5101 85.4531 57.5101C85.4531 58.2083 85.4531 58.9066 84.6604 61.0014C84.6604 61.6997 86.2458 60.3029 86.2458 60.3029C87.8311 58.9064 87.8311 58.9063 87.8311 58.9063C87.8311 60.3028 87.0384 62.3978 87.0384 63.7943C87.0384 64.4926 86.2458 65.191 86.2458 66.5876V67.2857C86.2458 67.984 87.0384 67.984 87.8311 67.2857C86.2457 71.4754 83.075 74.2685 79.9043 77.7599C79.1116 78.4582 78.319 79.1564 77.5263 79.8546C76.7336 79.1564 77.5263 77.0615 77.5263 76.3632C78.319 74.9667 79.1116 73.5705 79.9043 71.4756C79.9043 70.7774 80.697 70.0787 80.697 69.3805C81.4897 67.2856 81.4897 67.2857 81.4897 67.2857H82.2824C82.2824 67.2857 81.4897 70.0788 80.697 70.7771C79.9043 72.1737 79.9043 72.8719 79.1116 74.2685C79.1116 74.9668 78.319 75.665 77.5263 76.3632C76.7336 77.7598 76.7336 78.4581 76.7336 79.8546C76.7336 77.7598 78.319 76.3633 79.1116 74.2685C79.9043 72.1737 81.4897 70.0788 82.2824 67.2857C82.2824 66.5874 82.2824 66.5873 82.2824 65.8891C82.2824 65.8891 82.2824 65.8892 82.2824 65.191L83.075 64.4928V65.191C83.075 65.191 82.2824 65.8891 83.075 65.8891C83.075 65.8891 83.075 65.8893 83.075 66.5876C83.075 66.5876 82.2824 67.2859 82.2824 66.5876C81.4897 66.5876 80.697 66.5876 80.697 66.5876C79.9043 67.2859 79.1116 67.984 79.1116 67.2857C79.1116 67.2857 79.9043 67.2859 79.9043 66.5876C80.697 65.8893 83.075 65.8891 83.075 65.8891H83.8677C83.075 65.8891 81.4897 66.5874 79.9043 67.2857C80.697 66.5874 80.697 66.5873 80.697 65.8891C80.697 65.8891 82.2824 64.4926 83.075 63.7943C83.8677 63.096 83.075 63.7945 83.8677 63.0962C84.6604 61.6996 85.4531 58.9064 85.4531 56.8115C85.4531 54.0184 85.4531 51.9237 85.4531 49.1306C84.6604 46.3375 84.6604 43.5443 83.075 40.7512C83.075 40.7512 83.075 40.0529 83.075 40.7512C81.4897 41.4495 78.319 41.4493 77.5263 41.4493C76.7336 41.4493 76.7336 41.4495 76.7336 40.7512L75.9409 38.6564C79.9043 39.3547 81.4897 37.9583 82.2824 36.5617C82.2824 35.8634 80.697 33.7684 80.697 33.7684C79.1117 27.4839 81.4897 27.4837 81.4897 27.4837C81.4897 27.4837 78.319 26.7855 79.9043 32.3718C78.319 30.2769 76.7336 28.8804 76.7336 28.8804C76.7336 29.5786 76.7336 29.5789 76.7336 29.5789C75.9409 28.8806 74.3556 28.8804 73.5629 28.8804V28.1823C75.1482 28.8805 75.9409 28.1823 75.9409 28.1823C75.1482 28.1823 73.5629 27.4837 72.7702 27.4837C72.7702 26.7854 71.9775 25.3892 71.9775 26.0875C71.9775 26.7858 72.7702 28.1821 72.7702 28.8804L71.9775 28.1823V28.8804L71.1849 28.1823V28.8804C70.3922 28.8804 69.5995 28.182 69.5995 27.4837C69.5995 27.4837 69.5995 26.7856 70.3922 26.7856C71.1849 26.7856 71.1849 25.389 71.1849 25.389C71.1849 25.389 71.1849 26.0875 70.3922 26.0875V25.389L68.8068 24.6909C68.8068 24.6909 69.5995 24.6907 70.3922 25.389C71.1849 26.0873 70.3922 26.7856 70.3922 26.7856L69.5995 26.0875C69.5995 26.0875 68.8068 26.0873 68.8068 25.389L69.5995 26.0875L70.3922 26.7856C70.3922 26.7856 70.3922 26.7854 70.3922 27.4837C70.3922 26.7854 69.5995 26.7856 69.5995 26.7856C69.5995 26.7856 68.8068 26.0873 68.0141 25.389C67.2215 24.6907 65.6361 23.2944 64.8434 22.5961C65.6361 23.2944 66.4288 24.6907 67.2215 25.389C68.0141 25.389 68.8068 26.0875 68.8068 26.0875C68.8068 26.7858 67.2215 27.4837 67.2215 27.4837C68.0141 27.4837 68.0142 27.4837 68.8068 27.4837L69.5995 26.7856C70.3922 27.4839 71.1849 28.1823 71.1849 28.1823C71.1849 28.1823 71.1848 28.8804 71.9775 28.8804C72.7702 29.5786 74.3556 30.277 75.1483 30.277C75.9409 30.277 79.1116 31.6737 79.9043 31.6737C79.9043 31.6737 82.2824 34.4666 83.075 35.8632C83.075 36.5614 83.8677 38.6564 83.8677 38.6564C82.2823 40.053 79.1116 40.0531 79.1116 40.0531L78.319 39.3546C78.319 39.3546 77.5263 37.9582 77.5263 38.6564C77.5263 38.6564 78.319 40.0527 78.319 41.4493V42.1478C78.319 42.1478 78.319 41.4496 78.319 42.1478V42.8459C78.319 43.5442 79.1116 43.5445 79.1116 43.5445C79.1116 44.2428 79.9043 45.6391 79.9043 46.3373C79.9043 47.0356 81.4897 49.1305 81.4897 49.8287C81.4897 50.527 81.4897 51.2252 82.2824 51.9235C82.2824 53.32 83.075 58.9063 83.075 58.9063C83.075 60.3028 83.0751 61.6996 82.2824 63.0962C82.2824 63.7945 81.4897 65.8893 78.319 66.5876C77.5263 66.5876 77.5263 66.5876 76.7336 66.5876C77.5263 65.8893 78.319 65.1911 78.319 64.4928C78.319 64.4928 76.7336 66.5876 75.9409 66.5876C76.7336 65.8893 76.7336 65.8894 77.5263 64.4928C77.5263 64.4928 77.5263 63.7943 78.319 63.7943C78.319 63.096 78.319 62.3977 78.319 62.3977C78.319 63.0959 79.1116 63.096 79.1116 63.7943C79.1116 63.096 78.319 62.3978 78.319 61.6996C78.319 61.0013 77.5263 61.0012 77.5263 60.3029C76.7336 59.6046 75.9409 58.9063 74.3556 58.9063L72.7702 58.2082C71.9775 58.2082 71.9775 57.5101 71.1849 57.5101C71.1849 57.5101 71.1849 57.5101 70.3922 57.5101C69.5995 56.8118 68.0141 57.5101 68.0141 57.5101C67.2215 56.8118 65.6361 56.1134 65.6361 56.1134C65.6361 55.4151 66.4288 54.7169 66.4288 54.0187C66.4288 53.3204 68.0141 51.9235 68.0141 51.9235C68.0141 51.9235 67.2215 50.527 67.2215 49.8287C68.0141 49.8287 68.8068 49.1306 68.8068 49.1306C68.8068 49.1306 65.6361 50.5269 64.8434 48.4321C64.8434 48.4321 64.8434 48.4323 64.8434 47.734V47.0359L65.6361 44.9407C65.6361 44.2424 64.8434 42.8459 64.0507 42.8459C64.0507 42.8459 64.8434 43.5443 64.8434 44.2426C64.0508 44.2426 62.4654 44.941 61.6727 45.6392C60.0874 46.3375 60.0874 46.3376 58.502 47.0359C57.7093 47.0359 54.5386 48.4323 51.3679 47.734C51.3679 47.734 50.5752 47.7342 49.7825 47.0359C49.7825 47.0359 49.7825 46.3375 49.7825 45.6392C49.7825 44.941 50.5752 42.8461 51.3679 42.1478C52.9533 39.3547 54.5386 37.2599 56.124 35.165C56.124 34.4668 56.9167 33.7684 56.9167 33.7684C57.7093 33.0701 59.2947 32.3718 58.502 32.3718C59.2947 31.6735 60.0874 31.6734 61.6727 30.9751C61.6727 30.9751 61.6727 31.6737 62.4654 31.6737C64.0508 31.6737 64.8434 32.3718 65.6361 32.3718C66.4288 33.07 66.4288 35.165 66.4288 35.165C66.4288 35.165 66.4288 35.8633 65.6361 35.165C65.6361 35.165 65.6361 33.7683 64.8434 32.3718C64.8434 32.3718 64.0507 32.3719 64.0507 31.6737C64.8434 31.6737 64.8434 32.3718 64.8434 32.3718C64.8434 33.07 65.6361 33.07 65.6361 34.4665C65.6361 34.4665 64.8434 35.165 64.8434 33.7684C64.8434 33.0701 64.0507 32.3718 64.0507 32.3718C64.0507 32.3718 62.4654 31.6737 60.88 33.0703C61.6727 33.0703 64.0508 31.6736 64.8434 33.7684C64.0508 33.7684 64.0508 33.7684 63.2581 33.7684C62.4654 33.7684 61.6727 33.7684 60.88 33.7684C60.0874 33.7684 60.0874 33.7682 59.2947 34.4665C58.502 35.1648 58.502 36.5615 57.7093 37.2598V37.9579C57.7093 38.6562 56.9166 40.0531 56.124 40.0531C56.124 40.7514 55.3313 41.4496 55.3313 42.1478C56.124 41.4496 56.9167 40.0531 56.9167 40.0531C57.7093 39.3548 59.2947 38.6562 60.0874 37.9579C61.6727 36.5614 63.2581 35.165 64.8434 33.7684C64.8434 33.7684 64.8434 33.7684 65.6361 33.7684C65.6361 33.7684 66.4288 34.4667 66.4288 33.7684C66.4288 33.0701 66.4288 31.6737 65.6361 31.6737C65.6361 31.6737 66.4288 32.3717 66.4288 34.4665C66.4288 34.4665 67.2215 34.4668 67.2215 35.165V34.4665C67.2215 34.4665 67.2215 34.4667 67.2215 33.7684C67.2215 33.0701 67.2215 32.3718 67.2215 32.3718C66.4288 31.6735 65.6361 30.9751 64.8434 30.9751C64.8434 30.9751 64.0508 30.9751 63.2581 30.9751C62.4654 30.9751 62.4654 30.9753 62.4654 30.277C62.4654 30.277 62.4654 30.2772 62.4654 29.5789V28.8804C62.4654 28.8804 62.4654 28.8804 63.2581 28.8804C63.2581 28.8804 63.2581 28.8804 64.0507 28.8804C64.0507 28.8804 64.0508 28.8804 63.2581 28.8804C63.2581 28.8804 63.2581 28.8804 62.4654 28.8804V28.1823C63.2581 28.1823 63.2581 28.182 63.2581 27.4837C62.4654 28.182 62.4654 27.4837 62.4654 27.4837C61.6727 27.4837 61.6727 26.7856 61.6727 26.7856C61.6727 26.0873 62.4654 25.3891 62.4654 24.6909V23.9923C62.4654 23.2941 63.2581 21.8976 63.2581 21.8976H64.0507H63.2581C63.2581 21.8976 62.4654 23.2941 62.4654 23.9923C62.4654 23.2941 62.4654 22.5961 62.4654 22.5961C62.4654 22.5961 62.4654 22.5959 62.4654 21.8976V21.1995C63.2581 20.5012 64.8434 19.8028 65.6361 19.8028C68.8068 19.1046 71.1848 20.5012 71.9775 21.1995C73.5629 21.8978 73.5629 23.2943 73.5629 24.6909C73.5629 25.3891 72.7702 26.0873 72.7702 26.7856C71.9775 28.8805 73.5629 29.5789 73.5629 29.5789C72.7702 28.8806 72.7702 27.4839 73.5629 26.7856C73.5629 26.0873 73.5629 25.3891 74.3556 24.6909C74.3556 24.6909 74.3556 26.0873 74.3556 26.7856C74.3556 27.4839 74.3556 28.8806 76.7336 29.5789V28.8804C76.7336 28.1821 75.9409 28.1823 75.9409 28.1823C75.1482 28.1823 75.1483 27.4837 74.3556 27.4837V26.7856L75.9409 27.4837C76.7336 28.182 76.7336 26.7856 76.7336 26.7856C76.7336 26.0873 75.9409 26.0875 75.9409 26.0875C75.1482 26.0875 75.1483 26.0873 75.1483 25.389V24.6909H75.9409C76.7336 25.3891 76.7336 24.6909 76.7336 24.6909C76.7336 23.9926 75.9409 23.9923 75.9409 23.9923H75.1483V23.2942C75.9409 23.2942 76.7336 23.2942 76.7336 23.2942C76.7336 23.2942 77.5263 22.596 78.319 21.1995C78.319 20.5012 79.1116 19.803 79.1116 19.1047C79.1116 19.1047 79.9043 19.1045 79.9043 18.4062L79.1116 17.7081C78.319 17.7081 78.319 17.7081 78.319 17.7081C78.319 17.7081 78.319 17.7079 78.319 18.4062C78.319 18.4062 77.5263 20.5012 76.7336 21.1995L75.9409 21.8976L75.1483 21.1995C75.1483 20.5012 75.9409 19.1045 75.9409 18.4062C75.9409 17.7079 76.7336 17.7081 76.7336 17.7081C76.7336 17.7081 76.7336 17.0095 75.9409 17.0095C75.9409 17.0095 75.1483 17.0097 75.1483 16.3114H74.3556V17.0095C74.3556 17.0095 73.5629 18.4064 73.5629 19.1047C73.5629 19.803 72.7702 20.5009 72.7702 20.5009L71.9775 19.8028C71.9775 19.1046 71.9775 18.4062 71.9775 18.4062C72.7702 18.4062 72.7702 17.0097 72.7702 16.3114C71.9775 15.6132 71.1849 15.6133 70.3922 15.6133H69.5995H68.8068C68.8068 16.3116 68.8068 16.3113 68.8068 17.0095C68.8068 17.7078 68.0141 18.4064 68.0141 19.1047C67.2215 19.1047 65.6361 19.1047 64.8434 19.1047V18.4062V17.7081L64.0507 18.4062L63.2581 19.1047H62.4654C62.4654 19.1047 62.4654 17.7078 62.4654 17.0095C63.2581 17.0095 63.2581 17.0098 63.2581 17.7081C63.2581 17.7081 63.2581 17.0097 63.2581 16.3114H62.4654H61.6727C61.6727 15.6132 61.6727 15.6131 61.6727 14.9148H62.4654C62.4654 14.9148 63.2581 14.9151 63.2581 15.6133C63.2581 15.6133 63.2581 16.3114 64.0507 16.3114C64.0507 16.3114 64.0507 16.3116 64.0507 15.6133V14.9148H61.6727C61.6727 14.9148 60.88 14.9148 60.0874 14.9148V15.6133C60.0874 16.3116 60.0874 18.4062 60.0874 18.4062C60.0874 18.4062 60.0874 19.1046 60.0874 19.8028C60.0874 19.8028 62.4654 19.8028 63.2581 19.8028C63.2581 19.8028 62.4654 19.8027 62.4654 20.5009L61.6727 21.1995V21.8976V22.5961C61.6727 23.2944 61.6727 23.2941 61.6727 23.9923C61.6727 24.6906 61.6727 24.6909 61.6727 24.6909L60.88 26.0875C60.88 26.7858 60.0874 26.7854 60.88 27.4837H61.6727C61.6727 27.4837 60.88 28.1823 61.6727 28.1823C61.6727 28.1823 61.6727 28.8806 61.6727 29.5789C60.88 29.5789 60.0874 29.5787 60.0874 30.277C59.2947 30.277 59.2947 30.9751 58.502 30.9751C58.502 30.9751 56.9166 31.6736 56.124 33.7684C56.124 33.7684 55.3313 34.4668 55.3313 35.165C52.9533 37.2599 51.3679 40.0531 50.5752 43.5445C50.5752 44.2428 49.7826 45.6391 50.5752 46.3373C48.9899 46.3373 46.6118 46.3373 45.0265 46.3373C44.2338 46.3373 42.6484 46.3373 41.8558 46.3373C41.0631 46.3373 40.2704 46.3373 40.2704 46.3373C41.0631 46.3373 41.8558 46.3373 43.4411 46.3373C44.2338 46.3373 49.7826 46.3373 50.5752 46.3373H51.3679C52.1606 47.0356 52.1606 46.3376 52.9533 47.0359C53.7459 47.0359 55.3313 47.0359 56.124 47.0359C56.9166 47.0359 58.502 47.0359 58.502 47.0359C60.0874 47.0359 62.4654 47.0359 64.0507 47.0359C62.4654 47.0359 60.88 47.0359 60.0874 47.0359C60.0874 47.0359 65.6361 44.9409 66.4288 44.2426C66.4288 44.2426 66.4288 44.2424 66.4288 44.9407C66.4288 45.639 66.4288 46.3376 66.4288 47.0359C66.4288 47.0359 66.4288 47.0357 66.4288 47.734C66.4288 48.4323 67.2215 48.4321 67.2215 48.4321C68.0141 49.1304 68.8068 49.8287 69.5995 49.8287C69.5995 50.527 70.3922 51.9235 70.3922 51.9235C70.3922 51.9235 68.8068 54.0186 68.0141 56.1134H67.2215C67.2215 55.4151 66.4288 54.7168 66.4288 54.7168L65.6361 54.0187H64.8434C62.4654 54.0187 60.0874 53.3201 58.502 53.3201C57.7093 53.3201 56.9166 53.3201 55.3313 53.3201C55.3313 54.0184 56.124 54.0185 56.124 54.7168C55.3313 54.7168 54.5386 54.7168 54.5386 54.7168L55.3313 55.4149C54.5386 55.4149 53.7459 55.415 52.9533 56.8115C52.9533 56.8115 52.1606 57.5099 52.1606 58.2082C52.1606 58.2082 51.3679 58.9065 51.3679 59.6048C51.3679 59.6048 51.3679 59.6048 52.1606 59.6048C52.1606 59.6048 49.7825 61.6996 49.7825 63.0962C49.7825 64.4928 49.7826 66.5874 50.5752 67.2857C50.5752 67.984 51.3679 72.1738 51.3679 73.5704C51.3679 73.5704 51.3679 77.7601 51.3679 78.4584C51.3679 79.1567 51.3679 79.1565 51.3679 79.1565C52.1606 79.1565 52.1606 79.1564 52.9533 79.8546C52.9533 79.8546 53.7459 79.8549 53.7459 80.5532V81.2513C53.7459 81.9496 55.3313 81.2513 56.124 81.2513C56.9166 81.2513 57.7093 81.2513 59.2947 81.2513H60.88C61.6727 81.2513 61.6727 81.2513 61.6727 81.2513C61.6727 81.2513 62.4654 80.5529 62.4654 79.8546C62.4654 80.5529 63.2581 81.2513 63.2581 81.2513C63.2581 81.2513 61.6727 82.6478 61.6727 83.346V84.0446C57.7093 84.0446 48.9899 83.346 48.1972 83.346C47.4045 83.346 48.1972 83.346 48.1972 83.346C51.3679 83.346 60.8801 83.346 62.4654 83.346V84.0446C62.4654 84.0446 60.88 85.4409 60.88 86.8374C60.88 87.5357 60.88 87.536 61.6727 87.536C61.6727 87.536 60.88 88.2341 59.2947 88.2341C52.9533 86.8375 46.6118 83.3462 41.8558 79.1565C39.4777 76.3634 37.0997 73.5702 35.5143 70.7771C35.5143 70.7771 34.7216 71.4755 33.929 72.1737V71.4756V70.7771L34.7217 70.079C34.7217 70.079 35.5143 69.3806 35.5143 68.6823L36.307 67.9842C36.307 67.9842 36.307 67.2857 37.0997 67.2857C37.8924 67.2857 37.8924 66.5876 37.8924 66.5876V65.8891C37.8924 65.1908 37.8924 64.4928 37.8924 64.4928C37.8924 63.7946 38.685 63.7945 37.8924 63.0962V62.3977C37.8924 61.6994 37.8924 61.0011 36.307 62.3977C36.307 62.3977 36.307 62.3977 35.5143 62.3977C35.5143 62.3977 34.7217 62.3979 34.7217 63.0962C34.7217 63.0962 34.7216 63.0962 33.929 63.0962C33.929 63.0962 33.929 63.0962 33.1363 63.0962H32.3436V62.3977C30.7583 55.4149 31.551 47.7338 34.7217 41.4493C37.0997 37.2596 39.4777 33.0701 42.6485 30.277C37.0997 35.165 33.1363 41.4493 31.5509 48.4321C29.9656 53.32 29.9656 58.9066 31.5509 64.4928C31.5509 64.4928 32.3436 63.7943 33.1363 63.7943C34.7217 63.7943 33.929 63.0962 34.7217 63.0962C34.7217 63.0962 34.7217 62.3979 35.5143 63.0962C35.5143 63.0962 35.5143 63.0962 36.307 63.0962C36.307 63.0962 37.0997 62.3977 37.8924 62.3977C37.8924 62.3977 37.8924 62.3979 37.8924 63.0962V63.7943C38.685 63.7943 37.8924 64.4928 37.8924 64.4928C37.8924 64.4928 37.8924 65.191 37.0997 65.191C37.0997 65.191 37.0997 65.8893 37.0997 66.5876V67.2857L36.307 67.9842C36.307 67.9842 36.307 67.9841 36.307 68.6823V69.3805L35.5143 70.079C35.5143 70.079 35.5143 70.7771 34.7217 70.7771C34.7217 70.7771 33.929 70.7774 33.929 71.4756C33.1363 71.4756 33.929 72.1737 33.929 72.1737C33.929 72.1737 33.929 72.1737 33.1363 72.1737C33.1363 72.1737 33.1363 72.8718 32.3436 72.8718C32.3436 72.1736 32.3436 71.4755 33.1363 70.079C33.1363 68.6824 33.929 67.984 34.7217 67.2857C35.5143 65.8891 36.307 64.4926 37.0997 63.7943C36.307 65.1909 33.929 70.079 33.1363 70.079C33.1363 70.079 33.1363 70.079 32.3436 70.079V69.3805C32.3436 69.3805 31.5509 70.0788 32.3436 70.7771V72.1737V72.8718C32.3436 72.1736 31.5509 72.1739 31.5509 71.4756C31.5509 71.4756 31.5509 71.4754 31.5509 70.7771V70.079C31.5509 70.079 32.3436 69.3806 31.5509 68.6823C30.7583 67.9841 31.5509 67.2857 31.5509 67.2857C31.5509 67.2857 32.3436 67.2859 32.3436 66.5876C32.3436 66.5876 32.3436 66.5873 32.3436 65.8891C32.3436 65.1908 32.3436 65.1911 33.1363 64.4928L32.3436 63.7943C31.5509 63.096 29.9656 63.0962 29.1729 63.0962C27.5876 63.0962 26.0022 62.398 25.2095 61.0014V61.6996C26.0022 62.3978 26.0022 62.3979 26.7949 63.0962C27.5876 63.0962 27.5875 63.7943 28.3802 63.7943C27.5875 63.7943 27.5875 64.4928 27.5875 64.4928V65.191C27.5875 65.8892 27.5875 65.8891 27.5875 65.8891C27.5875 66.5873 27.5875 67.2857 28.3802 67.2857V67.9842C28.3802 68.6825 29.1729 70.0788 29.9656 70.7771C29.9656 71.4754 30.7583 71.4756 30.7583 71.4756C30.7583 71.4756 31.5509 71.4755 31.5509 72.1737C30.7583 71.4755 29.1729 70.7773 28.3802 70.079V70.7771C32.3436 75.665 37.0997 72.872 37.0997 72.1737C39.4777 77.0617 43.4411 81.2513 48.1972 84.7427C52.1606 86.8375 56.124 88.9323 60.0874 90.3288C60.0874 91.0271 60.0874 91.7255 60.88 91.7255H61.6727C61.6727 93.122 64.0507 91.7256 64.0507 91.0274C64.0507 91.0274 61.6727 92.4237 61.6727 91.7255C61.6727 91.7255 61.6727 91.7256 61.6727 91.0274L62.4654 90.3288C61.6727 91.0271 60.88 91.0274 60.88 91.0274C60.0874 91.0274 60.0874 91.0271 60.0874 90.3288V89.6307C60.88 89.6307 60.88 89.6307 61.6727 89.6307C64.0508 88.9324 66.4288 86.8376 66.4288 86.1393C68.8068 85.441 71.9775 84.7427 71.9775 84.7427C70.3922 84.7427 68.0142 85.441 64.8434 86.1393C64.0508 86.8376 63.2581 86.8377 63.2581 87.536H64.0507C64.0507 86.8377 65.6361 86.8374 65.6361 86.8374C65.6361 86.8374 64.8434 88.2343 64.0507 88.9326C64.0507 88.9326 63.2581 89.6309 63.2581 88.9326C63.2581 88.2343 64.0508 86.8376 64.8434 86.1393C64.8434 86.1393 64.8434 86.1395 64.8434 85.4412V84.7427V84.0446C64.8434 83.3463 65.6361 83.3462 65.6361 82.6479C65.6361 81.9496 66.4288 81.9498 65.6361 81.9498C65.6361 81.2515 64.8434 81.2514 64.8434 80.5532H64.0507C64.0507 80.5532 63.2581 81.9498 62.4654 81.9498H60.88C60.88 81.9498 60.0874 81.9498 59.2947 81.9498C58.502 81.9498 57.7093 81.9498 57.7093 81.9498C56.9166 81.9498 56.9166 81.9498 56.124 81.9498C56.124 81.9498 55.3313 81.9496 55.3313 81.2513L54.5386 80.5532C53.7459 80.5532 52.9533 80.5529 52.9533 79.8546V79.1565C52.9533 78.4582 52.9533 75.6653 52.9533 74.967C52.9533 72.8722 52.9532 70.7772 52.1606 68.6823C52.1606 67.9841 51.3679 66.5873 51.3679 65.8891C51.3679 62.3977 54.5386 61.0014 54.5386 61.0014C55.3313 61.0014 57.7093 61.0014 57.7093 61.0014C56.9166 61.0014 52.9533 62.3977 53.7459 65.8891C53.7459 67.2856 54.5386 68.6824 55.3313 70.079C56.124 71.4755 58.502 74.2685 58.502 74.2685C56.9167 72.8719 55.3313 70.0789 54.5386 68.6823C52.1606 63.7944 54.5386 62.3977 55.3313 62.3977C56.124 61.6994 58.502 61.0014 58.502 61.0014C58.502 61.6997 60.0874 61.6996 60.0874 61.6996L64.0507 65.8891C66.4288 65.8891 65.6361 65.8891 70.3922 65.8891C71.1849 65.8891 75.9409 65.8892 75.9409 65.191C75.9409 65.191 75.9409 64.4926 75.9409 63.7943C75.9409 63.096 75.1483 62.3977 75.1483 62.3977C75.1483 61.6994 74.3556 61.6997 74.3556 61.0014C75.1483 61.6997 75.9409 62.3979 75.9409 63.0962C75.1482 61.0014 73.5629 61.0014 73.5629 61.0014C73.5629 61.0014 73.5629 60.3029 72.7702 60.3029C72.7702 60.3029 72.7702 59.6048 71.9775 59.6048C72.7702 58.9065 74.3556 59.6048 74.3556 59.6048C75.1483 59.6048 75.1482 59.6046 75.9409 60.3029C76.7336 60.3029 77.5263 61.0014 77.5263 61.0014C78.319 61.0014 79.1116 61.6994 79.9043 62.3977C79.9043 63.0959 80.697 63.096 81.4897 63.7943C82.2824 65.1909 82.2824 65.8891 81.4897 67.2857C81.4897 67.984 79.9043 69.3805 77.5263 69.3805C76.7336 69.3805 75.9409 69.3805 75.1483 69.3805C72.7702 69.3805 66.4288 68.6823 65.6361 68.6823C64.8434 68.6823 64.0508 67.984 63.2581 67.2857C62.4654 66.5874 61.6727 65.8892 60.88 65.191C60.0874 63.7944 58.502 63.0962 58.502 63.0962L60.0874 65.191C60.88 65.8892 61.6727 67.9842 62.4654 67.9842C62.4654 67.9842 60.0874 67.2858 58.502 65.191L59.2947 65.8891L58.502 65.191H57.7093C57.7093 65.8892 60.0874 66.5874 61.6727 67.2857C61.6727 67.2857 59.2947 66.5874 58.502 67.2857C57.7093 67.984 54.5386 67.2857 54.5386 67.2857C56.9167 67.984 58.502 67.9842 60.0874 67.9842C60.88 67.9842 60.88 67.9842 61.6727 67.9842H62.4654C62.4654 67.9842 62.4654 67.9842 63.2581 67.9842C64.0508 69.3808 64.8434 70.777 64.8434 72.8718C64.8434 74.2684 63.2581 74.9669 61.6727 75.6651C61.6727 75.6651 63.2581 76.3633 64.8434 74.2685C65.6361 72.8719 64.8434 70.079 64.8434 70.079C65.6361 70.7773 66.4288 72.1738 65.6361 73.5704C65.6361 74.2687 65.6361 75.665 64.8434 76.3632V77.0618C64.8434 77.0618 66.4288 76.3635 66.4288 73.5704C66.4288 73.5704 66.4288 73.5702 66.4288 74.2685C66.4288 75.665 66.4288 77.0616 67.2215 77.7599C67.2215 77.7599 67.2215 75.665 67.2215 74.2685L68.8068 75.6651C68.8068 76.3634 68.0141 77.7601 68.0141 78.4584V80.5532C68.0141 81.2514 68.8068 82.6478 68.8068 83.346C68.8068 84.0443 69.5995 84.7428 70.3922 86.1393C70.3922 86.8376 70.3922 87.5358 69.5995 88.2341L66.4288 90.3288C65.6361 91.0271 64.0507 91.0274 64.0507 91.0274L63.2581 91.7255C62.4654 91.7255 63.2581 91.0274 63.2581 91.0274C63.2581 91.0274 62.4654 91.7255 61.6727 91.7255C60.88 91.7255 61.6727 91.7256 61.6727 91.0274L62.4654 90.3288L60.88 91.0274C60.0874 91.0274 60.0874 91.0274 60.0874 91.0274C60.0874 91.0274 60.0874 91.7255 60.88 91.7255C60.88 92.4237 61.6727 92.4237 62.4654 91.7255C62.4654 93.122 64.0507 91.7255 64.0507 91.7255C65.6361 91.7255 66.4288 91.0271 66.4288 90.3288L68.8068 89.6307H69.5995C69.5995 90.329 70.3922 90.3288 70.3922 90.3288C71.1849 91.0271 72.7702 89.6309 72.7702 88.9326C79.1117 87.536 84.6604 83.3462 88.6238 79.1565C92.5872 74.9669 94.9652 70.0791 96.5506 64.4928C96.5506 64.4928 97.3432 64.4926 97.3432 63.7943V64.4928C97.3432 65.1911 97.3432 64.4928 97.3432 64.4928C98.1359 63.7946 99.7213 62.3977 99.7213 62.3977C99.7213 63.0959 99.7213 63.7946 99.7213 64.4928C99.7213 65.1911 99.7213 65.8893 98.9286 66.5876C98.9286 66.5876 98.9286 66.5875 98.1359 68.6823C98.1359 69.3806 98.9286 70.079 98.9286 70.079C98.9286 70.079 98.9286 69.3806 99.7213 68.6823C99.7213 68.6823 99.7213 68.6825 99.7213 67.9842C99.7213 67.9842 102.099 63.0961 102.892 61.6996C103.685 61.0013 103.685 61.0012 104.477 60.3029C104.477 62.3978 103.685 64.4928 102.892 66.5876C102.892 67.2859 102.099 67.286 102.099 67.9842V67.2857C102.099 67.2857 101.307 67.286 101.307 67.9842C101.307 67.286 102.099 66.5873 102.099 65.8891C102.892 65.1908 102.892 64.4926 102.892 63.7943C102.892 63.096 103.685 61.6997 103.685 61.0014C102.892 61.6997 102.099 63.096 102.099 63.7943C102.099 63.096 102.099 63.0962 102.892 63.0962C102.892 63.0962 102.892 63.096 102.892 63.7943C102.892 63.7943 102.892 64.4927 102.099 65.191L101.307 66.5876C101.307 66.5876 101.307 67.2857 100.514 67.2857C100.514 67.984 99.7213 68.6822 99.7213 69.3805C100.514 68.6822 100.514 67.9842 101.307 67.9842H102.099C102.099 67.9842 102.892 68.6822 101.307 69.3805H100.514C99.7213 69.3805 99.7213 69.3805 99.7213 69.3805C101.307 69.3805 102.099 69.3806 102.892 68.6823C102.892 69.3806 102.099 69.3805 101.307 69.3805L102.099 68.6823V67.9842C102.099 67.9842 102.892 67.2859 102.892 66.5876C103.685 64.4928 104.477 62.3978 104.477 60.3029C98.1359 58.9064 98.9286 58.9066 98.9286 57.5101ZM86.2458 44.9407C87.0384 45.639 87.0384 45.6392 87.0384 45.6392C86.2458 45.6392 84.6604 45.6393 85.4531 43.5445C85.4531 42.8462 86.2458 41.4493 86.2458 41.4493H87.0384H87.8311C87.8311 41.4493 87.8311 40.751 87.0384 41.4493C87.0384 41.4493 86.2458 41.4493 87.0384 41.4493C87.0384 41.4493 87.0384 41.4493 87.8311 41.4493C87.8311 40.751 88.6238 41.4493 88.6238 41.4493C88.6238 41.4493 88.6238 40.751 87.8311 41.4493C87.8311 41.4493 87.8311 42.1478 87.0384 42.1478C86.2458 42.1478 86.2458 41.4495 86.2458 40.7512C86.2458 40.0529 87.8311 40.7512 87.8311 40.7512C87.8311 40.7512 88.6238 40.751 88.6238 41.4493C89.4165 42.1476 90.2091 46.3373 91.0018 48.4321C91.0018 47.0355 89.4165 45.639 87.8311 44.9407C88.6238 45.639 90.2092 47.0355 90.2092 48.4321C90.2092 47.0355 87.8311 44.2424 86.2458 44.9407ZM90.2092 55.4149C90.2092 55.4149 88.6238 56.1133 88.6238 54.7168C88.6238 51.9237 87.8311 45.639 87.8311 44.9407C87.8311 44.9407 88.6238 44.941 88.6238 45.6392C89.4165 45.6392 89.4165 46.3376 89.4165 47.0359C89.4165 48.4324 89.4165 49.8288 90.2092 51.2254C90.2092 51.9237 90.2092 53.32 90.2092 55.4149ZM90.2092 55.4149C90.2092 54.0183 90.2092 48.4321 90.2092 48.4321H91.0018C91.0018 50.5269 91.0018 53.32 90.2092 55.4149C91.0018 55.4149 90.2092 55.4149 90.2092 55.4149ZM60.88 33.0703C59.2947 33.7686 56.9166 35.8632 56.124 37.2598C55.3313 37.9581 54.5386 37.9582 53.7459 38.6564L56.124 33.0703H56.9167C57.7093 33.0703 58.502 33.0703 58.502 33.0703C59.2947 33.0703 60.0874 33.0703 60.88 33.0703ZM73.5629 27.4837C73.5629 27.4837 73.5629 28.182 73.5629 27.4837C72.7702 27.4837 72.7702 28.1822 71.9775 26.7856C71.9775 26.7856 72.7702 26.7854 73.5629 27.4837ZM71.9775 24.6909C71.9775 24.6909 72.7702 24.6909 71.9775 24.6909C73.5629 24.6909 72.7702 25.389 72.7702 25.389L71.9775 24.6909C71.1848 24.6909 71.9775 24.6909 71.9775 24.6909ZM66.4288 15.6133V14.9148C66.4288 14.9148 67.2215 14.9151 67.2215 15.6133C68.0141 15.6133 68.0142 16.3116 66.4288 15.6133C67.2215 16.3116 67.2215 16.3116 66.4288 15.6133ZM66.4288 17.0095H67.2215C67.2215 17.0095 67.2215 17.7079 67.2215 18.4062H66.4288C66.4288 17.7079 66.4288 17.0095 66.4288 17.0095ZM60.88 16.3114C60.88 17.0097 60.88 17.0097 60.88 16.3114C60.88 17.0097 60.88 17.0097 60.88 16.3114ZM22.0388 61.0014C22.0388 61.0014 22.8315 61.0014 22.0388 61.0014C22.8315 61.0014 22.8315 61.6996 23.6242 61.6996C23.6242 61.6996 22.0388 61.6996 22.8315 63.0962C22.8315 63.0962 22.0388 61.6997 22.0388 61.0014ZM20.4534 61.6996V61.0014C20.4534 61.0014 21.2461 61.0014 22.0388 61.0014C22.0388 61.6997 22.0388 62.3978 23.6242 63.7943L22.8315 64.4928C22.8315 65.1911 22.0388 65.8891 22.0388 65.8891C22.0388 65.8891 22.0388 65.8892 21.2461 65.191C21.2461 64.4927 22.0388 63.7945 22.0388 63.0962C22.0388 63.7945 21.2461 63.7946 21.2461 64.4928L20.4534 63.7943V63.0962C20.4534 62.3979 21.2461 62.3977 21.2461 62.3977C21.2461 62.3977 20.4534 62.3979 20.4534 63.0962C20.4534 62.3979 20.4534 62.3978 20.4534 61.6996ZM19.6608 66.5876L18.8681 65.8891C18.8681 65.8891 18.8681 65.8892 18.8681 65.191V64.4928V63.7943V63.0962V61.6996C18.8681 61.6996 18.8681 62.3979 18.8681 63.0962C18.8681 63.0962 18.8681 63.096 18.8681 63.7943V64.4928C18.8681 65.1911 18.8681 65.8891 18.8681 65.8891C18.8681 65.8891 19.6608 67.286 19.6608 67.9842C18.0754 66.5877 18.8681 65.191 18.8681 65.191V64.4928C18.8681 63.7946 18.8681 63.7945 18.8681 63.0962V62.3977C18.8681 61.6994 19.6608 61.0014 19.6608 61.0014H20.4534V61.6996C20.4534 62.3978 20.4534 64.4927 20.4534 65.191C19.6608 65.191 19.6608 65.8893 19.6608 66.5876ZM22.0388 70.079C22.0388 69.3807 20.4534 68.6823 20.4534 68.6823C20.4534 68.6823 20.4534 67.9842 19.6608 67.9842C19.6608 67.286 19.6608 67.2859 19.6608 66.5876C19.6608 65.8893 20.4534 65.191 20.4534 65.191C20.4534 65.191 20.4534 65.8891 21.2461 65.8891L22.0388 66.5876C22.0388 66.5876 22.0388 66.5874 22.0388 67.2857C22.0388 67.984 22.0388 67.9841 22.0388 68.6823C22.0388 69.3806 22.0388 69.3807 22.0388 70.079ZM68.8068 60.3029C69.5995 61.6995 68.8068 61.6996 68.8068 61.6996H68.0141C67.2215 61.6996 65.6361 61.6996 64.8434 61.6996C62.4654 61.6996 57.7093 61.6996 57.7093 61.6996C56.9166 61.0013 56.124 60.3031 56.124 59.6048C55.3313 58.9065 54.5386 58.2083 53.7459 57.5101C52.1606 57.5101 52.1606 56.8115 52.1606 56.8115C50.5752 56.8115 48.9899 56.8115 47.4045 56.8115H46.6118C45.8192 56.8115 46.6118 56.1134 46.6118 56.1134C47.4045 55.4151 47.4045 55.415 47.4045 54.7168L48.1972 54.0187H48.9899C48.9899 54.0187 51.3679 55.4149 52.1606 55.4149L49.7825 54.0187C49.7825 54.0187 48.9899 54.0184 48.9899 53.3201C49.7826 53.3201 50.5752 52.622 50.5752 52.622C50.5752 52.622 52.1606 54.0185 52.9533 54.7168C52.9533 54.7168 52.1606 53.3203 51.3679 52.622L50.5752 51.9235C51.3679 51.9235 51.3679 51.9235 52.1606 51.9235C52.1606 51.9235 52.9533 52.6218 53.7459 53.3201C53.7459 54.0184 54.5386 54.0185 54.5386 54.7168V55.4149C54.5386 56.1132 54.5386 56.1134 55.3313 56.1134C55.3313 56.1134 54.5386 56.1132 54.5386 55.4149V54.7168C54.5386 54.0185 53.7459 53.3201 53.7459 53.3201C52.9533 52.6218 52.1606 51.2255 51.3679 50.5273C54.5386 50.5273 57.7093 51.2254 60.88 51.2254C61.6727 51.2254 62.4654 53.3201 62.4654 53.3201C60.8801 52.6218 59.2947 52.622 56.9167 52.622C56.124 52.622 55.3313 52.622 54.5386 52.622C53.7459 52.622 53.7459 54.0184 53.7459 53.3201C53.7459 53.3201 53.7459 52.622 55.3313 52.622C56.124 52.622 57.7093 52.622 57.7093 52.622C60.0874 52.622 63.2581 53.3202 65.6361 54.7168C65.6361 56.1133 68.0142 59.6046 68.8068 60.3029ZM79.1116 68.6823C79.9043 68.6823 79.9043 67.9842 79.9043 67.9842C80.697 67.286 81.4897 67.9842 81.4897 67.9842C81.4897 67.9842 81.4897 67.9841 81.4897 68.6823C81.4897 68.6823 80.697 70.0788 79.1116 70.7771C78.319 71.4754 75.1483 70.0789 76.7336 68.6823C76.7336 68.6823 76.7336 68.6823 77.5263 68.6823C77.5263 68.6823 77.5263 68.6822 77.5263 69.3805C77.5263 70.0787 77.5263 70.079 78.319 70.079C77.5263 68.6824 78.319 68.6823 79.1116 68.6823ZM79.9043 59.6048C79.9043 58.2082 79.9043 57.51 79.9043 56.1134C79.9043 54.7169 79.9043 54.0186 79.9043 52.622C79.9043 51.9237 79.9043 51.9237 79.9043 51.2254C79.9043 50.5271 79.9043 49.1304 79.1116 48.4321L79.9043 49.1306C79.1116 48.4323 77.5263 47.0358 77.5263 45.6392C76.7336 44.941 76.7336 44.2425 76.7336 42.8459C78.319 42.8459 81.4897 42.8461 82.2824 42.1478C83.8677 44.941 84.6604 47.7342 84.6604 50.5273C84.6604 51.9238 84.6604 53.3202 84.6604 54.7168C84.6604 56.1133 84.6604 58.2082 83.8677 59.6048C83.8677 61.0014 83.0751 62.3978 82.2824 63.7943C82.2824 63.7943 82.2824 64.4928 81.4897 64.4928C80.697 65.1911 79.9043 65.1908 79.1116 65.8891L78.319 66.5876C78.319 67.2859 77.5263 67.9842 76.7336 67.9842C76.7336 67.9842 75.9409 67.984 75.9409 67.2857L78.319 63.7943C78.319 63.7943 78.319 63.0962 79.1116 63.0962C80.697 63.0962 79.9043 59.6048 79.9043 59.6048ZM58.502 65.191C57.7093 65.191 57.7093 65.191 58.502 65.191C57.7093 65.191 57.7093 65.191 58.502 65.191ZM67.2215 84.7427C67.2215 85.4409 66.4288 86.8374 66.4288 86.8374C65.6361 88.234 64.0507 88.2342 64.0507 87.536C64.0507 87.536 64.8434 86.8376 64.8434 86.1393C64.8434 85.441 64.8434 84.7427 64.8434 84.7427C64.8434 85.4409 64.0507 86.1393 64.0507 86.1393L63.2581 86.8374H62.4654C62.4654 86.1391 62.4654 86.1393 62.4654 86.1393C63.2581 85.441 64.0507 85.4409 64.0507 84.7427C64.0507 84.7427 64.0508 85.441 62.4654 86.1393C62.4654 86.1393 62.4654 86.1393 61.6727 86.1393C60.88 85.441 61.6727 85.4409 62.4654 84.7427C62.4654 84.7427 62.4654 84.7428 63.2581 84.0446C64.0508 83.3463 64.0508 82.6478 63.2581 81.2513C63.2581 80.553 63.2581 80.5529 62.4654 79.8546C62.4654 78.4581 61.6727 77.0617 60.88 75.6651V74.967V73.5704L61.6727 72.1737C62.4654 73.5703 64.0508 73.5704 64.8434 73.5704C66.4288 74.2687 66.4288 75.6651 66.4288 75.6651C66.4288 76.3634 66.4288 76.3635 65.6361 77.0618C65.6361 77.7601 64.8434 79.1564 64.8434 79.8546C66.4288 82.6478 67.2215 84.0444 67.2215 84.7427ZM67.2215 86.1393C68.0141 84.7428 66.4288 82.6479 66.4288 82.6479C66.4288 81.9496 67.2215 79.8548 67.2215 79.1565C67.2215 78.4582 68.0141 77.7601 67.2215 77.0618C67.2215 76.3635 66.4288 75.6651 65.6361 75.6651C65.6361 75.6651 63.2581 74.9668 62.4654 74.2685C62.4654 74.2685 62.4654 74.2684 61.6727 72.8718C60.88 72.1736 60.88 72.1739 60.0874 71.4756C59.2947 68.6825 57.7093 67.2857 57.7093 67.2857C57.7093 66.5874 56.9167 66.5873 56.9167 65.8891H57.7093C58.502 65.8891 58.502 65.8891 59.2947 65.8891C60.0874 65.8891 61.6727 65.8893 62.4654 66.5876C64.0508 66.5876 64.8434 66.5876 66.4288 66.5876C67.2215 66.5876 68.8068 66.5876 69.5995 66.5876C70.3922 66.5876 71.9775 66.5876 72.7702 66.5876C73.5629 66.5876 74.3556 66.5873 75.1483 65.8891C76.7336 65.1908 78.319 62.3979 78.319 63.0962V63.7943C78.319 63.7943 77.5263 64.4928 75.9409 67.9842C75.9409 67.9842 75.1483 67.9839 75.1483 69.3805C75.1483 70.777 77.5263 71.4756 78.319 71.4756C78.319 71.4756 79.1117 71.4755 80.697 70.079C80.697 70.7773 79.9043 70.7774 79.9043 71.4756C79.9043 72.1739 77.5263 76.3636 76.7336 78.4584C76.7336 77.7601 75.9409 77.0618 75.1483 77.0618C75.1483 77.0618 74.3556 77.0615 74.3556 76.3632C73.5629 76.3632 73.5629 76.3634 72.7702 75.6651C72.7702 75.6651 72.7702 71.4755 72.7702 70.079C72.7702 69.3807 72.7702 68.6825 71.9775 67.9842C71.9775 67.9842 72.7702 70.0791 71.9775 71.4756C71.9775 72.1739 71.9775 73.5705 71.9775 74.967C71.1848 74.2687 70.3922 74.2685 70.3922 74.2685C69.5995 74.2685 69.5995 72.8718 69.5995 72.8718C69.5995 72.1736 69.5995 71.4756 69.5995 71.4756C69.5995 70.7774 69.5995 69.3806 69.5995 68.6823C69.5995 68.6823 69.5995 70.7774 69.5995 71.4756C69.5995 72.1739 69.5995 72.8718 69.5995 72.8718C69.5995 73.5701 69.5995 74.2685 70.3922 74.2685C71.1849 74.2685 71.9775 74.967 72.7702 74.967V75.6651C72.7702 76.3634 74.3556 77.0618 75.1483 77.0618C75.9409 77.7601 76.7336 78.4582 76.7336 79.1565C76.7336 79.1565 75.9409 81.2514 76.7336 82.6479C74.3556 83.3462 71.1849 84.7428 67.2215 86.1393ZM87.8311 68.6823C87.0384 68.6823 87.0384 69.3806 87.0384 68.6823C87.0384 68.6823 87.8311 66.5875 87.8311 65.191C88.6238 63.0961 89.4165 59.6048 89.4165 59.6048H90.2092C89.4165 61.6996 87.8311 67.2858 87.8311 68.6823ZM90.2092 62.3977C89.4165 64.4925 89.4165 64.4928 89.4165 64.4928C90.2091 62.398 90.2092 61.6996 90.2092 59.6048C90.2092 61.0014 90.2092 61.6994 90.2092 62.3977ZM92.5872 67.9842C91.7945 67.286 92.5872 65.8891 92.5872 65.8891C92.5872 65.8891 92.5872 65.8891 93.3799 65.8891C92.5872 66.5873 92.5872 67.9842 92.5872 67.9842ZM94.9652 61.6996C94.9652 62.3978 94.9652 62.3979 94.1725 63.0962C94.1725 62.3979 94.9652 61.0014 94.9652 61.0014C94.9652 61.0014 94.1725 61.0011 93.3799 65.8891H92.5872V65.191C92.5872 64.4927 93.3799 63.7945 93.3799 63.0962C93.3799 61.0014 94.9652 60.3032 94.9652 61.0014C95.7579 60.3032 94.9652 61.0013 94.9652 61.6996Z" fill="white"/>
<path d="M116.4 67C118.774 67 120.7 65.0748 120.7 62.7C120.7 60.3252 118.774 58.4 116.4 58.4C114.025 58.4 112.1 60.3252 112.1 62.7C112.1 65.0748 114.025 67 116.4 67Z" fill="white"/>
</svg>
