<svg id="Capa_1" data-name="Capa 1" xmlns="http://www.w3.org/2000/svg" viewBox="0 0 191 85"><defs><style>.cls-1,.cls-11,.cls-2{fill:none;stroke:#fff;stroke-linecap:round;}.cls-1,.cls-11{stroke-miterlimit:10;}.cls-1,.cls-2{stroke-width:1.72px;}.cls-3,.cls-4{fill:#fff;}.cls-4{font-size:9.85px;font-family:HelveticaNeue-CondensedBold, Helvetica Neue;font-weight:700;}.cls-5{letter-spacing:-0.04em;}.cls-6{letter-spacing:0em;}.cls-7{letter-spacing:-0.02em;}.cls-10,.cls-8,.cls-9{font-family:HelveticaNeue-Condensed, Helvetica Neue;font-weight:400;}.cls-9{letter-spacing:-0.04em;}.cls-10{letter-spacing:-0.05em;}.cls-11{stroke-width:1.78px;}</style></defs><path class="cls-1" d="M116,20.49V3.22h14.57q9.83,0,15.11,5T151,23.45a34.53,34.53,0,0,1-1.19,9.49,17.85,17.85,0,0,1-3.69,7,15.93,15.93,0,0,1-6.37,4.31,25.31,25.31,0,0,1-9.16,1.49h-8.92m9.4-4.76a23.73,23.73,0,0,0,2.38-.15,13.19,13.19,0,0,0,3-.71,13.75,13.75,0,0,0,3.18-1.64,10.64,10.64,0,0,0,2.83-2.91,16.29,16.29,0,0,0,2.05-4.61,24.13,24.13,0,0,0,.81-6.7,28.28,28.28,0,0,0-.75-6.81,12.93,12.93,0,0,0-2.44-5.11,10.79,10.79,0,0,0-4.37-3.22,17.51,17.51,0,0,0-6.6-1.1h-9.52v33Z"/><path class="cls-1" d="M154.14,8V3.22h34V8H174V45.7H168.3V8Z"/><path class="cls-2" d="M25.3,8.34,11.4,45.7H5.63L22.17,3.22h6.24L45,45.7H38.77Z"/><path class="cls-2" d="M86.35,29.7q-.84,8-5.53,12.49T68,46.65A20.48,20.48,0,0,1,59.34,45a17,17,0,0,1-6.13-4.67,20.32,20.32,0,0,1-3.66-7,30.07,30.07,0,0,1-1.22-8.69,28.37,28.37,0,0,1,1.31-8.71,21,21,0,0,1,3.84-7.11A17.85,17.85,0,0,1,59.79,4a20.28,20.28,0,0,1,8.65-1.76,21.68,21.68,0,0,1,6.31.9A16.77,16.77,0,0,1,80,5.72,14.62,14.62,0,0,1,83.91,10a15.63,15.63,0,0,1,2,6m-5.65,0a10.5,10.5,0,0,0-4.19-6.78A13.18,13.18,0,0,0,68.38,7,13.79,13.79,0,0,0,61.87,8.4a12.75,12.75,0,0,0-4.46,3.84,16.41,16.41,0,0,0-2.59,5.5A24.36,24.36,0,0,0,54,24.16,27.36,27.36,0,0,0,54.82,31a16.38,16.38,0,0,0,2.59,5.65,12.88,12.88,0,0,0,4.49,3.84A14,14,0,0,0,68.44,42a12.52,12.52,0,0,0,5-.92,11.16,11.16,0,0,0,3.75-2.56,11.91,11.91,0,0,0,2.47-3.89A16.46,16.46,0,0,0,80.7,29.7"/><circle class="cls-3" cx="25.32" cy="31.76" r="2.8"/><text class="cls-4" transform="translate(2.5 67.98)">DISEÑO<tspan class="cls-5" x="29.17" y="0"> </tspan><tspan x="31.17" y="0">TRANSMEDIA</tspan><tspan class="cls-5" x="83.31" y="0"> </tspan><tspan class="cls-6" x="85.31" y="0">Y</tspan><tspan class="cls-5" x="90.43" y="0"> </tspan><tspan x="92.43" y="0">A</tspan><tspan class="cls-7" x="97.91" y="0">R</tspan><tspan x="103.21" y="0">TE CONTEMPORÁNEO</tspan><tspan x="0" y="13.43">CÁTEDRA LA FERLA </tspan><tspan class="cls-8" x="78.77" y="13.43">/ UBA</tspan><tspan class="cls-9" x="99.02" y="13.43">,</tspan><tspan class="cls-8" x="101.02" y="13.43"> </tspan><tspan class="cls-10" x="103.39" y="13.43">F</tspan><tspan class="cls-8" x="107.23" y="13.43">ADU</tspan></text><line class="cls-11" x1="108.73" y1="3.22" x2="91.31" y2="45.7"/></svg>