<svg id="Capa_1" data-name="Capa 1" xmlns="http://www.w3.org/2000/svg" viewBox="0 0 229 71"><defs><style>.cls-1{fill:#fff;}</style></defs><path class="cls-1" d="M12.54,52.13v7.6H11.05V49.23h2.07l1.7,6.29V49.23h1.47v10.5h-1.7Z"/><path class="cls-1" d="M22.81,59.73H21.15l-.29-1.9h-2l-.29,1.9H17l1.68-10.5h2.41ZM19.05,56.4h1.59l-.8-5.31Z"/><path class="cls-1" d="M25.69,57.79,27,49.23h1.52l-1.62,10.5H24.39l-1.62-10.5h1.66Z"/><path class="cls-1" d="M30.88,53.66h2.27v1.5H30.88v3.07h2.85v1.5h-4.5V49.23h4.5v1.5H30.88Z"/><path class="cls-1" d="M37.23,53.88h2.31v3.33c0,1.68-.84,2.64-2.46,2.64s-2.46-1-2.46-2.64V51.75c0-1.68.84-2.64,2.46-2.64s2.46,1,2.46,2.64v1H38V51.65c0-.75-.33-1-.86-1s-.85.29-.85,1v5.67c0,.75.33,1,.85,1s.86-.26.86-1V55.38h-.75Z"/><path class="cls-1" d="M45.93,59.73H44.26L44,57.83H42l-.28,1.9H40.15l1.68-10.5h2.42ZM42.16,56.4h1.59L43,51.09Z"/><path class="cls-1" d="M48.16,52.13v7.6H46.68V49.23h2.07l1.69,6.29V49.23h1.47v10.5H50.22Z"/><path class="cls-1" d="M53.1,49.23h2.61c1.65,0,2.46.92,2.46,2.6v5.31c0,1.68-.81,2.59-2.46,2.59H53.1Zm1.65,1.5v7.5h.93c.52,0,.84-.27.84-1V51.75c0-.75-.32-1-.84-1Z"/><path class="cls-1" d="M59.08,51.75a2.51,2.51,0,1,1,5,0v5.46a2.51,2.51,0,1,1-5,0Zm1.65,5.57c0,.75.33,1,.86,1s.85-.28.85-1V51.65c0-.75-.33-1-.85-1s-.86.29-.86,1Z"/><path class="cls-1" d="M69.13,53.66H71.4v1.5H69.13v3.07H72v1.5h-4.5V49.23H72v1.5H69.13Z"/><path class="cls-1" d="M73,49.23h1.65v9h2.72v1.5H73Z"/><path class="cls-1" d="M85.3,51.83v1.36c0,1.68-.81,2.6-2.46,2.6h-.78v3.94H80.41V49.23h2.43C84.49,49.23,85.3,50.15,85.3,51.83Zm-3.24-1.1v3.56h.78c.53,0,.81-.24.81-1V51.72c0-.75-.28-1-.81-1Z"/><path class="cls-1" d="M91.21,59.73H89.55l-.29-1.9h-2L87,59.73H85.44l1.68-10.5h2.41ZM87.45,56.4H89l-.8-5.31Z"/><path class="cls-1" d="M92,49.23h1.65v10.5H92Z"/><path class="cls-1" d="M97.05,49.11c1.6,0,2.43,1,2.43,2.64v.33H97.92v-.43c0-.75-.3-1-.83-1s-.82.29-.82,1c0,2.16,3.22,2.56,3.22,5.56,0,1.68-.84,2.64-2.46,2.64s-2.46-1-2.46-2.64v-.64h1.56v.75c0,.75.33,1,.86,1s.85-.26.85-1c0-2.16-3.22-2.57-3.22-5.57C94.62,50.07,95.44,49.11,97.05,49.11Z"/><path class="cls-1" d="M105.78,59.73h-1.67l-.28-1.9h-2l-.28,1.9H100l1.68-10.5h2.42ZM102,56.4h1.59l-.79-5.31Z"/><path class="cls-1" d="M106.09,58.23a5.43,5.43,0,0,0,.57,0c.53,0,1-.2,1-1v-8h1.65v7.89c0,2.1-1.13,2.64-2.37,2.64a6.87,6.87,0,0,1-.8,0Z"/><path class="cls-1" d="M112,53.66h2.27v1.5H112v3.07h2.85v1.5h-4.5V49.23h4.5v1.5H112Z"/><path class="cls-1" d="M119.8,49.23v8.1c0,.75.33,1,.86,1s.85-.27.85-1v-8.1h1.56v8c0,1.68-.84,2.64-2.46,2.64s-2.46-1-2.46-2.64v-8Z"/><path class="cls-1" d="M127.65,59.73a3.25,3.25,0,0,1-.15-1.29V56.79c0-1-.33-1.33-1.08-1.33h-.57v4.27H124.2V49.23h2.49c1.71,0,2.44.8,2.44,2.42v.82a2.08,2.08,0,0,1-1.08,2.13c.83.35,1.1,1.14,1.1,2.23v1.63a3,3,0,0,0,.18,1.27Zm-1.8-9V54h.64c.62,0,1-.27,1-1.11v-1c0-.75-.25-1.08-.84-1.08Z"/><path class="cls-1" d="M135.16,51.65V52a2.08,2.08,0,0,1-1.06,2.12,2.13,2.13,0,0,1,1.23,2.25v.85a2.24,2.24,0,0,1-2.51,2.49h-2.59V49.23h2.49C134.43,49.23,135.16,50,135.16,51.65Zm-3.28-.92v2.78h.64c.62,0,1-.27,1-1.11v-.59c0-.75-.25-1.08-.84-1.08Zm0,4.28v3.22h.94c.56,0,.86-.25.86-1v-.92c0-1-.32-1.27-1.07-1.27Z"/><path class="cls-1" d="M141.66,59.73H140l-.28-1.9h-2l-.28,1.9h-1.52l1.68-10.5H140Zm-3.77-3.33h1.59l-.79-5.31Z"/><path class="cls-1" d="M143.89,52.13v7.6h-1.48V49.23h2.07l1.69,6.29V49.23h1.47v10.5H146Z"/><path class="cls-1" d="M148.69,51.75a2.51,2.51,0,1,1,5,0v5.46a2.51,2.51,0,1,1-5,0Zm1.65,5.57c0,.75.33,1,.86,1s.85-.28.85-1V51.65c0-.75-.33-1-.85-1s-.86.29-.86,1Z"/><path class="cls-1" d="M158.64,56.25l-2.09-7h1.73L159.54,54l1.26-4.79h1.57l-2.08,7v3.48h-1.65Z"/><path class="cls-1" d="M167,53.66h2.26v1.5H167v3.07h2.85v1.5h-4.5V49.23h4.5v1.5H167Z"/><path class="cls-1" d="M176.38,49.23l-1.72,5.1,1.84,5.4h-1.74l-1.35-4.15-1.36,4.15H170.5l1.85-5.4-1.73-5.1h1.71l1.25,3.87,1.27-3.87Z"/><path class="cls-1" d="M182.22,51.83v1.36c0,1.68-.81,2.6-2.46,2.6H179v3.94h-1.65V49.23h2.43C181.41,49.23,182.22,50.15,182.22,51.83ZM179,50.73v3.56h.78c.52,0,.81-.24.81-1V51.72c0-.75-.29-1-.81-1Z"/><path class="cls-1" d="M182.85,51.75a2.51,2.51,0,1,1,5,0v5.46a2.51,2.51,0,1,1-5,0Zm1.65,5.57c0,.75.33,1,.85,1s.86-.28.86-1V51.65c0-.75-.33-1-.86-1s-.85.29-.85,1Z"/><path class="cls-1" d="M191.14,49.11c1.61,0,2.43,1,2.43,2.64v.33H192v-.43c0-.75-.3-1-.82-1s-.83.29-.83,1c0,2.16,3.23,2.56,3.23,5.56,0,1.68-.84,2.64-2.46,2.64s-2.46-1-2.46-2.64v-.64h1.56v.75c0,.75.33,1,.85,1s.86-.26.86-1c0-2.16-3.23-2.57-3.23-5.57C188.71,50.07,189.54,49.11,191.14,49.11Z"/><path class="cls-1" d="M194.53,49.23h1.65v10.5h-1.65Z"/><path class="cls-1" d="M196.9,49.23H202v1.5h-1.72v9h-1.65v-9H196.9Z"/><path class="cls-1" d="M202.72,49.23h1.65v10.5h-1.65Z"/><path class="cls-1" d="M208.06,57.79l1.26-8.56h1.52l-1.62,10.5h-2.46l-1.62-10.5h1.66Z"/><path class="cls-1" d="M211.45,51.75a2.51,2.51,0,1,1,5,0v5.46a2.51,2.51,0,1,1-5,0Zm1.65,5.57c0,.75.33,1,.86,1s.85-.28.85-1V51.65c0-.75-.33-1-.85-1s-.86.29-.86,1Z"/><path class="cls-1" d="M11.12,13.75h6c3.78,0,5.64,2.1,5.64,5.95V31.87c0,3.86-1.86,5.95-5.64,5.95h-6Zm3.79,3.44V34.38H17c1.2,0,1.93-.61,1.93-2.33V19.53c0-1.72-.73-2.34-1.93-2.34Z"/><path class="cls-1" d="M29.22,23.89h5.19v3.44H29.22v7.05h6.53v3.44H25.44V13.75H35.75v3.44H29.22Z"/><path class="cls-1" d="M46.28,37.82a7.28,7.28,0,0,1-.34-3V31.08c0-2.23-.76-3.06-2.48-3.06H42.15v9.8H38.37V13.75h5.71c3.92,0,5.61,1.82,5.61,5.54v1.89c0,2.47-.8,4.09-2.48,4.88,1.89.79,2.51,2.62,2.51,5.13V34.9a7,7,0,0,0,.41,2.92ZM42.15,17.19v7.39h1.48C45,24.58,45.9,24,45.9,22V19.66c0-1.71-.58-2.47-1.93-2.47Z"/><path class="cls-1" d="M52.58,13.75h3.78V37.82H52.58Z"/><path class="cls-1" d="M65.1,33.39,68,13.75h3.48L67.74,37.82H62.1L58.39,13.75h3.82Z"/><path class="cls-1" d="M84.88,37.82H81.06l-.66-4.36H75.76l-.65,4.36H71.63l3.85-24.07H81Zm-8.64-7.63h3.65L78.06,18Z"/><path class="cls-1" d="M92,13.47c3.68,0,5.57,2.2,5.57,6.06v.75H94v-1c0-1.72-.69-2.38-1.89-2.38s-1.89.66-1.89,2.38c0,4.95,7.39,5.88,7.39,12.76,0,3.85-1.92,6.05-5.64,6.05s-5.64-2.2-5.64-6.05V30.57H89.9v1.72c0,1.72.76,2.34,2,2.34s2-.62,2-2.34c0-5-7.39-5.88-7.39-12.76C86.43,15.67,88.32,13.47,92,13.47Z"/><path class="cls-1" d="M111.36,33.39l2.89-19.64h3.48L114,37.82h-5.64l-3.71-24.07h3.81Z"/><path class="cls-1" d="M119.76,13.75h3.78V37.82h-3.78Z"/><path class="cls-1" d="M134.48,37.82a7.21,7.21,0,0,1-.35-3V31.08c0-2.23-.75-3.06-2.47-3.06h-1.31v9.8h-3.78V13.75h5.71c3.92,0,5.6,1.82,5.6,5.54v1.89c0,2.47-.79,4.09-2.47,4.88,1.89.79,2.51,2.62,2.51,5.13V34.9a7,7,0,0,0,.41,2.92Zm-4.13-20.63v7.39h1.48c1.41,0,2.27-.62,2.27-2.54V19.66c0-1.71-.58-2.47-1.93-2.47Z"/><path class="cls-1" d="M139.57,13.75h11.69v3.44h-3.95V37.82h-3.78V17.19h-4Z"/><path class="cls-1" d="M156.8,13.75V32.32c0,1.72.76,2.34,2,2.34s2-.62,2-2.34V13.75h3.58V32.08c0,3.85-1.92,6.05-5.64,6.05S153,35.93,153,32.08V13.75Z"/><path class="cls-1" d="M179.4,37.82h-3.82l-.65-4.36h-4.64l-.66,4.36h-3.47L170,13.75h5.54Zm-8.63-7.63h3.65L172.59,18Z"/><path class="cls-1" d="M181.71,13.75h3.78V34.38h6.23v3.44h-10Z"/><path class="cls-1" d="M197.43,23.89h5.19v3.44h-5.19v7.05H204v3.44H193.65V13.75H204v3.44h-6.53Z"/><path class="cls-1" d="M211.67,13.47c3.68,0,5.57,2.2,5.57,6.06v.75h-3.58v-1c0-1.72-.68-2.38-1.89-2.38s-1.89.66-1.89,2.38c0,4.95,7.4,5.88,7.4,12.76,0,3.85-1.93,6.05-5.65,6.05S206,35.9,206,32.05V30.57h3.58v1.72c0,1.72.76,2.34,2,2.34s2-.62,2-2.34c0-5-7.39-5.88-7.39-12.76C206.1,15.67,208,13.47,211.67,13.47Z"/></svg>