{
    "asset" : {
        "generator" : "Khronos glTF Blender I/O v1.3.48",
        "version" : "2.0"
    },
    "scene" : 0,
    "scenes" : [
        {
            "name" : "Scene",
            "nodes" : [
                0
            ]
        }
    ],
    "nodes" : [
        {
            "mesh" : 0,
            "name" : "InfoObras_AutorretratoConHijos",
            "rotation" : [
                0.2516178488731384,
                0.9217512607574463,
                0.2883314788341522,
                0.06267407536506653
            ],
            "scale" : [
                0.16694223880767822,
                0.16694222390651703,
                0.16694223880767822
            ],
            "translation" : [
                7.416130065917969,
                0.25854846835136414,
                4.592967987060547
            ]
        }
    ],
    "meshes" : [
        {
            "name" : "C\u00edrculo.010",
            "primitives" : [
                {
                    "attributes" : {
                        "POSITION" : 0,
                        "NORMAL" : 1,
                        "TEXCOORD_0" : 2
                    },
                    "indices" : 3
                }
            ]
        }
    ],
    "accessors" : [
        {
            "bufferView" : 0,
            "componentType" : 5126,
            "count" : 15,
            "max" : [
                0.866025447845459,
                1.381739854812622,
                0.5000000596046448
            ],
            "min" : [
                -0.8660253882408142,
                0,
                -1
            ],
            "type" : "VEC3"
        },
        {
            "bufferView" : 1,
            "componentType" : 5126,
            "count" : 15,
            "type" : "VEC3"
        },
        {
            "bufferView" : 2,
            "componentType" : 5126,
            "count" : 15,
            "type" : "VEC2"
        },
        {
            "bufferView" : 3,
            "componentType" : 5123,
            "count" : 30,
            "type" : "SCALAR"
        }
    ],
    "bufferViews" : [
        {
            "buffer" : 0,
            "byteLength" : 180,
            "byteOffset" : 0
        },
        {
            "buffer" : 0,
            "byteLength" : 180,
            "byteOffset" : 180
        },
        {
            "buffer" : 0,
            "byteLength" : 120,
            "byteOffset" : 360
        },
        {
            "buffer" : 0,
            "byteLength" : 60,
            "byteOffset" : 480
        }
    ],
    "buffers" : [
        {
            "byteLength" : 540,
            "uri" : "data:application/octet-stream;base64,"
        }
    ]
}
